SplineFontDB: 3.0
FontName: CharterishSmallCapsBoldItalic
FullName: Charterish Small Caps Bold Italic
FamilyName: Charterish Small Caps
Weight: Bold
Copyright: Copyright (c) 1997-2013, SIL International (http://scripts.sil.org/)
Version: 4.114
ItalicAngle: -11
UnderlinePosition: -230
UnderlineWidth: 120
Ascent: 1638
Descent: 410
sfntRevision: 0x00041c28
LayerCount: 2
Layer: 0 1 "Arri+AOgA-re"  1
Layer: 1 1 "Avant"  0
XUID: [1021 607 50037791 10057023]
FSType: 4
OS2Version: 3
OS2_WeightWidthSlopeOnly: 0
OS2_UseTypoMetrics: 1
CreationTime: 1237439526
ModificationTime: 1390651882
PfmFamily: 17
TTFWeight: 700
TTFWidth: 5
LineGap: 0
VLineGap: 0
Panose: 2 0 8 0 7 0 0 9 0 4
OS2TypoAscent: 1561
OS2TypoAOffset: 0
OS2TypoDescent: -487
OS2TypoDOffset: 0
OS2TypoLinegap: 446
OS2WinAscent: 1972
OS2WinAOffset: 0
OS2WinDescent: 483
OS2WinDOffset: 0
HheadAscent: 2007
HheadAOffset: 0
HheadDescent: -487
HheadDOffset: 0
OS2SubXSize: 1331
OS2SubYSize: 1229
OS2SubXOff: 5
OS2SubYOff: 460
OS2SupXSize: 1331
OS2SupYSize: 1229
OS2SupXOff: 5
OS2SupYOff: 785
OS2StrikeYSize: 100
OS2StrikeYPos: 500
OS2Vendor: 'SIL '
OS2CodePages: 20000197.00000000
OS2UnicodeRanges: a00002ff.5200a1ff.02000009.00000000
Lookup: 5 0 0 "'ccmp' Composizione/Decomposizione del glifo lookups0"  {"sous-table 'ccmp' Composizione/Decomposizione del glifo lookups0"  } ['ccmp' ('cyrl' <'dflt' > 'latn' <'IPPH' 'ROM ' 'VIT ' 'dflt' > ) ]
Lookup: 5 0 0 "'ccmp' Composizione/Decomposizione del glifo lookups1"  {"sous-table 'ccmp' Composizione/Decomposizione del glifo lookups1"  } ['ccmp' ('cyrl' <'dflt' > 'latn' <'IPPH' 'ROM ' 'VIT ' 'dflt' > ) ]

StartChar: .notdef
Encoding: 65536 -1 0
Width: 748
Flags: W
LayerCount: 2
Fore
SplineSet
68 0 m 1,0,-1
 68 1365 l 1,1,-1
 612 1365 l 1,2,-1
 612 0 l 1,3,-1
 68 0 l 1,0,-1
136 68 m 1,4,-1
 544 68 l 1,5,-1
 544 1297 l 1,6,-1
 136 1297 l 1,7,-1
 136 68 l 1,4,-1
EndSplineSet
EndChar

StartChar: exclam
Encoding: 33 33 4
Width: 778
GlyphClass: 2
Flags: W
LayerCount: 2
Fore
SplineSet
170 141 m 0,0,1
 170 175 170 175 182 204.5 c 128,-1,2
 194 234 194 234 215 256.5 c 128,-1,3
 236 279 236 279 264.5 292 c 128,-1,4
 293 305 293 305 326 305 c 0,5,6
 363 305 363 305 393.5 291 c 128,-1,7
 424 277 424 277 446 253.5 c 128,-1,8
 468 230 468 230 480 198.5 c 128,-1,9
 492 167 492 167 492 133 c 256,10,11
 492 99 492 99 478.5 70 c 128,-1,12
 465 41 465 41 442 20 c 128,-1,13
 419 -1 419 -1 388.5 -13 c 128,-1,14
 358 -25 358 -25 324 -25 c 0,15,16
 291 -25 291 -25 263 -11.5 c 128,-1,17
 235 2 235 2 214 25 c 128,-1,18
 193 48 193 48 181.5 78 c 128,-1,19
 170 108 170 108 170 141 c 0,0,1
307 426 m 1,20,-1
 354 1214 l 1,21,22
 354 1257 354 1257 371 1292.5 c 128,-1,23
 388 1328 388 1328 416 1353.5 c 128,-1,24
 444 1379 444 1379 480.5 1393 c 128,-1,25
 517 1407 517 1407 555 1407 c 0,26,27
 630 1407 630 1407 662 1372 c 128,-1,28
 694 1337 694 1337 694 1262 c 1,29,30
 642 1103 642 1103 592 951 c 0,31,32
 571 886 571 886 547.5 816 c 128,-1,33
 524 746 524 746 501.5 677 c 128,-1,34
 479 608 479 608 457.5 543.5 c 128,-1,35
 436 479 436 479 418 426 c 1,36,-1
 307 426 l 1,20,-1
EndSplineSet
EndChar

StartChar: quotedbl
Encoding: 34 34 5
Width: 770
GlyphClass: 2
Flags: W
LayerCount: 2
Fore
SplineSet
205 854 m 1,0,-1
 219 1333 l 2,1,2
 220 1361 220 1361 233 1384.5 c 128,-1,3
 246 1408 246 1408 266 1425 c 128,-1,4
 286 1442 286 1442 311 1452 c 128,-1,5
 336 1462 336 1462 362 1462 c 0,6,7
 407 1462 407 1462 434 1440 c 128,-1,8
 461 1418 461 1418 461 1370 c 0,9,10
 461 1360 461 1360 450 1324 c 128,-1,11
 439 1288 439 1288 421.5 1238 c 128,-1,12
 404 1188 404 1188 382.5 1129.5 c 128,-1,13
 361 1071 361 1071 341 1017 c 128,-1,14
 321 963 321 963 304.5 919 c 128,-1,15
 288 875 288 875 281 854 c 1,16,-1
 205 854 l 1,0,-1
606 854 m 1,17,-1
 623 1333 l 2,18,19
 624 1361 624 1361 636 1384.5 c 128,-1,20
 648 1408 648 1408 668 1425 c 128,-1,21
 688 1442 688 1442 713 1452 c 128,-1,22
 738 1462 738 1462 764 1462 c 0,23,24
 809 1462 809 1462 835.5 1440 c 128,-1,25
 862 1418 862 1418 862 1370 c 0,26,27
 862 1360 862 1360 851 1324 c 128,-1,28
 840 1288 840 1288 822.5 1238 c 128,-1,29
 805 1188 805 1188 783.5 1129.5 c 128,-1,30
 762 1071 762 1071 742 1017 c 128,-1,31
 722 963 722 963 706 919 c 128,-1,32
 690 875 690 875 682 854 c 1,33,-1
 606 854 l 1,17,-1
EndSplineSet
EndChar

StartChar: numbersign
Encoding: 35 35 6
Width: 1518
GlyphClass: 2
Flags: W
LayerCount: 2
Fore
SplineSet
127 449 m 1,0,-1
 127 578 l 1,1,-1
 442 578 l 1,2,-1
 530 848 l 1,3,-1
 227 848 l 1,4,-1
 227 983 l 1,5,-1
 573 983 l 1,6,-1
 731 1454 l 1,7,-1
 868 1417 l 1,8,-1
 717 983 l 1,9,-1
 983 983 l 1,10,-1
 1135 1454 l 1,11,-1
 1276 1415 l 1,12,-1
 1122 983 l 1,13,-1
 1391 983 l 1,14,-1
 1391 848 l 1,15,-1
 1079 848 l 1,16,-1
 991 578 l 1,17,-1
 1309 578 l 1,18,-1
 1309 449 l 1,19,-1
 946 449 l 1,20,-1
 791 -49 l 1,21,-1
 649 -14 l 1,22,-1
 801 449 l 1,23,-1
 545 449 l 1,24,-1
 385 -49 l 1,25,-1
 248 -12 l 1,26,-1
 401 449 l 1,27,-1
 127 449 l 1,0,-1
588 578 m 1,28,-1
 842 578 l 1,29,-1
 936 848 l 1,30,-1
 678 848 l 1,31,-1
 588 578 l 1,28,-1
EndSplineSet
EndChar

StartChar: dollar
Encoding: 36 36 7
Width: 1225
GlyphClass: 2
Flags: W
LayerCount: 2
Fore
SplineSet
43 68 m 1,0,-1
 113 422 l 1,1,-1
 260 422 l 1,2,-1
 254 201 l 1,3,-1
 254 187 l 2,4,5
 254 183 254 183 255.5 181 c 128,-1,6
 257 179 257 179 260 177.5 c 128,-1,7
 263 176 263 176 270 172 c 0,8,9
 299 155 299 155 334.5 146.5 c 128,-1,10
 370 138 370 138 402 133 c 0,11,12
 438 128 438 128 475 127 c 1,13,-1
 563 578 l 1,14,15
 527 589 527 589 485 604 c 128,-1,16
 443 619 443 619 402 640 c 128,-1,17
 361 661 361 661 325 690.5 c 128,-1,18
 289 720 289 720 264.5 760.5 c 128,-1,19
 240 801 240 801 231 854.5 c 128,-1,20
 222 908 222 908 236 977 c 1,21,22
 249 1047 249 1047 277.5 1101 c 128,-1,23
 306 1155 306 1155 342.5 1196 c 128,-1,24
 379 1237 379 1237 421.5 1265.5 c 128,-1,25
 464 1294 464 1294 506 1313 c 0,26,27
 605 1358 605 1358 721 1368 c 1,28,-1
 752 1520 l 1,29,-1
 872 1520 l 1,30,-1
 842 1368 l 1,31,32
 905 1368 905 1368 968.5 1358.5 c 128,-1,33
 1032 1349 1032 1349 1084 1338 c 0,34,35
 1144 1325 1144 1325 1200 1309 c 1,36,-1
 1133 967 l 1,37,-1
 991 967 l 1,38,-1
 995 1182 l 1,39,40
 997 1194 997 1194 992 1198.5 c 128,-1,41
 987 1203 987 1203 979 1206 c 0,42,43
 964 1213 964 1213 940 1219.5 c 128,-1,44
 916 1226 916 1226 892 1231.5 c 128,-1,45
 868 1237 868 1237 847 1240 c 128,-1,46
 826 1243 826 1243 817 1243 c 1,47,-1
 733 821 l 1,48,49
 765 812 765 812 808 798.5 c 128,-1,50
 851 785 851 785 896 764.5 c 128,-1,51
 941 744 941 744 983.5 714.5 c 128,-1,52
 1026 685 1026 685 1055.5 643.5 c 128,-1,53
 1085 602 1085 602 1097.5 547 c 128,-1,54
 1110 492 1110 492 1096 420 c 0,55,56
 1079 332 1079 332 1032.5 261 c 128,-1,57
 986 190 986 190 917 137 c 128,-1,58
 848 84 848 84 759.5 50 c 128,-1,59
 671 16 671 16 571 2 c 1,60,-1
 530 -209 l 1,61,-1
 410 -209 l 1,62,-1
 451 0 l 1,63,64
 379 3 379 3 308 12 c 0,65,66
 246 20 246 20 175.5 33 c 128,-1,67
 105 46 105 46 43 68 c 1,0,-1
505 994.5 m 128,-1,69
 506 969 506 969 513 949 c 128,-1,70
 520 929 520 929 530 914 c 128,-1,71
 540 899 540 899 552 888 c 0,72,73
 579 862 579 862 618 850 c 1,74,-1
 694 1237 l 1,75,76
 652 1231 652 1231 615 1210 c 0,77,78
 583 1191 583 1191 553 1154 c 128,-1,79
 523 1117 523 1117 510 1051 c 0,80,68
 504 1020 504 1020 505 994.5 c 128,-1,69
598 133 m 1,81,82
 650 140 650 140 695 165 c 0,83,84
 714 175 714 175 733.5 191 c 128,-1,85
 753 207 753 207 770 228.5 c 128,-1,86
 787 250 787 250 800 279 c 128,-1,87
 813 308 813 308 821 346 c 0,88,89
 831 397 831 397 819.5 432 c 128,-1,90
 808 467 808 467 785 490 c 128,-1,91
 762 513 762 513 733 526.5 c 128,-1,92
 704 540 704 540 680 547 c 1,93,-1
 598 133 l 1,81,82
EndSplineSet
EndChar

StartChar: percent
Encoding: 37 37 8
Width: 1843
GlyphClass: 2
Flags: W
LayerCount: 2
Fore
SplineSet
137 840 m 0,0,1
 137 941 137 941 164.5 1042.5 c 128,-1,2
 192 1144 192 1144 248 1225 c 128,-1,3
 304 1306 304 1306 389 1356.5 c 128,-1,4
 474 1407 474 1407 588 1407 c 0,5,6
 728 1407 728 1407 798 1332.5 c 128,-1,7
 868 1258 868 1258 868 1118 c 0,8,9
 868 1050 868 1050 856 982 c 128,-1,10
 844 914 844 914 819.5 850.5 c 128,-1,11
 795 787 795 787 758 732 c 128,-1,12
 721 677 721 677 671.5 636.5 c 128,-1,13
 622 596 622 596 559 572.5 c 128,-1,14
 496 549 496 549 420 549 c 0,15,16
 278 549 278 549 207.5 625 c 128,-1,17
 137 701 137 701 137 840 c 0,0,1
315 0 m 1,18,-1
 1438 1374 l 1,19,-1
 1587 1374 l 1,20,-1
 463 0 l 1,21,-1
 315 0 l 1,18,-1
342 811 m 0,22,23
 342 786 342 786 345 757 c 128,-1,24
 348 728 348 728 358.5 703 c 128,-1,25
 369 678 369 678 387.5 661.5 c 128,-1,26
 406 645 406 645 438 645 c 0,27,28
 477 645 477 645 508.5 675.5 c 128,-1,29
 540 706 540 706 564.5 754.5 c 128,-1,30
 589 803 589 803 606 862.5 c 128,-1,31
 623 922 623 922 634 979.5 c 128,-1,32
 645 1037 645 1037 650 1087 c 128,-1,33
 655 1137 655 1137 655 1165 c 0,34,35
 655 1187 655 1187 652 1213 c 128,-1,36
 649 1239 649 1239 640 1260.5 c 128,-1,37
 631 1282 631 1282 614 1296.5 c 128,-1,38
 597 1311 597 1311 569 1311 c 0,39,40
 527 1311 527 1311 494 1282.5 c 128,-1,41
 461 1254 461 1254 435.5 1208.5 c 128,-1,42
 410 1163 410 1163 392.5 1106.5 c 128,-1,43
 375 1050 375 1050 363.5 994.5 c 128,-1,44
 352 939 352 939 347 890 c 128,-1,45
 342 841 342 841 342 811 c 0,22,23
1034 254 m 0,46,47
 1034 321 1034 321 1046 389.5 c 128,-1,48
 1058 458 1058 458 1082 521.5 c 128,-1,49
 1106 585 1106 585 1143 640 c 128,-1,50
 1180 695 1180 695 1230 735.5 c 128,-1,51
 1280 776 1280 776 1343 799.5 c 128,-1,52
 1406 823 1406 823 1483 823 c 0,53,54
 1623 823 1623 823 1693 748.5 c 128,-1,55
 1763 674 1763 674 1763 535 c 0,56,57
 1763 467 1763 467 1751 398.5 c 128,-1,58
 1739 330 1739 330 1714.5 266.5 c 128,-1,59
 1690 203 1690 203 1652.5 148.5 c 128,-1,60
 1615 94 1615 94 1565 53.5 c 128,-1,61
 1515 13 1515 13 1452 -10 c 128,-1,62
 1389 -33 1389 -33 1313 -33 c 0,63,64
 1172 -33 1172 -33 1103 41 c 128,-1,65
 1034 115 1034 115 1034 254 c 0,46,47
1237 223 m 0,66,67
 1237 199 1237 199 1240 171 c 128,-1,68
 1243 143 1243 143 1253 119 c 128,-1,69
 1263 95 1263 95 1281.5 79 c 128,-1,70
 1300 63 1300 63 1331 63 c 0,71,72
 1371 63 1371 63 1402.5 93.5 c 128,-1,73
 1434 124 1434 124 1458 172 c 128,-1,74
 1482 220 1482 220 1499.5 279.5 c 128,-1,75
 1517 339 1517 339 1527.5 397 c 128,-1,76
 1538 455 1538 455 1543 505 c 128,-1,77
 1548 555 1548 555 1548 584 c 0,78,79
 1548 605 1548 605 1545 630 c 128,-1,80
 1542 655 1542 655 1533 676.5 c 128,-1,81
 1524 698 1524 698 1507 712.5 c 128,-1,82
 1490 727 1490 727 1462 727 c 0,83,84
 1420 727 1420 727 1387.5 698 c 128,-1,85
 1355 669 1355 669 1330 623.5 c 128,-1,86
 1305 578 1305 578 1287.5 521 c 128,-1,87
 1270 464 1270 464 1258.5 408 c 128,-1,88
 1247 352 1247 352 1242 303 c 128,-1,89
 1237 254 1237 254 1237 223 c 0,66,67
EndSplineSet
EndChar

StartChar: ampersand
Encoding: 38 38 9
Width: 1526
GlyphClass: 2
Flags: W
LayerCount: 2
Fore
SplineSet
25 322 m 0,0,1
 25 397 25 397 52.5 459.5 c 128,-1,2
 80 522 80 522 127 575 c 128,-1,3
 174 628 174 628 238 672 c 128,-1,4
 302 716 302 716 375 754 c 1,5,6
 328 817 328 817 297 879.5 c 128,-1,7
 266 942 266 942 266 1014 c 0,8,9
 266 1093 266 1093 300 1163.5 c 128,-1,10
 334 1234 334 1234 398.5 1286.5 c 128,-1,11
 463 1339 463 1339 555 1370 c 128,-1,12
 647 1401 647 1401 764 1401 c 0,13,14
 851 1401 851 1401 917.5 1377.5 c 128,-1,15
 984 1354 984 1354 1028.5 1315 c 128,-1,16
 1073 1276 1073 1276 1095.5 1226 c 128,-1,17
 1118 1176 1118 1176 1118 1124 c 0,18,19
 1118 1052 1118 1052 1088 993.5 c 128,-1,20
 1058 935 1058 935 1003.5 887 c 128,-1,21
 949 839 949 839 873.5 800.5 c 128,-1,22
 798 762 798 762 707 731 c 1,23,-1
 952 414 l 1,24,25
 989 462 989 462 1018 512 c 128,-1,26
 1047 562 1047 562 1067 602 c 0,27,28
 1069 605 1069 605 1067 613 c 128,-1,29
 1065 621 1065 621 1063 621 c 2,30,-1
 942 641 l 1,31,-1
 942 752 l 1,32,-1
 1460 752 l 1,33,-1
 1460 641 l 1,34,-1
 1309 625 l 1,35,36
 1265 537 1265 537 1200.5 444 c 128,-1,37
 1136 351 1136 351 1059 270 c 1,38,39
 1096 222 1096 222 1130 191 c 128,-1,40
 1164 160 1164 160 1202.5 142 c 128,-1,41
 1241 124 1241 124 1286.5 117.5 c 128,-1,42
 1332 111 1332 111 1391 111 c 1,43,-1
 1391 4 l 1,44,45
 1317 1 1317 1 1276 -2 c 128,-1,46
 1235 -5 1235 -5 1206 -6 c 1,47,48
 1128 -12 1128 -12 1051 0 c 1,49,50
 1000 11 1000 11 957.5 36 c 128,-1,51
 915 61 915 61 870 109 c 1,52,53
 830 82 830 82 784.5 58 c 128,-1,54
 739 34 739 34 685 16 c 128,-1,55
 631 -2 631 -2 568.5 -12.5 c 128,-1,56
 506 -23 506 -23 432 -23 c 0,57,58
 336 -23 336 -23 260.5 2.5 c 128,-1,59
 185 28 185 28 132.5 73.5 c 128,-1,60
 80 119 80 119 52.5 182.5 c 128,-1,61
 25 246 25 246 25 322 c 0,0,1
326 381 m 0,62,63
 326 318 326 318 347.5 270.5 c 128,-1,64
 369 223 369 223 401 191 c 128,-1,65
 433 159 433 159 469.5 143 c 128,-1,66
 506 127 506 127 537 127 c 0,67,68
 569 127 569 127 596 133 c 128,-1,69
 623 139 623 139 649.5 151 c 128,-1,70
 676 163 676 163 705 182 c 128,-1,71
 734 201 734 201 770 227 c 1,72,-1
 463 633 l 1,73,74
 398 582 398 582 362 520 c 128,-1,75
 326 458 326 458 326 381 c 0,62,63
535 1067 m 0,76,77
 535 1035 535 1035 542.5 1003.5 c 128,-1,78
 550 972 550 972 562.5 942 c 128,-1,79
 575 912 575 912 592 884 c 128,-1,80
 609 856 609 856 627 831 c 1,81,82
 674 853 674 853 712.5 880.5 c 128,-1,83
 751 908 751 908 778.5 941.5 c 128,-1,84
 806 975 806 975 821 1016 c 128,-1,85
 836 1057 836 1057 836 1108 c 0,86,87
 836 1141 836 1141 831.5 1172 c 128,-1,88
 827 1203 827 1203 814.5 1227 c 128,-1,89
 802 1251 802 1251 780 1265.5 c 128,-1,90
 758 1280 758 1280 723 1280 c 0,91,92
 705 1280 705 1280 673.5 1269 c 128,-1,93
 642 1258 642 1258 611.5 1233 c 128,-1,94
 581 1208 581 1208 558 1167 c 128,-1,95
 535 1126 535 1126 535 1067 c 0,76,77
EndSplineSet
EndChar

StartChar: quotesingle
Encoding: 39 39 10
Width: 358
GlyphClass: 2
Flags: W
LayerCount: 2
Fore
SplineSet
205 854 m 1,0,-1
 219 1333 l 2,1,2
 220 1361 220 1361 233 1384.5 c 128,-1,3
 246 1408 246 1408 266 1425 c 128,-1,4
 286 1442 286 1442 311 1452 c 128,-1,5
 336 1462 336 1462 362 1462 c 0,6,7
 407 1462 407 1462 434 1440 c 128,-1,8
 461 1418 461 1418 461 1370 c 0,9,10
 461 1354 461 1354 450 1315.5 c 128,-1,11
 439 1277 439 1277 421.5 1226.5 c 128,-1,12
 404 1176 404 1176 382.5 1119.5 c 128,-1,13
 361 1063 361 1063 341 1011.5 c 128,-1,14
 321 960 321 960 304.5 918 c 128,-1,15
 288 876 288 876 281 854 c 1,16,-1
 205 854 l 1,0,-1
EndSplineSet
EndChar

StartChar: parenleft
Encoding: 40 40 11
Width: 868
GlyphClass: 2
Flags: W
LayerCount: 2
Fore
SplineSet
145 279 m 0,0,1
 145 401 145 401 166 535 c 128,-1,2
 187 669 187 669 230 800 c 128,-1,3
 273 931 273 931 339.5 1050 c 128,-1,4
 406 1169 406 1169 497 1260.5 c 128,-1,5
 588 1352 588 1352 705.5 1408 c 128,-1,6
 823 1464 823 1464 967 1468 c 1,7,-1
 944 1358 l 1,8,9
 866 1348 866 1348 801.5 1307.5 c 128,-1,10
 737 1267 737 1267 683.5 1205 c 128,-1,11
 630 1143 630 1143 587.5 1063 c 128,-1,12
 545 983 545 983 513 893.5 c 128,-1,13
 481 804 481 804 458 710 c 128,-1,14
 435 616 435 616 420.5 524.5 c 128,-1,15
 406 433 406 433 399.5 349.5 c 128,-1,16
 393 266 393 266 393 199 c 256,17,18
 393 132 393 132 403 68 c 128,-1,19
 413 4 413 4 440.5 -48 c 128,-1,20
 468 -100 468 -100 516.5 -135 c 128,-1,21
 565 -170 565 -170 641 -180 c 1,22,-1
 618 -291 l 1,23,24
 489 -288 489 -288 399 -242.5 c 128,-1,25
 309 -197 309 -197 252.5 -120.5 c 128,-1,26
 196 -44 196 -44 170.5 58.5 c 128,-1,27
 145 161 145 161 145 279 c 0,0,1
EndSplineSet
EndChar

StartChar: parenright
Encoding: 41 41 12
Width: 868
GlyphClass: 2
Flags: W
LayerCount: 2
Fore
SplineSet
-98 -291 m 1,0,-1
 -78 -180 l 1,1,2
 0 -170 0 -170 65 -129.5 c 128,-1,3
 130 -89 130 -89 183 -26.5 c 128,-1,4
 236 36 236 36 278.5 116.5 c 128,-1,5
 321 197 321 197 353.5 286.5 c 128,-1,6
 386 376 386 376 409 470.5 c 128,-1,7
 432 565 432 565 446.5 656 c 128,-1,8
 461 747 461 747 468 830.5 c 128,-1,9
 475 914 475 914 475 981 c 256,10,11
 475 1048 475 1048 465 1111.5 c 128,-1,12
 455 1175 455 1175 427.5 1226.5 c 128,-1,13
 400 1278 400 1278 351.5 1313 c 128,-1,14
 303 1348 303 1348 227 1358 c 1,15,-1
 250 1468 l 1,16,17
 378 1464 378 1464 468 1419 c 128,-1,18
 558 1374 558 1374 614.5 1298 c 128,-1,19
 671 1222 671 1222 697 1119.5 c 128,-1,20
 723 1017 723 1017 723 899 c 0,21,22
 723 778 723 778 702.5 644 c 128,-1,23
 682 510 682 510 638.5 379 c 128,-1,24
 595 248 595 248 529 128.5 c 128,-1,25
 463 9 463 9 371.5 -83 c 128,-1,26
 280 -175 280 -175 163 -231 c 128,-1,27
 46 -287 46 -287 -98 -291 c 1,0,-1
EndSplineSet
EndChar

StartChar: asterisk
Encoding: 42 42 13
Width: 1024
GlyphClass: 2
Flags: W
LayerCount: 2
Fore
SplineSet
240 1169 m 1,0,-1
 385 1229 l 1,1,-1
 604 1067 l 1,2,-1
 594 1038 l 1,3,-1
 328 1036 l 1,4,-1
 240 1169 l 1,0,-1
385 852 m 1,5,-1
 604 1012 l 1,6,-1
 631 987 l 1,7,-1
 549 733 l 1,8,-1
 391 692 l 1,9,-1
 385 852 l 1,5,-1
541 1348 m 1,10,-1
 641 1470 l 1,11,-1
 743 1348 l 1,12,-1
 657 1092 l 1,13,-1
 625 1092 l 1,14,-1
 541 1348 l 1,10,-1
653 987 m 1,15,-1
 680 1012 l 1,16,-1
 897 852 l 1,17,-1
 893 692 l 1,18,-1
 735 733 l 1,19,-1
 653 987 l 1,15,-1
678 1069 m 1,20,-1
 895 1229 l 1,21,-1
 1044 1169 l 1,22,-1
 954 1036 l 1,23,-1
 690 1038 l 1,24,-1
 678 1069 l 1,20,-1
EndSplineSet
EndChar

StartChar: plus
Encoding: 43 43 14
Width: 2048
GlyphClass: 2
Flags: W
LayerCount: 2
Fore
SplineSet
410 551 m 1,0,-1
 410 678 l 1,1,-1
 961 678 l 1,2,-1
 961 1229 l 1,3,-1
 1087 1229 l 1,4,-1
 1087 678 l 1,5,-1
 1638 678 l 1,6,-1
 1638 551 l 1,7,-1
 1087 551 l 1,8,-1
 1087 0 l 1,9,-1
 961 0 l 1,10,-1
 961 551 l 1,11,-1
 410 551 l 1,0,-1
EndSplineSet
EndChar

StartChar: comma
Encoding: 44 44 15
Width: 657
GlyphClass: 2
Flags: W
LayerCount: 2
Fore
SplineSet
-113 -360 m 1,0,-1
 -94 -260 l 1,1,2
 -37 -252 -37 -252 13.5 -230 c 128,-1,3
 64 -208 64 -208 104 -173.5 c 128,-1,4
 144 -139 144 -139 171 -92 c 128,-1,5
 198 -45 198 -45 207 14 c 1,6,-1
 82 14 l 1,7,8
 62 33 62 33 51.5 58 c 128,-1,9
 41 83 41 83 41 111 c 0,10,11
 41 152 41 152 58.5 189.5 c 128,-1,12
 76 227 76 227 105 255.5 c 128,-1,13
 134 284 134 284 172 300.5 c 128,-1,14
 210 317 210 317 252 317 c 0,15,16
 321 317 321 317 365.5 281.5 c 128,-1,17
 410 246 410 246 410 172 c 0,18,19
 410 112 410 112 387.5 51 c 128,-1,20
 365 -10 365 -10 326 -68 c 128,-1,21
 287 -126 287 -126 235.5 -177.5 c 128,-1,22
 184 -229 184 -229 126 -268 c 128,-1,23
 68 -307 68 -307 6.5 -331.5 c 128,-1,24
 -55 -356 -55 -356 -113 -360 c 1,0,-1
EndSplineSet
EndChar

StartChar: hyphen
Encoding: 45 45 16
Width: 713
GlyphClass: 2
Flags: W
LayerCount: 2
Fore
SplineSet
61 385 m 1,0,-1
 104 602 l 1,1,-1
 641 602 l 1,2,-1
 598 385 l 1,3,-1
 61 385 l 1,0,-1
EndSplineSet
EndChar

StartChar: period
Encoding: 46 46 17
Width: 651
GlyphClass: 2
Flags: W
LayerCount: 2
Fore
SplineSet
49 145 m 0,0,1
 49 181 49 181 62.5 212 c 128,-1,2
 76 243 76 243 99.5 266.5 c 128,-1,3
 123 290 123 290 154.5 303.5 c 128,-1,4
 186 317 186 317 221 317 c 256,5,6
 256 317 256 317 287 303.5 c 128,-1,7
 318 290 318 290 341 266.5 c 128,-1,8
 364 243 364 243 377.5 212 c 128,-1,9
 391 181 391 181 391 145 c 0,10,11
 391 110 391 110 377.5 79 c 128,-1,12
 364 48 364 48 341 25 c 128,-1,13
 318 2 318 2 287 -11.5 c 128,-1,14
 256 -25 256 -25 221 -25 c 256,15,16
 186 -25 186 -25 154.5 -11.5 c 128,-1,17
 123 2 123 2 99.5 25 c 128,-1,18
 76 48 76 48 62.5 79 c 128,-1,19
 49 110 49 110 49 145 c 0,0,1
EndSplineSet
EndChar

StartChar: slash
Encoding: 47 47 18
Width: 1026
GlyphClass: 2
Flags: W
LayerCount: 2
Fore
SplineSet
0 -190 m 1,0,-1
 864 1374 l 1,1,-1
 1026 1374 l 1,2,-1
 160 -190 l 1,3,-1
 0 -190 l 1,0,-1
EndSplineSet
EndChar

StartChar: zero
Encoding: 48 48 19
Width: 1202
GlyphClass: 2
Flags: W
LayerCount: 2
Fore
SplineSet
183.159 561.575 m 256,0,1
 206.252 680.375 206.252 680.375 256.938 786.8 c 128,-1,2
 307.625 893.225 307.625 893.225 387.341 974.075 c 128,-1,3
 467.056 1054.92 467.056 1054.92 575.777 1102.36 c 128,-1,4
 684.498 1149.8 684.498 1149.8 823.498 1149.8 c 0,5,6
 963.498 1149.8 963.498 1149.8 1054.28 1102.36 c 128,-1,7
 1145.06 1054.92 1145.06 1054.92 1193.84 974.075 c 128,-1,8
 1242.62 893.225 1242.62 893.225 1252.44 786.8 c 128,-1,9
 1262.25 680.375 1262.25 680.375 1239.16 561.575 c 256,10,11
 1216.07 442.775 1216.07 442.775 1164.8 335.938 c 128,-1,12
 1113.53 229.1 1113.53 229.1 1033.48 149.075 c 128,-1,13
 953.422 69.0498 953.422 69.0498 844.281 22.0254 c 128,-1,14
 735.141 -25 735.141 -25 595.141 -25 c 0,15,16
 456.141 -25 456.141 -25 365.781 22.0254 c 128,-1,17
 275.422 69.0498 275.422 69.0498 226.978 149.075 c 128,-1,18
 178.532 229.1 178.532 229.1 169.3 335.938 c 128,-1,19
 160.066 442.775 160.066 442.775 183.159 561.575 c 256,0,1
482.261 562.1 m 260,20,21
 475.351 526.55 475.351 526.55 467.483 478.36 c 132,-1,22
 459.616 430.17 459.616 430.17 456.559 378.425 c 132,-1,23
 453.5 326.68 453.5 326.68 458.172 276.12 c 132,-1,24
 462.845 225.56 462.845 225.56 480.09 185.665 c 132,-1,25
 497.335 145.77 497.335 145.77 530.498 120.885 c 132,-1,26
 563.66 96 563.66 96 618.66 96 c 260,27,28
 673.66 96 673.66 96 716.998 120.885 c 132,-1,29
 760.335 145.77 760.335 145.77 794.09 185.665 c 132,-1,30
 827.845 225.56 827.845 225.56 852.172 276.12 c 132,-1,31
 876.5 326.68 876.5 326.68 893.559 378.425 c 132,-1,32
 910.616 430.17 910.616 430.17 922.061 478.755 c 132,-1,33
 933.505 527.34 933.505 527.34 940.261 562.1 c 260,34,35
 947.018 596.86 947.018 596.86 954.462 645.445 c 132,-1,36
 961.906 694.03 961.906 694.03 965.041 746.17 c 132,-1,37
 968.176 798.31 968.176 798.31 963.58 849.265 c 132,-1,38
 958.985 900.22 958.985 900.22 940.894 940.905 c 132,-1,39
 922.802 981.59 922.802 981.59 889.138 1006.47 c 132,-1,40
 855.477 1031.36 855.477 1031.36 800.477 1031.36 c 260,41,42
 745.477 1031.36 745.477 1031.36 702.638 1006.47 c 132,-1,43
 659.802 981.59 659.802 981.59 626.894 940.905 c 132,-1,44
 593.985 900.22 593.985 900.22 569.58 849.265 c 132,-1,45
 545.176 798.31 545.176 798.31 528.041 746.17 c 132,-1,46
 510.906 694.03 510.906 694.03 500.039 645.84 c 132,-1,47
 489.172 597.65 489.172 597.65 482.261 562.1 c 260,20,21
EndSplineSet
EndChar

StartChar: one
Encoding: 49 49 20
Width: 1202
GlyphClass: 2
Flags: W
LayerCount: 2
Fore
SplineSet
317.612 852 m 5,0,-1
 338.605 960 l 5,1,-1
 811.706 1120 l 5,2,-1
 962.706 1120 l 5,3,-1
 775.712 158 l 2,4,5
 772.019 139 772.019 139 783.187 127 c 128,-1,6
 794.354 115 794.354 115 812.965 113 c 1,7,-1
 972.604 106 l 1,8,-1
 952 0 l 1,9,-1
 236 0 l 1,10,-1
 256.604 106 l 1,11,-1
 433.965 113 l 1,12,13
 452.354 115 452.354 115 468.187 127 c 128,-1,14
 484.019 139 484.019 139 487.712 158 c 2,15,-1
 630.971 895 l 5,16,-1
 317.612 852 l 5,0,-1
EndSplineSet
EndChar

StartChar: two
Encoding: 50 50 21
Width: 1202
GlyphClass: 2
Flags: W
LayerCount: 2
Fore
SplineSet
88 0 m 1,0,-1
 121.045 170 l 1,1,2
 168.653 204 168.653 204 244.581 252.5 c 128,-1,3
 320.509 301 320.509 301 405.63 350.5 c 128,-1,4
 490.752 400 490.752 400 577.457 452.5 c 128,-1,5
 664.162 505 664.162 505 742.172 565.5 c 128,-1,6
 820.182 626 820.182 626 860.54 669 c 0,7,8
 915.709 727.779 915.709 727.779 921.949 792 c 0,9,10
 925.447 828 925.447 828 918.042 864.5 c 0,11,12
 903.738 926.82 903.738 926.82 884.73 955.5 c 0,13,14
 859.214 994 859.214 994 816.49 1016 c 128,-1,15
 773.767 1038 773.767 1038 715.767 1038 c 0,16,17
 694.767 1038 694.767 1038 679.781 1035.5 c 128,-1,18
 664.795 1033 664.795 1033 651.614 1029.5 c 128,-1,19
 638.435 1026 638.435 1026 624.962 1021 c 128,-1,20
 611.49 1016 611.49 1016 593.519 1011 c 1,21,-1
 539.869 735 l 1,22,23
 515.731 724 515.731 724 490.982 715 c 0,24,25
 469.427 707 469.427 707 443.857 701.5 c 128,-1,26
 418.289 696 418.289 696 393.289 696 c 0,27,28
 318.289 696 318.289 696 286.855 737.5 c 128,-1,29
 255.422 779 255.422 779 268.641 847 c 0,30,31
 281.08 911 281.08 911 315.202 960.5 c 128,-1,32
 349.324 1010 349.324 1010 397.419 1046.5 c 128,-1,33
 445.514 1083 445.514 1083 502.776 1107.5 c 128,-1,34
 560.038 1132 560.038 1132 618.454 1147 c 128,-1,35
 676.87 1162 676.87 1162 732.634 1168.5 c 128,-1,36
 788.396 1175 788.396 1175 832.396 1175 c 0,37,38
 929.396 1175 929.396 1175 1008.76 1146 c 128,-1,39
 1088.12 1117 1088.12 1117 1140.82 1064 c 0,40,41
 1189.79 1014.74 1189.79 1014.74 1214.94 936 c 0,42,43
 1238.25 863 1238.25 863 1226.45 810 c 0,44,45
 1208.45 721.451 1208.45 721.451 1141.56 648.5 c 0,46,47
 1115.91 620.618 1115.91 620.618 968.563 522.5 c 0,48,49
 837.613 435.3 837.613 435.3 714.602 373.5 c 0,50,51
 437.253 239.954 437.253 239.954 402.958 221 c 1,52,-1
 984.958 221 l 1,53,-1
 1058.95 401 l 1,54,-1
 1189.95 401 l 1,55,-1
 1112 0 l 1,56,-1
 88 0 l 1,0,-1
EndSplineSet
EndChar

StartChar: three
Encoding: 51 51 22
Width: 1202
GlyphClass: 2
Flags: W
LayerCount: 2
Fore
SplineSet
86.4453 -8 m 4,0,1
 94.8037 35 94.8037 35 114.552 62 c 132,-1,2
 134.3 89 134.3 89 159.91 105 c 132,-1,3
 185.52 121 185.52 121 213.687 127 c 132,-1,4
 241.853 133 241.853 133 265.853 133 c 4,5,6
 292.853 133 292.853 133 313.783 127.5 c 132,-1,7
 334.715 122 334.715 122 350.159 114 c 5,8,-1
 370.258 -117 l 5,9,10
 402.508 -126 402.508 -126 436.981 -139 c 132,-1,11
 471.454 -152 471.454 -152 513.454 -152 c 4,12,13
 566.454 -152 566.454 -152 619.328 -129.5 c 132,-1,14
 672.201 -107 672.201 -107 716.685 -68.5 c 132,-1,15
 761.169 -30 761.169 -30 793.373 22.5 c 132,-1,16
 825.578 75 825.578 75 837.241 135 c 4,17,18
 846.571 183 846.571 183 837.416 228.5 c 132,-1,19
 828.26 274 828.26 274 798.967 308.5 c 132,-1,20
 769.673 343 769.673 343 720.255 364 c 132,-1,21
 670.836 385 670.836 385 598.836 385 c 4,22,23
 575.836 385 575.836 385 550.545 383.5 c 132,-1,24
 525.253 382 525.253 382 503.864 380 c 4,25,26
 478.281 377 478.281 377 453.893 375 c 5,27,-1
 483.633 528 l 5,28,29
 500.244 526 500.244 526 513.244 526 c 6,30,-1
 540.244 526 l 6,31,32
 598.244 526 598.244 526 658.479 537.5 c 132,-1,33
 718.715 549 718.715 549 770.852 578 c 132,-1,34
 822.989 607 822.989 607 861.916 655.5 c 132,-1,35
 900.844 704 900.844 704 915.228 778 c 4,36,37
 924.753 827 924.753 827 913.402 871.5 c 132,-1,38
 902.053 916 902.053 916 873.661 950 c 132,-1,39
 845.271 984 845.271 984 801.158 1004 c 132,-1,40
 757.045 1024 757.045 1024 701.045 1024 c 4,41,42
 686.045 1024 686.045 1024 666.768 1020 c 132,-1,43
 647.49 1016 647.49 1016 629.519 1011 c 4,44,45
 609.547 1006 609.547 1006 587.186 999 c 5,46,-1
 538.202 747 l 5,47,48
 506.703 729 506.703 729 476.731 724 c 132,-1,49
 446.76 719 446.76 719 422.76 719 c 4,50,51
 390.76 719 390.76 719 363.509 728 c 132,-1,52
 336.258 737 336.258 737 317.757 755 c 132,-1,53
 299.256 773 299.256 773 291.602 800.5 c 132,-1,54
 283.947 828 283.947 828 291.333 866 c 4,55,56
 303.773 930 303.773 930 352.271 984 c 132,-1,57
 400.767 1038 400.767 1038 473.444 1077.5 c 132,-1,58
 546.123 1117 546.123 1117 636.399 1139 c 132,-1,59
 726.676 1161 726.676 1161 823.676 1161 c 4,60,61
 907.676 1161 907.676 1161 986.399 1139 c 132,-1,62
 1065.12 1117 1065.12 1117 1122.47 1072.5 c 132,-1,63
 1179.82 1028 1179.82 1028 1208.2 960.5 c 132,-1,64
 1236.58 893 1236.58 893 1218.7 801 c 4,65,66
 1206.06 736 1206.06 736 1174.54 687 c 132,-1,67
 1143.01 638 1143.01 638 1102.11 602.5 c 132,-1,68
 1061.21 567 1061.21 567 1015.15 543.5 c 132,-1,69
 969.078 520 969.078 520 927.76 505.5 c 132,-1,70
 886.44 491 886.44 491 854.08 484 c 4,71,72
 824.914 478 824.914 478 810.72 477 c 5,73,74
 823.525 476 823.525 476 854.137 474 c 4,75,76
 888.553 471 888.553 471 930.817 459.5 c 132,-1,77
 973.082 448 973.082 448 1016.31 426 c 132,-1,78
 1059.53 404 1059.53 404 1092.34 367 c 132,-1,79
 1125.15 330 1125.15 330 1140.15 276 c 132,-1,80
 1155.15 222 1155.15 222 1140.57 147 c 4,81,82
 1127.55 80 1127.55 80 1093.97 23 c 132,-1,83
 1060.39 -34 1060.39 -34 1011.16 -81.5 c 132,-1,84
 961.925 -129 961.925 -129 899.232 -166 c 132,-1,85
 836.541 -203 836.541 -203 766.182 -228 c 132,-1,86
 695.822 -253 695.822 -253 619.795 -266 c 132,-1,87
 543.768 -279 543.768 -279 467.768 -279 c 4,88,89
 367.768 -279 367.768 -279 292.238 -256 c 132,-1,90
 216.709 -233 216.709 -233 167.693 -194.5 c 132,-1,91
 118.677 -156 118.677 -156 97.6045 -107.5 c 132,-1,92
 76.5312 -59 76.5312 -59 86.4453 -8 c 4,0,1
EndSplineSet
EndChar

StartChar: four
Encoding: 52 52 23
Width: 1202
GlyphClass: 2
Flags: W
LayerCount: 2
Fore
SplineSet
92.6602 96 m 5,0,-1
 126.871 272 l 5,1,-1
 958.706 1120 l 5,2,-1
 1180.71 1120 l 5,3,-1
 1014.32 264 l 5,4,-1
 1181.32 264 l 5,5,-1
 1149.05 98 l 5,6,-1
 982.049 98 l 5,7,-1
 900.798 -320 l 5,8,-1
 639.798 -320 l 5,9,-1
 720.66 96 l 5,10,-1
 92.6602 96 l 5,0,-1
323.316 264 m 5,11,-1
 753.316 264 l 5,12,-1
 858.088 803 l 5,13,-1
 323.316 264 l 5,11,-1
EndSplineSet
EndChar

StartChar: five
Encoding: 53 53 24
Width: 1202
GlyphClass: 2
Flags: W
LayerCount: 2
Fore
SplineSet
80.501 -18 m 4,0,1
 84.9717 5 84.9717 5 99.04 28.5 c 132,-1,2
 113.107 52 113.107 52 135.398 71.5 c 132,-1,3
 157.688 91 157.688 91 188.021 103 c 132,-1,4
 218.354 115 218.354 115 255.354 115 c 4,5,6
 275.354 115 275.354 115 296.882 110 c 132,-1,7
 318.41 105 318.41 105 344.66 96 c 5,8,-1
 362.231 -148 l 5,9,10
 386.454 -152 386.454 -152 406.677 -156 c 4,11,12
 424.094 -159 424.094 -159 441.107 -161.5 c 132,-1,13
 458.122 -164 458.122 -164 466.122 -164 c 4,14,15
 555.122 -164 555.122 -164 624.23 -130 c 132,-1,16
 693.34 -96 693.34 -96 742.267 -47.5 c 132,-1,17
 791.194 1 791.194 1 819.302 53 c 132,-1,18
 847.41 105 847.41 105 854.407 141 c 4,19,20
 867.82 210 867.82 210 849.914 264.5 c 132,-1,21
 832.008 319 832.008 319 789.894 357 c 132,-1,22
 747.78 395 747.78 395 685.265 415.5 c 132,-1,23
 622.75 436 622.75 436 547.75 436 c 4,24,25
 494.75 436 494.75 436 440.681 430.5 c 132,-1,26
 386.611 425 386.611 425 341.445 419 c 4,27,28
 289.085 412 289.085 412 240.335 403 c 5,29,-1
 379.706 1120 l 5,30,-1
 1259.71 1120 l 5,31,-1
 1215.58 893 l 5,32,-1
 509.582 893 l 5,33,-1
 445.437 563 l 5,34,35
 490.963 576 490.963 576 540.102 587 c 4,36,37
 581.851 596 581.851 596 633.405 604 c 132,-1,38
 684.961 612 684.961 612 736.961 612 c 4,39,40
 846.961 612 846.961 612 933.227 582.5 c 132,-1,41
 1019.49 553 1019.49 553 1076.19 500 c 132,-1,42
 1132.89 447 1132.89 447 1155.6 373.5 c 132,-1,43
 1178.31 300 1178.31 300 1161.01 211 c 4,44,45
 1138.47 95 1138.47 95 1069.08 3 c 132,-1,46
 999.7 -89 999.7 -89 901.662 -153.5 c 132,-1,47
 803.625 -218 803.625 -218 686.419 -252.5 c 132,-1,48
 569.213 -287 569.213 -287 452.213 -287 c 4,49,50
 374.213 -287 374.213 -287 301.518 -270 c 132,-1,51
 228.822 -253 228.822 -253 175.431 -219 c 132,-1,52
 122.04 -185 122.04 -185 94.8555 -134.5 c 132,-1,53
 67.6719 -84 67.6719 -84 80.501 -18 c 4,0,1
EndSplineSet
EndChar

StartChar: six
Encoding: 54 54 25
Width: 1202
GlyphClass: 2
Flags: W
LayerCount: 2
Fore
SplineSet
189.851 596 m 0,0,1
 228.921 797 228.921 797 322.161 950 c 128,-1,2
 415.401 1103 415.401 1103 551.229 1205 c 128,-1,3
 687.055 1307 687.055 1307 859.469 1358 c 128,-1,4
 1031.88 1409 1031.88 1409 1229.49 1407 c 1,5,-1
 1198.39 1247 l 1,6,-1
 1110.34 1257 l 1,7,8
 997.781 1249 997.781 1249 907.27 1215.5 c 128,-1,9
 816.758 1182 816.758 1182 747.081 1124.5 c 128,-1,10
 677.404 1067 677.404 1067 625.854 987 c 128,-1,11
 574.303 907 574.303 907 539.865 807 c 1,12,13
 587.308 835 587.308 835 642.778 858 c 0,14,15
 689.472 877 689.472 877 750.082 893 c 128,-1,16
 810.691 909 810.691 909 876.691 909 c 0,17,18
 984.691 909 984.691 909 1057.9 871.5 c 128,-1,19
 1131.11 834 1131.11 834 1173.05 774.5 c 128,-1,20
 1214.98 715 1214.98 715 1227.6 641 c 128,-1,21
 1240.21 567 1240.21 567 1226.02 494 c 0,22,23
 1202.89 375 1202.89 375 1143.44 277.5 c 128,-1,24
 1083.99 180 1083.99 180 1000.58 111 c 128,-1,25
 917.164 42 917.164 42 817.375 4.5 c 128,-1,26
 717.586 -33 717.586 -33 614.586 -33 c 0,27,28
 485.586 -33 485.586 -33 391.555 8 c 128,-1,29
 297.524 49 297.524 49 243.075 129 c 128,-1,30
 188.625 209 188.625 209 174.465 326.5 c 128,-1,31
 160.305 444 160.305 444 189.851 596 c 0,0,1
488.085 625.5 m 128,-1,33
 481.462 594 481.462 594 477.991 571 c 0,34,35
 473.549 543 473.549 543 470.078 520 c 1,36,37
 456.276 449 456.276 449 455.795 374.5 c 128,-1,38
 455.314 300 455.314 300 474.457 239 c 128,-1,39
 493.6 178 493.6 178 534.019 139 c 128,-1,40
 574.438 100 574.438 100 642.438 100 c 0,41,42
 696.438 100 696.438 100 741.783 127.5 c 128,-1,43
 787.129 155 787.129 155 823.07 201 c 128,-1,44
 859.012 247 859.012 247 884.175 307 c 128,-1,45
 909.338 367 909.338 367 921.973 432 c 0,46,47
 934.996 499 934.996 499 929.881 555 c 128,-1,48
 924.767 611 924.767 611 899.542 651 c 128,-1,49
 874.316 691 874.316 691 827.593 713 c 128,-1,50
 780.869 735 780.869 735 711.869 735 c 0,51,52
 667.869 735 667.869 735 630.009 728 c 128,-1,53
 592.148 721 592.148 721 564.593 713 c 0,54,55
 531.649 703 531.649 703 505.511 692 c 1,56,32
 494.708 657 494.708 657 488.085 625.5 c 128,-1,33
EndSplineSet
EndChar

StartChar: seven
Encoding: 55 55 26
Width: 1202
GlyphClass: 2
Flags: W
LayerCount: 2
Fore
SplineSet
208.956 684 m 5,0,-1
 293.706 1120 l 5,1,-1
 1343.71 1120 l 5,2,-1
 1315.52 975 l 5,3,-1
 392.265 -225 l 5,4,-1
 380.213 -287 l 5,5,-1
 118.213 -287 l 5,6,-1
 1011.89 874 l 5,7,-1
 419.889 874 l 5,8,-1
 351.956 684 l 5,9,-1
 208.956 684 l 5,0,-1
EndSplineSet
EndChar

StartChar: eight
Encoding: 56 56 27
Width: 1202
GlyphClass: 2
Flags: W
LayerCount: 2
Fore
SplineSet
146.115 371 m 0,0,1
 162.249 454 162.249 454 202.939 509 c 128,-1,2
 243.631 564 243.631 564 294.031 599.5 c 128,-1,3
 344.432 635 344.432 635 397.722 654.5 c 128,-1,4
 451.013 674 451.013 674 491.345 686 c 1,5,6
 462.678 698 462.678 698 428.134 723.5 c 128,-1,7
 393.591 749 393.591 749 365.574 787.5 c 128,-1,8
 337.559 826 337.559 826 323.568 877.5 c 128,-1,9
 309.579 929 309.579 929 322.02 993 c 0,10,11
 344.567 1109 344.567 1109 404.521 1188.5 c 128,-1,12
 464.475 1268 464.475 1268 545.901 1316.5 c 128,-1,13
 627.329 1365 627.329 1365 720.911 1386 c 128,-1,14
 814.493 1407 814.493 1407 904.493 1407 c 0,15,16
 985.493 1407 985.493 1407 1060.72 1385 c 128,-1,17
 1135.94 1363 1135.94 1363 1190.19 1318 c 128,-1,18
 1244.45 1273 1244.45 1273 1270.33 1205.5 c 128,-1,19
 1296.21 1138 1296.21 1138 1278.52 1047 c 0,20,21
 1264.33 974 1264.33 974 1229.32 922.5 c 128,-1,22
 1194.31 871 1194.31 871 1149.21 834.5 c 128,-1,23
 1104.12 798 1104.12 798 1054.85 773.5 c 128,-1,24
 1005.59 749 1005.59 749 963.092 731 c 1,25,26
 976.12 726 976.12 726 1002.27 716.5 c 128,-1,27
 1028.43 707 1028.43 707 1059.53 689.5 c 128,-1,28
 1090.62 672 1090.62 672 1121.07 646 c 128,-1,29
 1151.52 620 1151.52 620 1173.73 582.5 c 128,-1,30
 1195.94 545 1195.94 545 1205.02 494 c 128,-1,31
 1214.11 443 1214.11 443 1201.28 377 c 0,32,33
 1180.87 272 1180.87 272 1120.4 195 c 128,-1,34
 1059.94 118 1059.94 118 974.621 67.5 c 128,-1,35
 889.305 17 889.305 17 786.945 -8 c 128,-1,36
 684.586 -33 684.586 -33 581.586 -33 c 0,37,38
 470.586 -33 470.586 -33 382.014 -2.5 c 128,-1,39
 293.442 28 293.442 28 235.439 82 c 128,-1,40
 177.436 136 177.436 136 153.32 210 c 128,-1,41
 129.204 284 129.204 284 146.115 371 c 0,0,1
412.003 391 m 0,42,43
 400.34 331 400.34 331 410.94 277.5 c 128,-1,44
 421.541 224 421.541 224 450.363 184.5 c 128,-1,45
 479.186 145 479.186 145 523.617 121.5 c 128,-1,46
 568.049 98 568.049 98 623.049 98 c 0,47,48
 671.049 98 671.049 98 717.674 111.5 c 128,-1,49
 764.298 125 764.298 125 803.948 151.5 c 128,-1,50
 843.6 178 843.6 178 871.583 216.5 c 128,-1,51
 899.567 255 899.567 255 909.286 305 c 256,52,53
 919.005 355 919.005 355 906.28 395 c 128,-1,54
 893.556 435 893.556 435 866.679 466.5 c 128,-1,55
 839.802 498 839.802 498 802.161 523 c 128,-1,56
 764.521 548 764.521 548 724.311 567.5 c 128,-1,57
 684.102 587 684.102 587 645.809 603.5 c 128,-1,58
 607.516 620 607.516 620 578.432 635 c 1,59,60
 567.099 623 567.099 623 543.114 602.5 c 128,-1,61
 519.129 582 519.129 582 493.298 552 c 128,-1,62
 467.467 522 467.467 522 444.691 482 c 128,-1,63
 421.916 442 421.916 442 412.003 391 c 0,42,43
620.125 1081 m 0,64,65
 608.268 1020 608.268 1020 626.521 975 c 128,-1,66
 644.773 930 644.773 930 682.471 895 c 128,-1,67
 720.167 860 720.167 860 770.821 832.5 c 128,-1,68
 821.477 805 821.477 805 874.616 780 c 1,69,70
 892.727 796 892.727 796 914.892 820 c 128,-1,71
 937.057 844 937.057 844 958.18 875.5 c 128,-1,72
 979.303 907 979.303 907 996.884 946 c 128,-1,73
 1014.46 985 1014.46 985 1023.21 1030 c 0,74,75
 1032.54 1078 1032.54 1078 1025.69 1122.5 c 128,-1,76
 1018.84 1167 1018.84 1167 997.048 1201.5 c 128,-1,77
 975.254 1236 975.254 1236 939.336 1257 c 128,-1,78
 903.418 1278 903.418 1278 854.418 1278 c 0,79,80
 813.418 1278 813.418 1278 774.905 1262.5 c 128,-1,81
 736.393 1247 736.393 1247 704.741 1220.5 c 128,-1,82
 673.09 1194 673.09 1194 650.593 1158 c 128,-1,83
 628.095 1122 628.095 1122 620.125 1081 c 0,64,65
EndSplineSet
EndChar

StartChar: nine
Encoding: 57 57 28
Width: 1202
GlyphClass: 2
Flags: W
LayerCount: 2
Fore
SplineSet
199.942 647.916 m 4,0,1
 223.073 766.916 223.073 766.916 282.525 864.416 c 132,-1,2
 341.978 961.916 341.978 961.916 425.391 1030.92 c 132,-1,3
 508.803 1099.92 508.803 1099.92 608.689 1137.92 c 132,-1,4
 708.576 1175.92 708.576 1175.92 812.576 1175.92 c 4,5,6
 940.576 1175.92 940.576 1175.92 1034.01 1134.42 c 132,-1,7
 1127.44 1092.92 1127.44 1092.92 1182.29 1012.42 c 132,-1,8
 1237.15 931.916 1237.15 931.916 1251.31 814.416 c 132,-1,9
 1265.47 696.916 1265.47 696.916 1235.92 544.916 c 4,10,11
 1196.85 343.916 1196.85 343.916 1103.71 191.416 c 132,-1,12
 1010.56 38.916 1010.56 38.916 874.737 -63.084 c 132,-1,13
 738.911 -165.084 738.911 -165.084 566.595 -215.584 c 132,-1,14
 394.278 -266.084 394.278 -266.084 196.667 -264.084 c 5,15,-1
 227.769 -104.084 l 5,16,-1
 315.824 -114.084 l 5,17,18
 428.185 -107.084 428.185 -107.084 518.294 -73.084 c 132,-1,19
 608.402 -39.084 608.402 -39.084 677.982 17.916 c 132,-1,20
 747.562 74.916 747.562 74.916 798.516 154.416 c 132,-1,21
 849.469 233.916 849.469 233.916 883.906 333.916 c 5,22,23
 836.27 304.916 836.27 304.916 781.993 282.916 c 4,24,25
 735.105 262.916 735.105 262.916 675.093 247.416 c 132,-1,26
 615.08 231.916 615.08 231.916 549.08 231.916 c 4,27,28
 441.08 231.916 441.08 231.916 367.369 269.416 c 132,-1,29
 293.658 306.916 293.658 306.916 251.821 366.916 c 132,-1,30
 209.984 426.916 209.984 426.916 197.868 500.916 c 132,-1,31
 185.752 574.916 185.752 574.916 199.942 647.916 c 4,0,1
504.799 708.916 m 4,32,33
 491.581 640.916 491.581 640.916 496.793 585.416 c 132,-1,34
 502.005 529.916 502.005 529.916 527.23 489.916 c 132,-1,35
 552.455 449.916 552.455 449.916 598.679 427.916 c 132,-1,36
 644.902 405.916 644.902 405.916 713.902 405.916 c 4,37,38
 756.902 405.916 756.902 405.916 795.166 412.416 c 132,-1,39
 833.429 418.916 833.429 418.916 860.984 426.916 c 4,40,41
 893.928 436.916 893.928 436.916 921.261 448.916 c 5,42,43
 929.869 482.916 929.869 482.916 936.396 513.916 c 132,-1,44
 942.921 544.916 942.921 544.916 947.586 568.916 c 4,45,46
 953.028 596.916 953.028 596.916 956.693 620.916 c 5,47,48
 970.884 693.916 970.884 693.916 970.962 768.916 c 132,-1,49
 971.041 843.916 971.041 843.916 951.897 904.916 c 132,-1,50
 932.755 965.916 932.755 965.916 892.239 1004.42 c 132,-1,51
 851.723 1042.92 851.723 1042.92 784.723 1042.92 c 4,52,53
 730.723 1042.92 730.723 1042.92 684.878 1015.42 c 132,-1,54
 639.031 987.916 639.031 987.916 603.493 941.416 c 132,-1,55
 567.954 894.916 567.954 894.916 542.694 834.416 c 132,-1,56
 517.434 773.916 517.434 773.916 504.799 708.916 c 4,32,33
EndSplineSet
EndChar

StartChar: colon
Encoding: 58 58 29
Width: 651
GlyphClass: 2
Flags: W
LayerCount: 2
Fore
SplineSet
49 145 m 0,0,1
 49 181 49 181 62.5 212 c 128,-1,2
 76 243 76 243 99.5 266.5 c 128,-1,3
 123 290 123 290 154.5 303.5 c 128,-1,4
 186 317 186 317 221 317 c 256,5,6
 256 317 256 317 287 303.5 c 128,-1,7
 318 290 318 290 341 266.5 c 128,-1,8
 364 243 364 243 377.5 212 c 128,-1,9
 391 181 391 181 391 145 c 0,10,11
 391 110 391 110 377.5 79 c 128,-1,12
 364 48 364 48 341 25 c 128,-1,13
 318 2 318 2 287 -11.5 c 128,-1,14
 256 -25 256 -25 221 -25 c 256,15,16
 186 -25 186 -25 154.5 -11.5 c 128,-1,17
 123 2 123 2 99.5 25 c 128,-1,18
 76 48 76 48 62.5 79 c 128,-1,19
 49 110 49 110 49 145 c 0,0,1
188 848 m 256,20,21
 188 883 188 883 201.5 914.5 c 128,-1,22
 215 946 215 946 238.5 969.5 c 128,-1,23
 262 993 262 993 293.5 1006.5 c 128,-1,24
 325 1020 325 1020 360 1020 c 0,25,26
 396 1020 396 1020 427 1006.5 c 128,-1,27
 458 993 458 993 481 969.5 c 128,-1,28
 504 946 504 946 517 914.5 c 128,-1,29
 530 883 530 883 530 848 c 256,30,31
 530 813 530 813 517 782 c 128,-1,32
 504 751 504 751 481 728 c 128,-1,33
 458 705 458 705 427 691.5 c 128,-1,34
 396 678 396 678 360 678 c 0,35,36
 325 678 325 678 293.5 691.5 c 128,-1,37
 262 705 262 705 238.5 728 c 128,-1,38
 215 751 215 751 201.5 782 c 128,-1,39
 188 813 188 813 188 848 c 256,20,21
EndSplineSet
EndChar

StartChar: semicolon
Encoding: 59 59 30
Width: 651
GlyphClass: 2
Flags: W
LayerCount: 2
Fore
SplineSet
-113 -360 m 1,0,-1
 -94 -260 l 1,1,2
 -37 -252 -37 -252 13.5 -230 c 128,-1,3
 64 -208 64 -208 104 -173.5 c 128,-1,4
 144 -139 144 -139 171 -92 c 128,-1,5
 198 -45 198 -45 207 14 c 1,6,-1
 82 14 l 1,7,8
 62 33 62 33 51.5 58 c 128,-1,9
 41 83 41 83 41 111 c 0,10,11
 41 152 41 152 58.5 189.5 c 128,-1,12
 76 227 76 227 105 255.5 c 128,-1,13
 134 284 134 284 172 300.5 c 128,-1,14
 210 317 210 317 252 317 c 0,15,16
 321 317 321 317 365.5 281.5 c 128,-1,17
 410 246 410 246 410 172 c 0,18,19
 410 112 410 112 387.5 51 c 128,-1,20
 365 -10 365 -10 326 -68 c 128,-1,21
 287 -126 287 -126 235.5 -177.5 c 128,-1,22
 184 -229 184 -229 126 -268 c 128,-1,23
 68 -307 68 -307 6.5 -331.5 c 128,-1,24
 -55 -356 -55 -356 -113 -360 c 1,0,-1
188 848 m 256,25,26
 188 883 188 883 201.5 914.5 c 128,-1,27
 215 946 215 946 238.5 969.5 c 128,-1,28
 262 993 262 993 293.5 1006.5 c 128,-1,29
 325 1020 325 1020 360 1020 c 0,30,31
 396 1020 396 1020 427 1006.5 c 128,-1,32
 458 993 458 993 481 969.5 c 128,-1,33
 504 946 504 946 517 914.5 c 128,-1,34
 530 883 530 883 530 848 c 256,35,36
 530 813 530 813 517 782 c 128,-1,37
 504 751 504 751 481 728 c 128,-1,38
 458 705 458 705 427 691.5 c 128,-1,39
 396 678 396 678 360 678 c 0,40,41
 325 678 325 678 293.5 691.5 c 128,-1,42
 262 705 262 705 238.5 728 c 128,-1,43
 215 751 215 751 201.5 782 c 128,-1,44
 188 813 188 813 188 848 c 256,25,26
EndSplineSet
EndChar

StartChar: less
Encoding: 60 60 31
Width: 2048
GlyphClass: 2
Flags: W
LayerCount: 2
Fore
SplineSet
410 551 m 1,0,-1
 410 678 l 1,1,-1
 1638 1149 l 1,2,-1
 1638 1022 l 1,3,-1
 541 614 l 1,4,-1
 1638 207 l 1,5,-1
 1638 80 l 1,6,-1
 410 551 l 1,0,-1
EndSplineSet
EndChar

StartChar: equal
Encoding: 61 61 32
Width: 2048
GlyphClass: 2
Flags: W
LayerCount: 2
Fore
SplineSet
410 365 m 1,0,-1
 410 492 l 1,1,-1
 1638 492 l 1,2,-1
 1638 365 l 1,3,-1
 410 365 l 1,0,-1
410 737 m 1,4,-1
 410 864 l 1,5,-1
 1638 864 l 1,6,-1
 1638 737 l 1,7,-1
 410 737 l 1,4,-1
EndSplineSet
EndChar

StartChar: greater
Encoding: 62 62 33
Width: 2048
GlyphClass: 2
Flags: W
LayerCount: 2
Fore
SplineSet
410 80 m 1,0,-1
 410 207 l 1,1,-1
 1507 614 l 1,2,-1
 410 1022 l 1,3,-1
 410 1149 l 1,4,-1
 1638 678 l 1,5,-1
 1638 551 l 1,6,-1
 410 80 l 1,0,-1
EndSplineSet
EndChar

StartChar: question
Encoding: 63 63 34
Width: 1096
GlyphClass: 2
Flags: W
LayerCount: 2
Fore
SplineSet
209 141 m 0,0,1
 209 175 209 175 221 204.5 c 128,-1,2
 233 234 233 234 254 256.5 c 128,-1,3
 275 279 275 279 304 292 c 128,-1,4
 333 305 333 305 367 305 c 0,5,6
 403 305 403 305 433.5 291 c 128,-1,7
 464 277 464 277 485.5 253.5 c 128,-1,8
 507 230 507 230 519.5 198.5 c 128,-1,9
 532 167 532 167 532 133 c 256,10,11
 532 99 532 99 518.5 70 c 128,-1,12
 505 41 505 41 482 20 c 128,-1,13
 459 -1 459 -1 429 -13 c 128,-1,14
 399 -25 399 -25 365 -25 c 256,15,16
 331 -25 331 -25 302.5 -11.5 c 128,-1,17
 274 2 274 2 253 25 c 128,-1,18
 232 48 232 48 220.5 78 c 128,-1,19
 209 108 209 108 209 141 c 0,0,1
219 1133 m 0,20,21
 219 1183 219 1183 240 1222.5 c 128,-1,22
 261 1262 261 1262 296 1292.5 c 128,-1,23
 331 1323 331 1323 376.5 1345 c 128,-1,24
 422 1367 422 1367 470 1380.5 c 128,-1,25
 518 1394 518 1394 565.5 1400.5 c 128,-1,26
 613 1407 613 1407 653 1407 c 0,27,28
 727 1407 727 1407 798.5 1389.5 c 128,-1,29
 870 1372 870 1372 926 1334 c 128,-1,30
 982 1296 982 1296 1016.5 1237 c 128,-1,31
 1051 1178 1051 1178 1051 1094 c 0,32,33
 1051 1024 1051 1024 1028.5 962.5 c 128,-1,34
 1006 901 1006 901 966.5 848 c 128,-1,35
 927 795 927 795 874.5 751 c 128,-1,36
 822 707 822 707 762 673 c 128,-1,37
 702 639 702 639 638 615.5 c 128,-1,38
 574 592 574 592 512 580 c 1,39,-1
 477 406 l 1,40,-1
 338 406 l 1,41,-1
 391 678 l 1,42,43
 463 693 463 693 530.5 730 c 128,-1,44
 598 767 598 767 650 821 c 128,-1,45
 702 875 702 875 733 942.5 c 128,-1,46
 764 1010 764 1010 764 1087 c 0,47,48
 764 1139 764 1139 746.5 1176 c 128,-1,49
 729 1213 729 1213 699 1236.5 c 128,-1,50
 669 1260 669 1260 628.5 1271 c 128,-1,51
 588 1282 588 1282 541 1282 c 1,52,-1
 420 1047 l 2,53,54
 418 1045 418 1045 411 1042.5 c 128,-1,55
 404 1040 404 1040 396.5 1037.5 c 128,-1,56
 389 1035 389 1035 382.5 1033.5 c 128,-1,57
 376 1032 376 1032 375 1032 c 0,58,59
 349 1032 349 1032 321.5 1035.5 c 128,-1,60
 294 1039 294 1039 271.5 1050 c 128,-1,61
 249 1061 249 1061 234 1081 c 128,-1,62
 219 1101 219 1101 219 1133 c 0,20,21
EndSplineSet
EndChar

StartChar: at
Encoding: 64 64 35
Width: 1917
GlyphClass: 2
Flags: W
LayerCount: 2
Fore
SplineSet
119 481 m 0,0,1
 119 630 119 630 155 757 c 128,-1,2
 191 884 191 884 255.5 987 c 128,-1,3
 320 1090 320 1090 409 1168.5 c 128,-1,4
 498 1247 498 1247 603.5 1300 c 128,-1,5
 709 1353 709 1353 827.5 1380 c 128,-1,6
 946 1407 946 1407 1069 1407 c 0,7,8
 1235 1407 1235 1407 1370 1363 c 128,-1,9
 1505 1319 1505 1319 1600 1235.5 c 128,-1,10
 1695 1152 1695 1152 1746.5 1030.5 c 128,-1,11
 1798 909 1798 909 1798 754 c 0,12,13
 1798 652 1798 652 1775.5 564.5 c 128,-1,14
 1753 477 1753 477 1714.5 404.5 c 128,-1,15
 1676 332 1676 332 1624.5 275.5 c 128,-1,16
 1573 219 1573 219 1514 180.5 c 128,-1,17
 1455 142 1455 142 1392.5 122 c 128,-1,18
 1330 102 1330 102 1270 102 c 0,19,20
 1223 102 1223 102 1191.5 114 c 128,-1,21
 1160 126 1160 126 1139.5 145.5 c 128,-1,22
 1119 165 1119 165 1108.5 191 c 128,-1,23
 1098 217 1098 217 1094 246 c 1,24,25
 1062 219 1062 219 1029 193.5 c 128,-1,26
 996 168 996 168 961 148 c 128,-1,27
 926 128 926 128 889 116 c 128,-1,28
 852 104 852 104 813 104 c 0,29,30
 743 104 743 104 690 129.5 c 128,-1,31
 637 155 637 155 601 200.5 c 128,-1,32
 565 246 565 246 546.5 308 c 128,-1,33
 528 370 528 370 528 444 c 0,34,35
 528 559 528 559 570.5 660.5 c 128,-1,36
 613 762 613 762 686 838.5 c 128,-1,37
 759 915 759 915 857.5 959.5 c 128,-1,38
 956 1004 956 1004 1067 1004 c 0,39,40
 1091 1004 1091 1004 1115.5 998 c 128,-1,41
 1140 992 1140 992 1164 982.5 c 128,-1,42
 1188 973 1188 973 1210.5 962 c 128,-1,43
 1233 951 1233 951 1253 942 c 1,44,-1
 1280 993 l 1,45,-1
 1452 993 l 1,46,-1
 1442 955 l 2,47,48
 1435 925 1435 925 1424.5 881 c 128,-1,49
 1414 837 1414 837 1401.5 783 c 128,-1,50
 1389 729 1389 729 1376 674 c 0,51,52
 1346 545 1346 545 1309 385 c 0,53,54
 1301 351 1301 351 1297 323 c 128,-1,55
 1293 295 1293 295 1297 275 c 128,-1,56
 1301 255 1301 255 1314.5 244 c 128,-1,57
 1328 233 1328 233 1356 233 c 0,58,59
 1376 233 1376 233 1405.5 248.5 c 128,-1,60
 1435 264 1435 264 1466.5 294 c 128,-1,61
 1498 324 1498 324 1529 368.5 c 128,-1,62
 1560 413 1560 413 1584.5 470.5 c 128,-1,63
 1609 528 1609 528 1624.5 598.5 c 128,-1,64
 1640 669 1640 669 1640 752 c 0,65,66
 1640 849 1640 849 1617 927.5 c 128,-1,67
 1594 1006 1594 1006 1555 1067 c 128,-1,68
 1516 1128 1516 1128 1462.5 1172.5 c 128,-1,69
 1409 1217 1409 1217 1349 1246 c 128,-1,70
 1289 1275 1289 1275 1224 1289 c 128,-1,71
 1159 1303 1159 1303 1096 1303 c 0,72,73
 988 1303 988 1303 889.5 1276.5 c 128,-1,74
 791 1250 791 1250 705.5 1201.5 c 128,-1,75
 620 1153 620 1153 550 1083 c 128,-1,76
 480 1013 480 1013 430 925.5 c 128,-1,77
 380 838 380 838 353 735.5 c 128,-1,78
 326 633 326 633 326 518 c 0,79,80
 326 360 326 360 375 227.5 c 128,-1,81
 424 95 424 95 514 -2 c 128,-1,82
 604 -99 604 -99 731 -153 c 128,-1,83
 858 -207 858 -207 1014 -207 c 0,84,85
 1095 -207 1095 -207 1168 -193.5 c 128,-1,86
 1241 -180 1241 -180 1309 -157 c 128,-1,87
 1377 -134 1377 -134 1442.5 -102.5 c 128,-1,88
 1508 -71 1508 -71 1573 -35 c 1,89,-1
 1616 -137 l 1,90,91
 1547 -173 1547 -173 1473 -206.5 c 128,-1,92
 1399 -240 1399 -240 1319 -265.5 c 128,-1,93
 1239 -291 1239 -291 1150.5 -306.5 c 128,-1,94
 1062 -322 1062 -322 965 -322 c 0,95,96
 845 -322 845 -322 736 -296.5 c 128,-1,97
 627 -271 627 -271 533 -222 c 128,-1,98
 439 -173 439 -173 362.5 -103 c 128,-1,99
 286 -33 286 -33 232 56.5 c 128,-1,100
 178 146 178 146 148.5 252.5 c 128,-1,101
 119 359 119 359 119 481 c 0,0,1
774 463 m 0,102,103
 774 405 774 405 785.5 364.5 c 128,-1,104
 797 324 797 324 816 298.5 c 128,-1,105
 835 273 835 273 858 261.5 c 128,-1,106
 881 250 881 250 905 250 c 0,107,108
 938 250 938 250 964.5 262.5 c 128,-1,109
 991 275 991 275 1012.5 294 c 128,-1,110
 1034 313 1034 313 1052 335 c 128,-1,111
 1070 357 1070 357 1085 375 c 1,112,-1
 1167 795 l 2,113,114
 1170 807 1170 807 1165.5 825.5 c 128,-1,115
 1161 844 1161 844 1150 861 c 128,-1,116
 1139 878 1139 878 1120 890.5 c 128,-1,117
 1101 903 1101 903 1075 903 c 0,118,119
 1013 903 1013 903 958.5 870 c 128,-1,120
 904 837 904 837 863 778.5 c 128,-1,121
 822 720 822 720 798 639 c 128,-1,122
 774 558 774 558 774 463 c 0,102,103
EndSplineSet
EndChar

StartChar: A
Encoding: 65 65 36
Width: 1464
GlyphClass: 2
Flags: W
LayerCount: 2
Fore
SplineSet
-109 0 m 1,0,-1
 -109 102 l 1,1,-1
 10 115 l 1,2,-1
 768 1407 l 1,3,-1
 1010 1407 l 1,4,-1
 1233 145 l 2,5,6
 1236 125 1236 125 1243.5 119.5 c 128,-1,7
 1251 114 1251 114 1274 111 c 0,8,9
 1288 110 1288 110 1304 108 c 0,10,11
 1318 106 1318 106 1334.5 105 c 128,-1,12
 1351 104 1351 104 1368 102 c 1,13,-1
 1368 0 l 1,14,-1
 801 0 l 1,15,-1
 801 102 l 1,16,17
 817 104 817 104 833.5 105.5 c 128,-1,18
 850 107 850 107 864 109 c 0,19,20
 880 111 880 111 895 113 c 0,21,22
 915 115 915 115 926 120 c 128,-1,23
 937 125 937 125 934 143 c 2,24,-1
 874 518 l 1,25,-1
 487 518 l 1,26,-1
 285 143 l 1,27,28
 275 128 275 128 283 121.5 c 128,-1,29
 291 115 291 115 311 113 c 0,30,31
 327 111 327 111 345 109 c 0,32,33
 360 107 360 107 379 105.5 c 128,-1,34
 398 104 398 104 418 102 c 1,35,-1
 418 0 l 1,36,-1
 -109 0 l 1,0,-1
555 635 m 1,37,-1
 852 635 l 1,38,-1
 784 1032 l 1,39,-1
 555 635 l 1,37,-1
EndSplineSet
EndChar

StartChar: B
Encoding: 66 66 37
Width: 1329
GlyphClass: 2
Flags: W
LayerCount: 2
Fore
SplineSet
-31 0 m 1,0,-1
 -31 102 l 1,1,2
 -6 104 -6 104 17 106 c 128,-1,3
 40 108 40 108 58 110 c 0,4,5
 79 112 79 112 98 113 c 0,6,7
 115 113 115 113 124.5 118.5 c 128,-1,8
 134 124 134 124 137 145 c 1,9,-1
 350 1231 l 2,10,11
 353 1248 353 1248 344.5 1254 c 128,-1,12
 336 1260 336 1260 317 1262 c 0,13,14
 299 1263 299 1263 279 1265 c 0,15,16
 262 1267 262 1267 240 1268.5 c 128,-1,17
 218 1270 218 1270 195 1272 c 1,18,-1
 195 1374 l 1,19,-1
 813 1374 l 2,20,21
 943 1374 943 1374 1029.5 1353 c 128,-1,22
 1116 1332 1116 1332 1168 1296 c 128,-1,23
 1220 1260 1220 1260 1241 1211 c 128,-1,24
 1262 1162 1262 1162 1262 1106 c 0,25,26
 1262 1031 1262 1031 1237 973 c 128,-1,27
 1212 915 1212 915 1168.5 870 c 128,-1,28
 1125 825 1125 825 1066 791.5 c 128,-1,29
 1007 758 1007 758 938 733 c 1,30,31
 1005 721 1005 721 1057.5 700 c 128,-1,32
 1110 679 1110 679 1146.5 646.5 c 128,-1,33
 1183 614 1183 614 1202 569 c 128,-1,34
 1221 524 1221 524 1221 463 c 0,35,36
 1221 341 1221 341 1175 253 c 128,-1,37
 1129 165 1129 165 1044.5 109 c 128,-1,38
 960 53 960 53 840.5 26.5 c 128,-1,39
 721 0 721 0 573 0 c 2,40,-1
 -31 0 l 1,0,-1
424 115 m 1,41,42
 446 113 446 113 468 113 c 2,43,-1
 506 113 l 2,44,45
 597 113 597 113 671.5 133.5 c 128,-1,46
 746 154 746 154 799 195.5 c 128,-1,47
 852 237 852 237 881.5 298.5 c 128,-1,48
 911 360 911 360 911 442 c 0,49,50
 911 505 911 505 889 546 c 128,-1,51
 867 587 867 587 829.5 611.5 c 128,-1,52
 792 636 792 636 743.5 645.5 c 128,-1,53
 695 655 695 655 641 655 c 0,54,55
 586 655 586 655 528 649 c 1,56,-1
 424 115 l 1,41,42
553 768 m 1,57,58
 570 766 570 766 584 766 c 2,59,-1
 604 766 l 2,60,61
 680 766 680 766 743.5 790.5 c 128,-1,62
 807 815 807 815 852.5 858.5 c 128,-1,63
 898 902 898 902 923 961.5 c 128,-1,64
 948 1021 948 1021 948 1092 c 0,65,66
 948 1141 948 1141 928.5 1174.5 c 128,-1,67
 909 1208 909 1208 876.5 1228 c 128,-1,68
 844 1248 844 1248 801.5 1257 c 128,-1,69
 759 1266 759 1266 713 1266 c 0,70,71
 696 1266 696 1266 679.5 1265 c 128,-1,72
 663 1264 663 1264 649 1264 c 1,73,-1
 553 768 l 1,57,58
EndSplineSet
EndChar

StartChar: C
Encoding: 67 67 38
Width: 1376
GlyphClass: 2
Flags: W
LayerCount: 2
Fore
SplineSet
98 549 m 0,0,1
 98 654 98 654 124.5 759 c 128,-1,2
 151 864 151 864 202 959 c 128,-1,3
 253 1054 253 1054 328 1136 c 128,-1,4
 403 1218 403 1218 499 1278.5 c 128,-1,5
 595 1339 595 1339 712 1373 c 128,-1,6
 829 1407 829 1407 965 1407 c 0,7,8
 1024 1407 1024 1407 1077.5 1400.5 c 128,-1,9
 1131 1394 1131 1394 1184 1383 c 128,-1,10
 1237 1372 1237 1372 1291.5 1356 c 128,-1,11
 1346 1340 1346 1340 1407 1321 c 1,12,-1
 1343 961 l 1,13,-1
 1192 961 l 1,14,-1
 1194 1190 l 1,15,16
 1196 1202 1196 1202 1187.5 1217 c 128,-1,17
 1179 1232 1179 1232 1163 1237 c 1,18,19
 1155 1241 1155 1241 1133 1249 c 128,-1,20
 1111 1257 1111 1257 1083.5 1264 c 128,-1,21
 1056 1271 1056 1271 1027 1276.5 c 128,-1,22
 998 1282 998 1282 975 1282 c 0,23,24
 910 1282 910 1282 842 1259 c 128,-1,25
 774 1236 774 1236 710.5 1191.5 c 128,-1,26
 647 1147 647 1147 590.5 1082 c 128,-1,27
 534 1017 534 1017 492 933 c 128,-1,28
 450 849 450 849 425.5 747 c 128,-1,29
 401 645 401 645 401 526 c 0,30,31
 401 409 401 409 435 327 c 128,-1,32
 469 245 469 245 523.5 192.5 c 128,-1,33
 578 140 578 140 645 116 c 128,-1,34
 712 92 712 92 778 92 c 0,35,36
 800 92 800 92 826 95 c 128,-1,37
 852 98 852 98 876 103 c 128,-1,38
 900 108 900 108 919.5 113 c 128,-1,39
 939 118 939 118 948 123 c 1,40,41
 964 125 964 125 972 135 c 128,-1,42
 980 145 980 145 985 156 c 2,43,-1
 1083 426 l 1,44,-1
 1237 426 l 1,45,-1
 1174 55 l 1,46,47
 1135 41 1135 41 1084.5 25.5 c 128,-1,48
 1034 10 1034 10 975 -3 c 128,-1,49
 916 -16 916 -16 849.5 -24.5 c 128,-1,50
 783 -33 783 -33 711 -33 c 0,51,52
 596 -33 596 -33 505.5 -9.5 c 128,-1,53
 415 14 415 14 347 55.5 c 128,-1,54
 279 97 279 97 231.5 153 c 128,-1,55
 184 209 184 209 154.5 274 c 128,-1,56
 125 339 125 339 111.5 409 c 128,-1,57
 98 479 98 479 98 549 c 0,0,1
EndSplineSet
EndChar

StartChar: D
Encoding: 68 68 39
Width: 1460
GlyphClass: 2
Flags: W
LayerCount: 2
Fore
SplineSet
-31 0 m 1,0,-1
 -31 102 l 1,1,2
 -8 104 -8 104 14 106 c 128,-1,3
 36 108 36 108 53 109 c 0,4,5
 73 110 73 110 92 111 c 0,6,7
 117 113 117 113 124.5 118.5 c 128,-1,8
 132 124 132 124 137 145 c 2,9,-1
 350 1231 l 2,10,11
 353 1249 353 1249 342.5 1254.5 c 128,-1,12
 332 1260 332 1260 313 1262 c 0,13,14
 294 1263 294 1263 275 1265 c 0,15,16
 258 1267 258 1267 237 1268.5 c 128,-1,17
 216 1270 216 1270 195 1272 c 1,18,-1
 195 1374 l 1,19,-1
 727 1374 l 2,20,21
 886 1374 886 1374 1014.5 1345 c 128,-1,22
 1143 1316 1143 1316 1234 1252.5 c 128,-1,23
 1325 1189 1325 1189 1374 1089 c 128,-1,24
 1423 989 1423 989 1423 848 c 0,25,26
 1423 665 1423 665 1359 509.5 c 128,-1,27
 1295 354 1295 354 1175 241 c 128,-1,28
 1055 128 1055 128 882.5 64 c 128,-1,29
 710 0 710 0 494 0 c 2,30,-1
 -31 0 l 1,0,-1
426 127 m 1,31,-1
 530 127 l 1,32,33
 620 128 620 128 698.5 156 c 128,-1,34
 777 184 777 184 842 233.5 c 128,-1,35
 907 283 907 283 958 351.5 c 128,-1,36
 1009 420 1009 420 1044 501.5 c 128,-1,37
 1079 583 1079 583 1097.5 675.5 c 128,-1,38
 1116 768 1116 768 1116 866 c 0,39,40
 1116 950 1116 950 1098 1011 c 128,-1,41
 1080 1072 1080 1072 1049 1114.5 c 128,-1,42
 1018 1157 1018 1157 975.5 1183 c 128,-1,43
 933 1209 933 1209 884 1223.5 c 128,-1,44
 835 1238 835 1238 782 1243.5 c 128,-1,45
 729 1249 729 1249 676 1251 c 1,46,-1
 647 1251 l 1,47,-1
 426 127 l 1,31,-1
EndSplineSet
EndChar

StartChar: E
Encoding: 69 69 40
Width: 1229
GlyphClass: 2
Flags: W
LayerCount: 2
Fore
SplineSet
-31 0 m 1,0,-1
 -31 102 l 1,1,2
 -8 104 -8 104 14.5 106 c 128,-1,3
 37 108 37 108 54 110 c 0,4,5
 74 112 74 112 92 113 c 0,6,7
 115 115 115 115 124.5 120 c 128,-1,8
 134 125 134 125 137 145 c 2,9,-1
 350 1231 l 1,10,11
 355 1249 355 1249 344 1254.5 c 128,-1,12
 333 1260 333 1260 313 1262 c 0,13,14
 295 1263 295 1263 276 1265 c 0,15,16
 259 1267 259 1267 238 1268.5 c 128,-1,17
 217 1270 217 1270 197 1272 c 1,18,-1
 197 1374 l 1,19,-1
 1276 1374 l 1,20,-1
 1210 1051 l 1,21,-1
 1047 1051 l 1,22,-1
 1047 1225 l 2,23,24
 1047 1240 1047 1240 1031.5 1245.5 c 128,-1,25
 1016 1251 1016 1251 999 1251 c 2,26,-1
 647 1251 l 1,27,-1
 555 776 l 1,28,-1
 786 776 l 2,29,30
 802 776 802 776 820.5 783.5 c 128,-1,31
 839 791 839 791 844 807 c 2,32,-1
 887 950 l 1,33,-1
 1036 950 l 1,34,-1
 942 469 l 1,35,-1
 791 469 l 1,36,-1
 811 623 l 2,37,38
 812 629 812 629 808 634 c 128,-1,39
 804 639 804 639 797 643 c 128,-1,40
 790 647 790 647 781.5 649 c 128,-1,41
 773 651 773 651 766 651 c 2,42,-1
 530 651 l 1,43,-1
 428 123 l 1,44,-1
 864 123 l 2,45,46
 880 123 880 123 898.5 131 c 128,-1,47
 917 139 917 139 922 152 c 2,48,-1
 987 356 l 1,49,-1
 1149 356 l 1,50,-1
 1077 0 l 1,51,-1
 -31 0 l 1,0,-1
EndSplineSet
EndChar

StartChar: F
Encoding: 70 70 41
Width: 1139
GlyphClass: 2
Flags: W
LayerCount: 2
Fore
SplineSet
-31 0 m 1,0,-1
 -31 102 l 1,1,2
 -10 104 -10 104 10.5 106 c 128,-1,3
 31 108 31 108 48 110 c 0,4,5
 67 112 67 112 86 113 c 0,6,7
 109 115 109 115 120.5 120 c 128,-1,8
 132 125 132 125 137 145 c 1,9,-1
 350 1231 l 2,10,11
 353 1249 353 1249 342 1254.5 c 128,-1,12
 331 1260 331 1260 311 1262 c 0,13,14
 293 1263 293 1263 274 1265 c 0,15,16
 257 1267 257 1267 236 1268.5 c 128,-1,17
 215 1270 215 1270 195 1272 c 1,18,-1
 195 1374 l 1,19,-1
 1253 1374 l 1,20,-1
 1186 1028 l 1,21,-1
 1020 1028 l 1,22,-1
 1020 1225 l 2,23,24
 1020 1240 1020 1240 1005 1245.5 c 128,-1,25
 990 1251 990 1251 973 1251 c 2,26,-1
 647 1251 l 1,27,-1
 551 756 l 1,28,-1
 768 756 l 2,29,30
 783 756 783 756 801.5 762.5 c 128,-1,31
 820 769 820 769 825 784 c 2,32,-1
 866 932 l 1,33,-1
 1018 932 l 1,34,-1
 924 449 l 1,35,-1
 770 449 l 1,36,-1
 793 602 l 1,37,38
 794 616 794 616 777.5 623.5 c 128,-1,39
 761 631 761 631 745 631 c 2,40,-1
 526 631 l 1,41,-1
 430 143 l 2,42,43
 427 125 427 125 438 120 c 128,-1,44
 449 115 449 115 469 113 c 0,45,46
 488 112 488 112 510 110 c 0,47,48
 529 108 529 108 552.5 106 c 128,-1,49
 576 104 576 104 602 102 c 1,50,-1
 602 0 l 1,51,-1
 -31 0 l 1,0,-1
EndSplineSet
EndChar

StartChar: G
Encoding: 71 71 42
Width: 1495
GlyphClass: 2
Flags: W
LayerCount: 2
Fore
SplineSet
98 551 m 0,0,1
 98 678 98 678 132.5 791 c 128,-1,2
 167 904 167 904 228.5 999.5 c 128,-1,3
 290 1095 290 1095 375.5 1170.5 c 128,-1,4
 461 1246 461 1246 564 1298.5 c 128,-1,5
 667 1351 667 1351 784 1379 c 128,-1,6
 901 1407 901 1407 1024 1407 c 0,7,8
 1082 1407 1082 1407 1132.5 1402.5 c 128,-1,9
 1183 1398 1183 1398 1232.5 1388.5 c 128,-1,10
 1282 1379 1282 1379 1334 1364.5 c 128,-1,11
 1386 1350 1386 1350 1448 1331 c 1,12,-1
 1372 958 l 1,13,-1
 1198 958 l 1,14,-1
 1217 1190 l 2,15,16
 1219 1208 1219 1208 1201.5 1218.5 c 128,-1,17
 1184 1229 1184 1229 1163 1237 c 0,18,19
 1153 1240 1153 1240 1135.5 1246.5 c 128,-1,20
 1118 1253 1118 1253 1095.5 1259.5 c 128,-1,21
 1073 1266 1073 1266 1048 1271 c 128,-1,22
 1023 1276 1023 1276 999 1276 c 0,23,24
 936 1276 936 1276 868 1253 c 128,-1,25
 800 1230 800 1230 734.5 1185.5 c 128,-1,26
 669 1141 669 1141 610 1075.5 c 128,-1,27
 551 1010 551 1010 506.5 926 c 128,-1,28
 462 842 462 842 436 740 c 128,-1,29
 410 638 410 638 410 520 c 0,30,31
 410 437 410 437 429.5 373.5 c 128,-1,32
 449 310 449 310 480.5 262.5 c 128,-1,33
 512 215 512 215 551.5 183.5 c 128,-1,34
 591 152 591 152 630.5 132.5 c 128,-1,35
 670 113 670 113 705 104.5 c 128,-1,36
 740 96 740 96 764 96 c 0,37,38
 784 96 784 96 807 99 c 128,-1,39
 830 102 830 102 852 106.5 c 128,-1,40
 874 111 874 111 894 116 c 128,-1,41
 914 121 914 121 928 125 c 1,42,-1
 1008 530 l 2,43,44
 1011 549 1011 549 1002 555 c 128,-1,45
 993 561 993 561 969 563 c 1,46,47
 951 563 951 563 932 565 c 0,48,49
 915 566 915 566 894.5 567.5 c 128,-1,50
 874 569 874 569 854 571 c 1,51,-1
 854 676 l 1,52,-1
 1468 676 l 1,53,-1
 1468 571 l 1,54,-1
 1329 561 l 2,55,56
 1315 559 1315 559 1309.5 551.5 c 128,-1,57
 1304 544 1304 544 1300 530 c 1,58,-1
 1206 53 l 1,59,60
 1163 41 1163 41 1107 26 c 128,-1,61
 1051 11 1051 11 987 -2 c 128,-1,62
 923 -15 923 -15 855.5 -24 c 128,-1,63
 788 -33 788 -33 723 -33 c 0,64,65
 592 -33 592 -33 495 -5 c 128,-1,66
 398 23 398 23 329 70 c 128,-1,67
 260 117 260 117 215 177.5 c 128,-1,68
 170 238 170 238 144 303 c 128,-1,69
 118 368 118 368 108 432.5 c 128,-1,70
 98 497 98 497 98 551 c 0,0,1
EndSplineSet
EndChar

StartChar: H
Encoding: 72 72 43
Width: 1571
GlyphClass: 2
Flags: W
LayerCount: 2
Fore
SplineSet
-31 0 m 1,0,-1
 -31 102 l 1,1,2
 -8 104 -8 104 14.5 106 c 128,-1,3
 37 108 37 108 54 110 c 0,4,5
 74 112 74 112 92 113 c 0,6,7
 114 115 114 115 124 121 c 128,-1,8
 134 127 134 127 137 145 c 2,9,-1
 350 1231 l 2,10,11
 353 1249 353 1249 343 1254.5 c 128,-1,12
 333 1260 333 1260 311 1262 c 0,13,14
 293 1263 293 1263 274 1265 c 0,15,16
 257 1267 257 1267 236.5 1268.5 c 128,-1,17
 216 1270 216 1270 195 1272 c 1,18,-1
 195 1374 l 1,19,-1
 813 1374 l 1,20,-1
 813 1272 l 1,21,22
 789 1270 789 1270 766.5 1268.5 c 128,-1,23
 744 1267 744 1267 726 1265 c 0,24,25
 705 1263 705 1263 686 1262 c 0,26,27
 666 1260 666 1260 656 1253.5 c 128,-1,28
 646 1247 646 1247 643 1229 c 2,29,-1
 555 780 l 1,30,-1
 1108 780 l 1,31,-1
 1196 1231 l 2,32,33
 1199 1249 1199 1249 1188.5 1255.5 c 128,-1,34
 1178 1262 1178 1262 1153 1264 c 0,35,36
 1135 1265 1135 1265 1116 1266 c 0,37,38
 1099 1267 1099 1267 1078.5 1268.5 c 128,-1,39
 1058 1270 1058 1270 1038 1272 c 1,40,-1
 1038 1374 l 1,41,-1
 1657 1374 l 1,42,-1
 1657 1272 l 1,43,-1
 1526 1260 l 2,44,45
 1507 1258 1507 1258 1499.5 1250.5 c 128,-1,46
 1492 1243 1492 1243 1489 1229 c 2,47,-1
 1276 143 l 2,48,49
 1273 126 1273 126 1282 120.5 c 128,-1,50
 1291 115 1291 115 1311 113 c 0,51,52
 1329 112 1329 112 1349 110 c 0,53,54
 1366 108 1366 108 1387.5 106 c 128,-1,55
 1409 104 1409 104 1432 102 c 1,56,-1
 1432 0 l 1,57,-1
 811 0 l 1,58,-1
 811 102 l 1,59,-1
 857 106 l 2,60,61
 880 108 880 108 898 110 c 0,62,63
 919 112 919 112 938 113 c 0,64,65
 957 115 957 115 968.5 121 c 128,-1,66
 980 127 980 127 983 145 c 2,67,-1
 1083 657 l 1,68,-1
 530 657 l 1,69,-1
 430 143 l 2,70,71
 427 125 427 125 434 120 c 128,-1,72
 441 115 441 115 467 113 c 0,73,74
 485 112 485 112 505 110 c 0,75,76
 522 108 522 108 543.5 106 c 128,-1,77
 565 104 565 104 588 102 c 1,78,-1
 588 0 l 1,79,-1
 -31 0 l 1,0,-1
EndSplineSet
EndChar

StartChar: I
Encoding: 73 73 44
Width: 729
GlyphClass: 2
Flags: W
LayerCount: 2
Fore
SplineSet
-31 0 m 1,0,-1
 -31 102 l 1,1,2
 -8 104 -8 104 13.5 105 c 128,-1,3
 35 106 35 106 52 108 c 0,4,5
 72 110 72 110 90 111 c 0,6,7
 113 113 113 113 123.5 118.5 c 128,-1,8
 134 124 134 124 137 145 c 1,9,-1
 350 1231 l 1,10,11
 355 1249 355 1249 344 1254.5 c 128,-1,12
 333 1260 333 1260 313 1262 c 0,13,14
 295 1263 295 1263 276 1265 c 0,15,16
 259 1267 259 1267 238 1268.5 c 128,-1,17
 217 1270 217 1270 197 1272 c 1,18,-1
 197 1374 l 1,19,-1
 815 1374 l 1,20,-1
 815 1272 l 1,21,-1
 674 1262 l 2,22,23
 658 1260 658 1260 652 1251.5 c 128,-1,24
 646 1243 646 1243 643 1229 c 2,25,-1
 430 143 l 2,26,27
 427 126 427 126 434 120.5 c 128,-1,28
 441 115 441 115 461 113 c 0,29,30
 480 112 480 112 501 110 c 0,31,32
 519 108 519 108 542 106 c 128,-1,33
 565 104 565 104 590 102 c 1,34,-1
 590 0 l 1,35,-1
 -31 0 l 1,0,-1
EndSplineSet
EndChar

StartChar: J
Encoding: 74 74 45
Width: 1044
GlyphClass: 2
Flags: W
LayerCount: 2
Fore
SplineSet
-41 37 m 1,0,-1
 29 393 l 1,1,-1
 197 393 l 1,2,-1
 197 135 l 2,3,4
 197 127 197 127 206.5 119.5 c 128,-1,5
 216 112 216 112 230 106.5 c 128,-1,6
 244 101 244 101 259.5 97.5 c 128,-1,7
 275 94 275 94 287 94 c 0,8,9
 376 94 376 94 433 196.5 c 128,-1,10
 490 299 490 299 528 510 c 1,11,-1
 664 1231 l 2,12,13
 667 1249 667 1249 657 1254.5 c 128,-1,14
 647 1260 647 1260 627 1262 c 0,15,16
 608 1263 608 1263 588 1265 c 0,17,18
 571 1267 571 1267 549 1268.5 c 128,-1,19
 527 1270 527 1270 506 1272 c 1,20,-1
 506 1374 l 1,21,-1
 1124 1374 l 1,22,-1
 1124 1272 l 1,23,-1
 985 1260 l 1,24,25
 971 1260 971 1260 965.5 1251.5 c 128,-1,26
 960 1243 960 1243 956 1229 c 1,27,-1
 825 526 l 2,28,29
 803 405 803 405 770.5 302.5 c 128,-1,30
 738 200 738 200 678 125.5 c 128,-1,31
 618 51 618 51 520.5 9 c 128,-1,32
 423 -33 423 -33 272 -33 c 0,33,34
 204 -33 204 -33 150.5 -24 c 128,-1,35
 97 -15 97 -15 58 -3 c 128,-1,36
 19 9 19 9 -5.5 20.5 c 128,-1,37
 -30 32 -30 32 -41 37 c 1,0,-1
EndSplineSet
EndChar

StartChar: K
Encoding: 75 75 46
Width: 1430
GlyphClass: 2
Flags: W
LayerCount: 2
Fore
SplineSet
-33 0 m 1,0,-1
 -33 102 l 1,1,2
 -13 104 -13 104 9 105 c 128,-1,3
 31 106 31 106 51 108 c 0,4,5
 74 110 74 110 96 111 c 0,6,7
 112 111 112 111 122 118 c 128,-1,8
 132 125 132 125 135 145 c 2,9,-1
 350 1231 l 1,10,11
 355 1249 355 1249 347 1255.5 c 128,-1,12
 339 1262 339 1262 324 1264 c 1,13,14
 307 1265 307 1265 289 1266 c 0,15,16
 273 1267 273 1267 254 1268.5 c 128,-1,17
 235 1270 235 1270 215 1272 c 1,18,-1
 215 1374 l 1,19,-1
 795 1374 l 1,20,-1
 795 1272 l 1,21,22
 774 1270 774 1270 753.5 1268.5 c 128,-1,23
 733 1267 733 1267 717 1266 c 0,24,25
 699 1265 699 1265 682 1264 c 1,26,27
 667 1262 667 1262 657.5 1255.5 c 128,-1,28
 648 1249 648 1249 643 1229 c 1,29,-1
 555 784 l 1,30,-1
 571 784 l 1,31,-1
 1032 1233 l 1,32,33
 1048 1247 1048 1247 1041.5 1254.5 c 128,-1,34
 1035 1262 1035 1262 1014 1264 c 1,35,36
 996 1264 996 1264 978 1266 c 0,37,38
 962 1267 962 1267 943 1268.5 c 128,-1,39
 924 1270 924 1270 907 1272 c 1,40,-1
 907 1374 l 1,41,-1
 1503 1374 l 1,42,-1
 1503 1272 l 1,43,-1
 1323 1255 l 1,44,-1
 795 752 l 1,45,-1
 1079 211 l 2,46,47
 1097 177 1097 177 1108.5 156 c 128,-1,48
 1120 135 1120 135 1132 122.5 c 128,-1,49
 1144 110 1144 110 1159 105.5 c 128,-1,50
 1174 101 1174 101 1198 100 c 0,51,52
 1206 100 1206 100 1226 101.5 c 128,-1,53
 1246 103 1246 103 1268 104.5 c 128,-1,54
 1290 106 1290 106 1307.5 107.5 c 128,-1,55
 1325 109 1325 109 1327 109 c 1,56,-1
 1327 6 l 1,57,58
 1271 -11 1271 -11 1210 -22 c 128,-1,59
 1149 -33 1149 -33 1092 -33 c 0,60,61
 1030 -33 1030 -33 986.5 -24 c 128,-1,62
 943 -15 943 -15 911.5 4.5 c 128,-1,63
 880 24 880 24 856.5 54.5 c 128,-1,64
 833 85 833 85 811 127 c 2,65,-1
 565 596 l 1,66,-1
 518 596 l 1,67,-1
 428 143 l 2,68,69
 425 123 425 123 434.5 118 c 128,-1,70
 444 113 444 113 461 111 c 0,71,72
 478 110 478 110 496 108 c 0,73,74
 511 106 511 106 529.5 105 c 128,-1,75
 548 104 548 104 567 102 c 1,76,-1
 567 0 l 1,77,-1
 -33 0 l 1,0,-1
EndSplineSet
EndChar

StartChar: L
Encoding: 76 76 47
Width: 1147
GlyphClass: 2
Flags: W
LayerCount: 2
Fore
SplineSet
-31 0 m 1,0,-1
 -31 102 l 1,1,2
 -10 104 -10 104 10.5 106 c 128,-1,3
 31 108 31 108 48 109 c 2,4,-1
 86 111 l 1,5,6
 115 114 115 114 124.5 119.5 c 128,-1,7
 134 125 134 125 137 145 c 2,8,-1
 350 1231 l 1,9,10
 355 1248 355 1248 344.5 1254 c 128,-1,11
 334 1260 334 1260 317 1262 c 1,12,13
 299 1263 299 1263 279 1265 c 0,14,15
 262 1267 262 1267 240.5 1268.5 c 128,-1,16
 219 1270 219 1270 197 1272 c 1,17,-1
 197 1374 l 1,18,-1
 815 1374 l 1,19,-1
 815 1272 l 1,20,21
 789 1270 789 1270 765.5 1268.5 c 128,-1,22
 742 1267 742 1267 723 1265 c 0,23,24
 701 1263 701 1263 682 1262 c 1,25,26
 668 1260 668 1260 658 1253.5 c 128,-1,27
 648 1247 648 1247 643 1229 c 1,28,-1
 426 123 l 1,29,-1
 786 123 l 2,30,31
 802 123 802 123 820.5 131 c 128,-1,32
 839 139 839 139 844 152 c 2,33,-1
 928 414 l 1,34,-1
 1081 414 l 1,35,-1
 999 0 l 1,36,-1
 -31 0 l 1,0,-1
EndSplineSet
EndChar

StartChar: M
Encoding: 77 77 48
Width: 1851
GlyphClass: 2
Flags: W
LayerCount: 2
Fore
SplineSet
-29 0 m 1,0,-1
 -29 102 l 1,1,2
 -8 104 -8 104 12 106 c 128,-1,3
 32 108 32 108 49 110 c 0,4,5
 68 112 68 112 86 113 c 0,6,7
 108 115 108 115 121 120 c 128,-1,8
 134 125 134 125 139 145 c 1,9,-1
 350 1231 l 2,10,11
 353 1249 353 1249 343 1254.5 c 128,-1,12
 333 1260 333 1260 313 1262 c 0,13,14
 294 1263 294 1263 275 1265 c 0,15,16
 258 1267 258 1267 237 1268.5 c 128,-1,17
 216 1270 216 1270 195 1272 c 1,18,-1
 195 1374 l 1,19,-1
 739 1374 l 1,20,-1
 739 1307 l 1,21,-1
 895 446 l 1,22,-1
 1376 1298 l 1,23,-1
 1376 1374 l 1,24,-1
 1935 1374 l 1,25,-1
 1935 1272 l 1,26,-1
 1796 1257 l 2,27,28
 1782 1255 1782 1255 1776.5 1249 c 128,-1,29
 1771 1243 1771 1243 1767 1229 c 1,30,-1
 1556 143 l 2,31,32
 1553 125 1553 125 1563 120 c 128,-1,33
 1573 115 1573 115 1593 113 c 0,34,35
 1611 112 1611 112 1631 110 c 0,36,37
 1648 108 1648 108 1669 106 c 128,-1,38
 1690 104 1690 104 1712 102 c 1,39,-1
 1712 0 l 1,40,-1
 1094 0 l 1,41,-1
 1094 102 l 1,42,43
 1117 104 1117 104 1139 106 c 128,-1,44
 1161 108 1161 108 1179 110 c 0,45,46
 1200 112 1200 112 1219 113 c 0,47,48
 1236 113 1236 113 1248.5 120 c 128,-1,49
 1261 127 1261 127 1264 145 c 2,50,-1
 1417 936 l 1,51,-1
 885 0 l 1,52,-1
 684 0 l 1,53,-1
 518 922 l 1,54,-1
 373 143 l 1,55,56
 368 126 368 126 377.5 120.5 c 128,-1,57
 387 115 387 115 401 113 c 1,58,59
 420 112 420 112 440 110 c 0,60,61
 457 108 457 108 479.5 106 c 128,-1,62
 502 104 502 104 526 102 c 1,63,-1
 526 0 l 1,64,-1
 -29 0 l 1,0,-1
EndSplineSet
EndChar

StartChar: N
Encoding: 78 78 49
Width: 1542
GlyphClass: 2
Flags: W
LayerCount: 2
Fore
SplineSet
-29 0 m 1,0,-1
 -29 102 l 1,1,2
 -7 104 -7 104 13.5 106 c 128,-1,3
 34 108 34 108 51 110 c 0,4,5
 70 112 70 112 88 113 c 0,6,7
 110 115 110 115 122 120 c 128,-1,8
 134 125 134 125 139 145 c 1,9,-1
 350 1231 l 1,10,11
 355 1249 355 1249 344 1254.5 c 128,-1,12
 333 1260 333 1260 313 1262 c 0,13,14
 295 1263 295 1263 276 1265 c 0,15,16
 259 1267 259 1267 238.5 1268.5 c 128,-1,17
 218 1270 218 1270 197 1272 c 1,18,-1
 197 1374 l 1,19,-1
 678 1374 l 1,20,-1
 678 1311 l 1,21,-1
 1077 477 l 1,22,-1
 1227 1231 l 1,23,24
 1232 1249 1232 1249 1219 1254.5 c 128,-1,25
 1206 1260 1206 1260 1188 1262 c 1,26,27
 1169 1263 1169 1263 1150 1265 c 0,28,29
 1133 1267 1133 1267 1112 1268.5 c 128,-1,30
 1091 1270 1091 1270 1071 1272 c 1,31,-1
 1071 1374 l 1,32,-1
 1632 1374 l 1,33,-1
 1632 1272 l 1,34,-1
 1499 1260 l 1,35,36
 1470 1255 1470 1255 1464 1229 c 2,37,-1
 1221 0 l 1,38,-1
 993 0 l 1,39,-1
 535 952 l 1,40,-1
 377 143 l 2,41,42
 374 125 374 125 383 120 c 128,-1,43
 392 115 392 115 414 113 c 0,44,45
 432 112 432 112 451 110 c 0,46,47
 468 108 468 108 488.5 106 c 128,-1,48
 509 104 509 104 532 102 c 1,49,-1
 532 0 l 1,50,-1
 -29 0 l 1,0,-1
EndSplineSet
EndChar

StartChar: O
Encoding: 79 79 50
Width: 1540
GlyphClass: 2
Flags: W
LayerCount: 2
Fore
SplineSet
98 539 m 0,0,1
 98 645 98 645 122.5 751 c 128,-1,2
 147 857 147 857 194.5 953.5 c 128,-1,3
 242 1050 242 1050 311 1133 c 128,-1,4
 380 1216 380 1216 469.5 1277 c 128,-1,5
 559 1338 559 1338 668 1372.5 c 128,-1,6
 777 1407 777 1407 903 1407 c 0,7,8
 1051 1407 1051 1407 1163 1361.5 c 128,-1,9
 1275 1316 1275 1316 1350 1239.5 c 128,-1,10
 1425 1163 1425 1163 1463 1063 c 128,-1,11
 1501 963 1501 963 1501 854 c 0,12,13
 1501 749 1501 749 1479 642.5 c 128,-1,14
 1457 536 1457 536 1412.5 437.5 c 128,-1,15
 1368 339 1368 339 1301 253 c 128,-1,16
 1234 167 1234 167 1145 103.5 c 128,-1,17
 1056 40 1056 40 944 3.5 c 128,-1,18
 832 -33 832 -33 698 -33 c 0,19,20
 555 -33 555 -33 443.5 9.5 c 128,-1,21
 332 52 332 52 255 128.5 c 128,-1,22
 178 205 178 205 138 309.5 c 128,-1,23
 98 414 98 414 98 539 c 0,0,1
416 522 m 0,24,25
 416 416 416 416 443.5 336 c 128,-1,26
 471 256 471 256 514 202 c 128,-1,27
 557 148 557 148 609.5 121 c 128,-1,28
 662 94 662 94 713 94 c 0,29,30
 773 94 773 94 831.5 125.5 c 128,-1,31
 890 157 890 157 942 212 c 128,-1,32
 994 267 994 267 1038 340.5 c 128,-1,33
 1082 414 1082 414 1114 498.5 c 128,-1,34
 1146 583 1146 583 1164 674 c 128,-1,35
 1182 765 1182 765 1182 854 c 0,36,37
 1182 957 1182 957 1155.5 1037 c 128,-1,38
 1129 1117 1129 1117 1086.5 1172 c 128,-1,39
 1044 1227 1044 1227 991 1255.5 c 128,-1,40
 938 1284 938 1284 885 1284 c 0,41,42
 824 1284 824 1284 765.5 1253 c 128,-1,43
 707 1222 707 1222 655 1168.5 c 128,-1,44
 603 1115 603 1115 559 1041.5 c 128,-1,45
 515 968 515 968 483.5 883.5 c 128,-1,46
 452 799 452 799 434 706.5 c 128,-1,47
 416 614 416 614 416 522 c 0,24,25
EndSplineSet
EndChar

StartChar: P
Encoding: 80 80 51
Width: 1245
GlyphClass: 2
Flags: W
LayerCount: 2
Fore
SplineSet
-35 0 m 1,0,-1
 -35 102 l 1,1,2
 -13 104 -13 104 8 106 c 128,-1,3
 29 108 29 108 46 110 c 0,4,5
 65 112 65 112 84 113 c 0,6,7
 104 115 104 115 116 120 c 128,-1,8
 128 125 128 125 133 145 c 1,9,-1
 348 1231 l 2,10,11
 351 1249 351 1249 339.5 1254.5 c 128,-1,12
 328 1260 328 1260 309 1262 c 0,13,14
 291 1263 291 1263 272 1265 c 0,15,16
 255 1267 255 1267 234 1268.5 c 128,-1,17
 213 1270 213 1270 193 1272 c 1,18,-1
 193 1374 l 1,19,-1
 745 1374 l 2,20,21
 890 1374 890 1374 988 1347.5 c 128,-1,22
 1086 1321 1086 1321 1145.5 1275.5 c 128,-1,23
 1205 1230 1205 1230 1230 1169.5 c 128,-1,24
 1255 1109 1255 1109 1255 1040 c 0,25,26
 1255 920 1255 920 1208.5 822 c 128,-1,27
 1162 724 1162 724 1075 653.5 c 128,-1,28
 988 583 988 583 864.5 544.5 c 128,-1,29
 741 506 741 506 588 506 c 2,30,-1
 546 506 l 2,31,32
 521 506 521 506 500 508 c 1,33,-1
 426 143 l 2,34,35
 423 125 423 125 432 120 c 128,-1,36
 441 115 441 115 463 113 c 0,37,38
 481 112 481 112 501 110 c 0,39,40
 518 108 518 108 539.5 106 c 128,-1,41
 561 104 561 104 584 102 c 1,42,-1
 584 0 l 1,43,-1
 -35 0 l 1,0,-1
522 631 m 1,44,45
 530 631 530 631 539 631 c 0,46,47
 592 632 592 632 650 642 c 0,48,49
 718 654 718 654 780 692 c 0,50,51
 817 714 817 714 849 744 c 128,-1,52
 881 774 881 774 905 813 c 128,-1,53
 929 852 929 852 942.5 900.5 c 128,-1,54
 956 949 956 949 956 1008 c 0,55,56
 956 1129 956 1129 887 1193 c 128,-1,57
 818 1257 818 1257 682 1257 c 2,58,-1
 647 1257 l 1,59,-1
 522 631 l 1,44,45
EndSplineSet
EndChar

StartChar: Q
Encoding: 81 81 52
Width: 1540
GlyphClass: 2
Flags: W
LayerCount: 2
Fore
SplineSet
94 530 m 0,0,1
 94 632 94 632 118.5 737 c 128,-1,2
 143 842 143 842 191 939.5 c 128,-1,3
 239 1037 239 1037 308.5 1122 c 128,-1,4
 378 1207 378 1207 468 1270.5 c 128,-1,5
 558 1334 558 1334 667.5 1370.5 c 128,-1,6
 777 1407 777 1407 905 1407 c 0,7,8
 1051 1407 1051 1407 1162 1363 c 128,-1,9
 1273 1319 1273 1319 1348 1243 c 128,-1,10
 1423 1167 1423 1167 1461 1066.5 c 128,-1,11
 1499 966 1499 966 1499 852 c 0,12,13
 1499 798 1499 798 1492.5 732 c 128,-1,14
 1486 666 1486 666 1467.5 594.5 c 128,-1,15
 1449 523 1449 523 1417.5 448.5 c 128,-1,16
 1386 374 1386 374 1336.5 302.5 c 128,-1,17
 1287 231 1287 231 1216.5 165 c 128,-1,18
 1146 99 1146 99 1051 45 c 1,19,20
 1080 -7 1080 -7 1102 -50 c 128,-1,21
 1124 -93 1124 -93 1149 -123.5 c 128,-1,22
 1174 -154 1174 -154 1206 -171 c 128,-1,23
 1238 -188 1238 -188 1286 -188 c 0,24,25
 1313 -188 1313 -188 1341 -181.5 c 128,-1,26
 1369 -175 1369 -175 1402 -163 c 128,-1,27
 1435 -151 1435 -151 1474.5 -133 c 128,-1,28
 1514 -115 1514 -115 1565 -92 c 1,29,-1
 1565 -221 l 1,30,31
 1551 -228 1551 -228 1510 -245.5 c 128,-1,32
 1469 -263 1469 -263 1414 -281.5 c 128,-1,33
 1359 -300 1359 -300 1296 -314 c 128,-1,34
 1233 -328 1233 -328 1176 -328 c 0,35,36
 1081 -328 1081 -328 1013.5 -303.5 c 128,-1,37
 946 -279 946 -279 898 -238.5 c 128,-1,38
 850 -198 850 -198 817.5 -144.5 c 128,-1,39
 785 -91 785 -91 758 -33 c 1,40,41
 744 -35 744 -35 727.5 -36 c 128,-1,42
 711 -37 711 -37 692 -37 c 0,43,44
 559 -37 559 -37 449 2.5 c 128,-1,45
 339 42 339 42 260 116 c 128,-1,46
 181 190 181 190 137.5 294.5 c 128,-1,47
 94 399 94 399 94 530 c 0,0,1
410 520 m 0,48,49
 410 422 410 422 435 342.5 c 128,-1,50
 460 263 460 263 501.5 207 c 128,-1,51
 543 151 543 151 597.5 120.5 c 128,-1,52
 652 90 652 90 711 90 c 256,53,54
 770 90 770 90 828 121 c 128,-1,55
 886 152 886 152 938.5 206.5 c 128,-1,56
 991 261 991 261 1035.5 334.5 c 128,-1,57
 1080 408 1080 408 1112.5 493 c 128,-1,58
 1145 578 1145 578 1163.5 669.5 c 128,-1,59
 1182 761 1182 761 1182 852 c 0,60,61
 1182 951 1182 951 1157 1030.5 c 128,-1,62
 1132 1110 1132 1110 1091.5 1166 c 128,-1,63
 1051 1222 1051 1222 999.5 1252 c 128,-1,64
 948 1282 948 1282 895 1282 c 0,65,66
 833 1282 833 1282 773 1252.5 c 128,-1,67
 713 1223 713 1223 659 1170.5 c 128,-1,68
 605 1118 605 1118 559.5 1046 c 128,-1,69
 514 974 514 974 480.5 889.5 c 128,-1,70
 447 805 447 805 428.5 711 c 128,-1,71
 410 617 410 617 410 520 c 0,48,49
EndSplineSet
EndChar

StartChar: R
Encoding: 82 82 53
Width: 1399
GlyphClass: 2
Flags: W
LayerCount: 2
Fore
SplineSet
-27 0 m 1,0,-1
 -27 102 l 1,1,2
 -4 104 -4 104 17.5 105 c 128,-1,3
 39 106 39 106 56 108 c 0,4,5
 76 110 76 110 94 111 c 0,6,7
 113 113 113 113 124.5 119 c 128,-1,8
 136 125 136 125 141 145 c 1,9,-1
 350 1231 l 1,10,11
 355 1248 355 1248 345 1254 c 128,-1,12
 335 1260 335 1260 315 1262 c 0,13,14
 296 1263 296 1263 277 1265 c 0,15,16
 260 1267 260 1267 239 1268.5 c 128,-1,17
 218 1270 218 1270 197 1272 c 1,18,-1
 197 1374 l 1,19,-1
 788 1374 l 2,20,21
 891 1374 891 1374 980 1358 c 128,-1,22
 1069 1342 1069 1342 1135 1305.5 c 128,-1,23
 1201 1269 1201 1269 1238.5 1210.5 c 128,-1,24
 1276 1152 1276 1152 1276 1067 c 0,25,26
 1276 986 1276 986 1244.5 920.5 c 128,-1,27
 1213 855 1213 855 1158 803 c 128,-1,28
 1103 751 1103 751 1028 712.5 c 128,-1,29
 953 674 953 674 866 649 c 1,30,31
 925 622 925 622 961 589.5 c 128,-1,32
 997 557 997 557 1019 516.5 c 128,-1,33
 1041 476 1041 476 1054.5 427.5 c 128,-1,34
 1068 379 1068 379 1083 322 c 0,35,36
 1097 268 1097 268 1110.5 227 c 128,-1,37
 1124 186 1124 186 1150.5 158 c 128,-1,38
 1177 130 1177 130 1222.5 116 c 128,-1,39
 1268 102 1268 102 1346 102 c 1,40,-1
 1346 6 l 1,41,42
 1299 -14 1299 -14 1254 -23.5 c 128,-1,43
 1209 -33 1209 -33 1153 -33 c 0,44,45
 1058 -33 1058 -33 997 -11 c 128,-1,46
 936 11 936 11 897 53.5 c 128,-1,47
 858 96 858 96 836 158 c 128,-1,48
 814 220 814 220 797 301 c 0,49,50
 790 331 790 331 782.5 364.5 c 128,-1,51
 775 398 775 398 764.5 431 c 128,-1,52
 754 464 754 464 739.5 494 c 128,-1,53
 725 524 725 524 703.5 547.5 c 128,-1,54
 682 571 682 571 653.5 584.5 c 128,-1,55
 625 598 625 598 586 598 c 0,56,57
 573 598 573 598 555 597 c 128,-1,58
 537 596 537 596 520 596 c 1,59,-1
 434 143 l 2,60,61
 431 126 431 126 439 120.5 c 128,-1,62
 447 115 447 115 467 113 c 0,63,64
 485 111 485 111 506 109 c 0,65,66
 523 107 523 107 546 105.5 c 128,-1,67
 569 104 569 104 592 102 c 1,68,-1
 592 0 l 1,69,-1
 -27 0 l 1,0,-1
547 721 m 1,70,-1
 561 721 l 2,71,72
 570 721 570 721 578 722 c 1,73,74
 588 722 588 722 598 723 c 0,75,76
 637 724 637 724 679 732 c 128,-1,77
 721 740 721 740 761 755 c 128,-1,78
 801 770 801 770 836.5 794 c 128,-1,79
 872 818 872 818 899 852.5 c 128,-1,80
 926 887 926 887 942 932.5 c 128,-1,81
 958 978 958 978 958 1036 c 0,82,83
 958 1086 958 1086 943 1122 c 128,-1,84
 928 1158 928 1158 904.5 1182.5 c 128,-1,85
 881 1207 881 1207 852 1222 c 128,-1,86
 823 1237 823 1237 794 1244 c 1,87,88
 766 1252 766 1252 740 1254 c 0,89,90
 723 1255 723 1255 710 1255 c 0,91,92
 704 1255 704 1255 698 1255 c 2,93,-1
 647 1251 l 1,94,-1
 547 721 l 1,70,-1
EndSplineSet
EndChar

StartChar: S
Encoding: 83 83 54
Width: 1153
GlyphClass: 2
Flags: W
LayerCount: 2
Fore
SplineSet
-10 82 m 1,0,-1
 61 418 l 1,1,-1
 236 418 l 1,2,-1
 213 174 l 2,3,4
 212 168 212 168 240 154.5 c 128,-1,5
 268 141 268 141 307 127.5 c 128,-1,6
 346 114 346 114 387.5 104 c 128,-1,7
 429 94 429 94 455 94 c 0,8,9
 501 94 501 94 552 111.5 c 128,-1,10
 603 129 603 129 645.5 164.5 c 128,-1,11
 688 200 688 200 715.5 253.5 c 128,-1,12
 743 307 743 307 743 379 c 0,13,14
 743 429 743 429 712.5 468 c 128,-1,15
 682 507 682 507 638.5 537.5 c 128,-1,16
 595 568 595 568 545.5 592 c 128,-1,17
 496 616 496 616 459 635 c 0,18,19
 404 663 404 663 352.5 693.5 c 128,-1,20
 301 724 301 724 261 761.5 c 128,-1,21
 221 799 221 799 196.5 846 c 128,-1,22
 172 893 172 893 172 954 c 0,23,24
 172 1053 172 1053 211.5 1136 c 128,-1,25
 251 1219 251 1219 325.5 1279 c 128,-1,26
 400 1339 400 1339 506.5 1373 c 128,-1,27
 613 1407 613 1407 748 1407 c 0,28,29
 817 1407 817 1407 875 1399.5 c 128,-1,30
 933 1392 933 1392 981.5 1380 c 128,-1,31
 1030 1368 1030 1368 1069 1353.5 c 128,-1,32
 1108 1339 1108 1339 1139 1325 c 1,33,-1
 1069 1006 l 1,34,-1
 913 1006 l 1,35,-1
 922 1219 l 2,36,37
 922 1224 922 1224 903 1235 c 128,-1,38
 884 1246 884 1246 855 1257.5 c 128,-1,39
 826 1269 826 1269 792.5 1277.5 c 128,-1,40
 759 1286 759 1286 731 1286 c 0,41,42
 691 1286 691 1286 645 1268 c 128,-1,43
 599 1250 599 1250 559.5 1216 c 128,-1,44
 520 1182 520 1182 493.5 1133 c 128,-1,45
 467 1084 467 1084 467 1022 c 0,46,47
 467 968 467 968 496.5 927.5 c 128,-1,48
 526 887 526 887 569.5 856.5 c 128,-1,49
 613 826 613 826 662.5 802.5 c 128,-1,50
 712 779 712 779 752 760 c 1,51,52
 807 732 807 732 859.5 701 c 128,-1,53
 912 670 912 670 952.5 631 c 128,-1,54
 993 592 993 592 1017.5 541.5 c 128,-1,55
 1042 491 1042 491 1042 424 c 0,56,57
 1042 377 1042 377 1029 325.5 c 128,-1,58
 1016 274 1016 274 987 223 c 128,-1,59
 958 172 958 172 911 125.5 c 128,-1,60
 864 79 864 79 795.5 44 c 128,-1,61
 727 9 727 9 635.5 -12 c 128,-1,62
 544 -33 544 -33 426 -33 c 0,63,64
 342 -33 342 -33 268.5 -18.5 c 128,-1,65
 195 -4 195 -4 137.5 15.5 c 128,-1,66
 80 35 80 35 42 54 c 128,-1,67
 4 73 4 73 -10 82 c 1,0,-1
EndSplineSet
EndChar

StartChar: T
Encoding: 84 84 55
Width: 1286
GlyphClass: 2
Flags: W
LayerCount: 2
Fore
SplineSet
127 1016 m 1,0,-1
 197 1374 l 1,1,-1
 1417 1374 l 1,2,-1
 1343 1016 l 1,3,-1
 1184 1016 l 1,4,-1
 1194 1235 l 2,5,6
 1195 1248 1195 1248 1179.5 1255 c 128,-1,7
 1164 1262 1164 1262 1149 1262 c 2,8,-1
 926 1262 l 1,9,-1
 715 143 l 2,10,11
 712 125 712 125 723.5 120 c 128,-1,12
 735 115 735 115 754 113 c 0,13,14
 772 112 772 112 792 110 c 0,15,16
 809 108 809 108 830 106 c 2,17,-1
 872 102 l 1,18,-1
 872 0 l 1,19,-1
 254 0 l 1,20,-1
 254 102 l 1,21,22
 274 104 274 104 293.5 105 c 128,-1,23
 313 106 313 106 330 108 c 0,24,25
 349 110 349 110 367 111 c 0,26,27
 388 113 388 113 403.5 119 c 128,-1,28
 419 125 419 125 422 145 c 2,29,-1
 633 1262 l 1,30,-1
 422 1262 l 2,31,32
 415 1262 415 1262 406 1260 c 128,-1,33
 397 1258 397 1258 388.5 1254 c 128,-1,34
 380 1250 380 1250 373.5 1245 c 128,-1,35
 367 1240 367 1240 365 1233 c 2,36,-1
 287 1016 l 1,37,-1
 127 1016 l 1,0,-1
EndSplineSet
EndChar

StartChar: U
Encoding: 85 85 56
Width: 1534
GlyphClass: 2
Flags: W
LayerCount: 2
Fore
SplineSet
188 332 m 0,0,1
 188 361 188 361 194.5 417.5 c 128,-1,2
 201 474 201 474 215 543 c 2,3,-1
 358 1231 l 2,4,5
 361 1249 361 1249 350 1254.5 c 128,-1,6
 339 1260 339 1260 317 1262 c 0,7,8
 300 1263 300 1263 281 1265 c 0,9,10
 264 1267 264 1267 243.5 1268.5 c 128,-1,11
 223 1270 223 1270 203 1272 c 1,12,-1
 203 1374 l 1,13,-1
 821 1374 l 1,14,-1
 821 1272 l 1,15,16
 797 1270 797 1270 774.5 1268.5 c 128,-1,17
 752 1267 752 1267 734 1265 c 0,18,19
 713 1263 713 1263 694 1262 c 1,20,21
 676 1260 676 1260 665 1253.5 c 128,-1,22
 654 1247 654 1247 651 1229 c 2,23,-1
 510 543 l 2,24,25
 498 484 498 484 492.5 437 c 128,-1,26
 487 390 487 390 487 362 c 0,27,28
 487 297 487 297 508 251 c 128,-1,29
 529 205 529 205 563.5 176 c 128,-1,30
 598 147 598 147 642.5 134 c 128,-1,31
 687 121 687 121 733 121 c 0,32,33
 813 121 813 121 871.5 150.5 c 128,-1,34
 930 180 930 180 971 232 c 128,-1,35
 1012 284 1012 284 1039 356 c 128,-1,36
 1066 428 1066 428 1083 512 c 2,37,-1
 1227 1231 l 2,38,39
 1230 1249 1230 1249 1221.5 1254.5 c 128,-1,40
 1213 1260 1213 1260 1188 1262 c 0,41,42
 1169 1263 1169 1263 1150 1265 c 0,43,44
 1133 1267 1133 1267 1112 1268.5 c 128,-1,45
 1091 1270 1091 1270 1071 1272 c 1,46,-1
 1071 1374 l 1,47,-1
 1620 1374 l 1,48,-1
 1620 1272 l 1,49,-1
 1485 1262 l 2,50,51
 1471 1260 1471 1260 1463 1251.5 c 128,-1,52
 1455 1243 1455 1243 1452 1229 c 2,53,-1
 1294 440 l 2,54,55
 1273 333 1273 333 1227.5 246 c 128,-1,56
 1182 159 1182 159 1107.5 97 c 128,-1,57
 1033 35 1033 35 927 1 c 128,-1,58
 821 -33 821 -33 680 -33 c 0,59,60
 566 -33 566 -33 475 -11.5 c 128,-1,61
 384 10 384 10 320.5 54.5 c 128,-1,62
 257 99 257 99 222.5 168 c 128,-1,63
 188 237 188 237 188 332 c 0,0,1
EndSplineSet
EndChar

StartChar: V
Encoding: 86 86 57
Width: 1403
GlyphClass: 2
Flags: W
LayerCount: 2
Fore
SplineSet
170 1270 m 1,0,-1
 170 1374 l 1,1,-1
 721 1374 l 1,2,-1
 721 1270 l 1,3,4
 704 1269 704 1269 688.5 1268.5 c 128,-1,5
 673 1268 673 1268 659 1268 c 2,6,-1
 629 1268 l 2,7,8
 612 1268 612 1268 600.5 1262 c 128,-1,9
 589 1256 589 1256 592 1237 c 2,10,-1
 725 383 l 1,11,-1
 1180 1237 l 1,12,13
 1184 1247 1184 1247 1182.5 1253 c 128,-1,14
 1181 1259 1181 1259 1176 1262 c 128,-1,15
 1171 1265 1171 1265 1164 1266 c 128,-1,16
 1157 1267 1157 1267 1151 1268 c 1,17,-1
 1118 1268 l 2,18,19
 1103 1268 1103 1268 1084.5 1268.5 c 128,-1,20
 1066 1269 1066 1269 1049 1270 c 1,21,-1
 1049 1374 l 1,22,-1
 1552 1374 l 1,23,-1
 1552 1272 l 1,24,-1
 1440 1260 l 1,25,-1
 733 -33 l 1,26,-1
 498 -33 l 1,27,-1
 297 1235 l 2,28,29
 294 1255 294 1255 280.5 1260.5 c 128,-1,30
 267 1266 267 1266 250 1266 c 0,31,32
 237 1266 237 1266 223 1267 c 0,33,34
 211 1268 211 1268 197 1268.5 c 128,-1,35
 183 1269 183 1269 170 1270 c 1,0,-1
EndSplineSet
EndChar

StartChar: W
Encoding: 87 87 58
Width: 1985
GlyphClass: 2
Flags: W
LayerCount: 2
Fore
SplineSet
170 1270 m 1,0,-1
 170 1374 l 1,1,-1
 729 1374 l 1,2,-1
 729 1270 l 1,3,4
 711 1269 711 1269 693.5 1268.5 c 128,-1,5
 676 1268 676 1268 662 1267 c 0,6,7
 645 1266 645 1266 631 1266 c 0,8,9
 618 1266 618 1266 607 1261 c 128,-1,10
 596 1256 596 1256 598 1237 c 2,11,-1
 657 514 l 1,12,-1
 1069 1374 l 1,13,-1
 1315 1374 l 1,14,-1
 1405 496 l 1,15,-1
 1751 1237 l 2,16,17
 1755 1247 1755 1247 1754 1253 c 128,-1,18
 1753 1259 1753 1259 1747.5 1262 c 128,-1,19
 1742 1265 1742 1265 1733 1266 c 128,-1,20
 1724 1267 1724 1267 1712 1268 c 1,21,-1
 1681 1268 l 2,22,23
 1667 1268 1667 1268 1651 1268.5 c 128,-1,24
 1635 1269 1635 1269 1620 1270 c 1,25,-1
 1620 1374 l 1,26,-1
 2134 1374 l 1,27,-1
 2134 1272 l 1,28,-1
 2009 1260 l 1,29,-1
 1393 -33 l 1,30,-1
 1184 -33 l 1,31,-1
 1079 907 l 1,32,-1
 633 -33 l 1,33,-1
 410 -33 l 1,34,-1
 305 1235 l 2,35,36
 303 1255 303 1255 292.5 1259.5 c 128,-1,37
 282 1264 282 1264 256 1266 c 0,38,39
 243 1266 243 1266 228 1267 c 0,40,41
 215 1268 215 1268 199.5 1268.5 c 128,-1,42
 184 1269 184 1269 170 1270 c 1,0,-1
EndSplineSet
EndChar

StartChar: X
Encoding: 88 88 59
Width: 1382
GlyphClass: 2
Flags: W
LayerCount: 2
Fore
SplineSet
-90 0 m 1,0,-1
 -90 102 l 1,1,2
 -76 104 -76 104 -60.5 105 c 128,-1,3
 -45 106 -45 106 -33 108 c 0,4,5
 -19 110 -19 110 -6 111 c 256,6,7
 7 112 7 112 16 112.5 c 128,-1,8
 25 113 25 113 32 115.5 c 128,-1,9
 39 118 39 118 45 122.5 c 128,-1,10
 51 127 51 127 59 135 c 2,11,-1
 567 696 l 1,12,-1
 322 1239 l 2,13,14
 314 1256 314 1256 304.5 1259 c 128,-1,15
 295 1262 295 1262 272 1264 c 1,16,17
 256 1264 256 1264 239 1266 c 0,18,19
 225 1267 225 1267 206.5 1268.5 c 128,-1,20
 188 1270 188 1270 170 1272 c 1,21,-1
 170 1374 l 1,22,-1
 788 1374 l 1,23,-1
 788 1272 l 1,24,25
 763 1270 763 1270 739.5 1268.5 c 128,-1,26
 716 1267 716 1267 696 1266 c 0,27,28
 673 1265 673 1265 653 1264 c 0,29,30
 639 1264 639 1264 628 1257.5 c 128,-1,31
 617 1251 617 1251 625 1233 c 2,32,-1
 764 920 l 1,33,-1
 1044 1233 l 2,34,35
 1052 1241 1052 1241 1054 1250.5 c 128,-1,36
 1056 1260 1056 1260 1036 1262 c 2,37,-1
 926 1272 l 1,38,-1
 926 1374 l 1,39,-1
 1475 1374 l 1,40,-1
 1475 1272 l 1,41,-1
 1348 1262 l 2,42,43
 1326 1260 1326 1260 1315.5 1251.5 c 128,-1,44
 1305 1243 1305 1243 1300 1237 c 2,45,-1
 852 735 l 1,46,-1
 1120 135 l 1,47,48
 1128 120 1128 120 1136.5 116.5 c 128,-1,49
 1145 113 1145 113 1157 111 c 1,50,51
 1174 110 1174 110 1192 109 c 0,52,53
 1208 108 1208 108 1228.5 106 c 128,-1,54
 1249 104 1249 104 1272 102 c 1,55,-1
 1272 0 l 1,56,-1
 657 0 l 1,57,-1
 657 102 l 1,58,59
 677 104 677 104 698 105 c 128,-1,60
 719 106 719 106 736 108 c 0,61,62
 755 110 755 110 774 111 c 0,63,64
 786 112 786 112 795.5 113 c 128,-1,65
 805 114 805 114 811.5 117 c 128,-1,66
 818 120 818 120 819.5 125.5 c 128,-1,67
 821 131 821 131 817 141 c 2,68,-1
 659 502 l 1,69,-1
 330 141 l 2,70,71
 322 133 322 133 324.5 123 c 128,-1,72
 327 113 327 113 344 111 c 2,73,-1
 473 102 l 1,74,-1
 473 0 l 1,75,-1
 -90 0 l 1,0,-1
EndSplineSet
EndChar

StartChar: Y
Encoding: 89 89 60
Width: 1395
GlyphClass: 2
Flags: W
LayerCount: 2
Fore
SplineSet
172 1272 m 1,0,-1
 172 1374 l 1,1,-1
 788 1374 l 1,2,-1
 788 1272 l 1,3,4
 765 1270 765 1270 742.5 1268.5 c 128,-1,5
 720 1267 720 1267 702 1266 c 0,6,7
 681 1264 681 1264 662 1264 c 0,8,9
 645 1264 645 1264 633 1257.5 c 128,-1,10
 621 1251 621 1251 629 1231 c 1,11,-1
 770 786 l 1,12,-1
 1108 1233 l 2,13,14
 1114 1241 1114 1241 1110 1251.5 c 128,-1,15
 1106 1262 1106 1262 1083 1264 c 2,16,-1
 963 1272 l 1,17,-1
 963 1374 l 1,18,-1
 1542 1374 l 1,19,-1
 1542 1272 l 1,20,-1
 1411 1262 l 1,21,22
 1400 1260 1400 1260 1389.5 1251.5 c 128,-1,23
 1379 1243 1379 1243 1374 1237 c 2,24,-1
 854 575 l 1,25,-1
 768 143 l 1,26,27
 763 125 763 125 773 120 c 128,-1,28
 783 115 783 115 805 113 c 0,29,30
 823 112 823 112 842 110 c 0,31,32
 859 108 859 108 879.5 106 c 128,-1,33
 900 104 900 104 922 102 c 1,34,-1
 922 0 l 1,35,-1
 303 0 l 1,36,-1
 303 102 l 1,37,38
 323 104 323 104 344 106 c 128,-1,39
 365 108 365 108 382 110 c 0,40,41
 401 112 401 112 420 113 c 0,42,43
 440 115 440 115 453 120 c 128,-1,44
 466 125 466 125 471 145 c 2,45,-1
 555 559 l 1,46,-1
 326 1239 l 2,47,48
 321 1256 321 1256 307 1259 c 128,-1,49
 293 1262 293 1262 274 1264 c 1,50,51
 259 1264 259 1264 241 1266 c 0,52,53
 226 1267 226 1267 207.5 1268.5 c 128,-1,54
 189 1270 189 1270 172 1272 c 1,0,-1
EndSplineSet
EndChar

StartChar: Z
Encoding: 90 90 61
Width: 1237
GlyphClass: 2
Flags: W
LayerCount: 2
Fore
SplineSet
-43 0 m 1,0,-1
 -23 100 l 1,1,-1
 928 1247 l 1,2,-1
 502 1247 l 2,3,4
 486 1247 486 1247 467.5 1240.5 c 128,-1,5
 449 1234 449 1234 444 1219 c 2,6,-1
 379 1001 l 1,7,-1
 207 1001 l 1,8,-1
 281 1374 l 1,9,-1
 1307 1374 l 1,10,-1
 1286 1272 l 1,11,-1
 332 127 l 1,12,-1
 836 127 l 2,13,14
 851 127 851 127 869.5 135.5 c 128,-1,15
 888 144 888 144 893 158 c 1,16,-1
 967 424 l 1,17,-1
 1139 424 l 1,18,-1
 1057 0 l 1,19,-1
 -43 0 l 1,0,-1
EndSplineSet
EndChar

StartChar: bracketleft
Encoding: 91 91 62
Width: 918
GlyphClass: 2
Flags: W
LayerCount: 2
Fore
SplineSet
111 -270 m 1,0,-1
 451 1450 l 1,1,-1
 1020 1450 l 1,2,-1
 995 1327 l 1,3,-1
 682 1327 l 1,4,-1
 387 -152 l 1,5,-1
 702 -152 l 1,6,-1
 678 -270 l 1,7,-1
 111 -270 l 1,0,-1
EndSplineSet
EndChar

StartChar: backslash
Encoding: 92 92 63
Width: 1012
GlyphClass: 2
Flags: W
LayerCount: 2
Fore
SplineSet
0 1374 m 1,0,-1
 160 1374 l 1,1,-1
 1012 -190 l 1,2,-1
 852 -190 l 1,3,-1
 0 1374 l 1,0,-1
EndSplineSet
EndChar

StartChar: bracketright
Encoding: 93 93 64
Width: 918
GlyphClass: 2
Flags: W
LayerCount: 2
Fore
SplineSet
-84 -270 m 1,0,-1
 -59 -152 l 1,1,-1
 256 -152 l 1,2,-1
 549 1327 l 1,3,-1
 233 1327 l 1,4,-1
 258 1450 l 1,5,-1
 825 1450 l 1,6,-1
 485 -270 l 1,7,-1
 -84 -270 l 1,0,-1
EndSplineSet
EndChar

StartChar: asciicircum
Encoding: 94 94 65
Width: 696
GlyphClass: 2
Flags: W
LayerCount: 2
Fore
SplineSet
117 1128 m 1,0,-1
 414 1479 l 1,1,-1
 655 1479 l 1,2,-1
 813 1128 l 1,3,-1
 641 1128 l 1,4,-1
 504 1323 l 1,5,-1
 287 1128 l 1,6,-1
 117 1128 l 1,0,-1
EndSplineSet
EndChar

StartChar: underscore
Encoding: 95 95 66
Width: 700
GlyphClass: 2
Flags: W
LayerCount: 2
Fore
SplineSet
-163 -340 m 1,0,-1
 -130 -175 l 1,1,-1
 570 -175 l 1,2,-1
 537 -340 l 1,3,-1
 -163 -340 l 1,0,-1
EndSplineSet
EndChar

StartChar: grave
Encoding: 96 96 67
Width: 868
GlyphClass: 2
Flags: W
LayerCount: 2
Fore
SplineSet
174 1395 m 0,0,1
 174 1413 174 1413 180 1432.5 c 128,-1,2
 186 1452 186 1452 199.5 1467.5 c 128,-1,3
 213 1483 213 1483 235.5 1493 c 128,-1,4
 258 1503 258 1503 291 1503 c 0,5,6
 312 1503 312 1503 328 1500 c 128,-1,7
 344 1497 344 1497 358.5 1489.5 c 128,-1,8
 373 1482 373 1482 387.5 1469.5 c 128,-1,9
 402 1457 402 1457 420 1438 c 2,10,-1
 700 1128 l 1,11,-1
 557 1128 l 1,12,-1
 225 1309 l 2,13,14
 214 1315 214 1315 205 1325.5 c 128,-1,15
 196 1336 196 1336 189 1348 c 128,-1,16
 182 1360 182 1360 178 1372.5 c 128,-1,17
 174 1385 174 1385 174 1395 c 0,0,1
EndSplineSet
EndChar

StartChar: a
Encoding: 97 97 68
Width: 1347
GlyphClass: 2
Flags: W
LayerCount: 2
Fore
SplineSet
-93 0 m 1,0,-1
 -93 98 l 1,1,-1
 15 108 l 1,2,-1
 15 104 l 1,3,-1
 701 1147 l 1,4,-1
 915 1147 l 1,5,-1
 1118 126 l 2,6,7
 1120 115 1120 115 1127 111 c 128,-1,8
 1134 107 1134 107 1155 105 c 2,9,-1
 1239 98 l 1,10,-1
 1239 0 l 1,11,-1
 728 0 l 1,12,-1
 728 98 l 1,13,14
 742 99 742 99 757 100.5 c 128,-1,15
 772 102 772 102 784 104 c 0,16,17
 798 106 798 106 812 107 c 0,18,19
 830 108 830 108 840 110.5 c 128,-1,20
 850 113 850 113 848 121 c 2,21,-1
 794 423 l 1,22,-1
 794 417 l 1,23,-1
 445 417 l 1,24,-1
 445 421 l 1,25,-1
 263 119 l 2,26,27
 256 109 256 109 286 107 c 0,28,29
 300 106 300 106 317 104 c 0,30,31
 331 102 331 102 348.5 100.5 c 128,-1,32
 366 99 366 99 383 98 c 1,33,-1
 383 0 l 1,34,-1
 -93 0 l 1,0,-1
513 526 m 1,35,-1
 772 526 l 1,36,-1
 713 836 l 1,37,-1
 713 833 l 1,38,-1
 513 526 l 1,35,-1
EndSplineSet
EndChar

StartChar: b
Encoding: 98 98 69
Width: 1223
GlyphClass: 2
Flags: W
LayerCount: 2
Fore
SplineSet
-22 0 m 1,0,-1
 -22 98 l 1,1,2
 0 100 0 100 20.5 101 c 128,-1,3
 41 102 41 102 58 104 c 0,4,5
 77 106 77 106 94 107 c 0,6,7
 111 107 111 107 119 110 c 128,-1,8
 127 113 127 113 129 125 c 2,9,-1
 321 999 l 1,10,11
 321 1012 321 1012 292 1014 c 0,12,13
 275 1015 275 1015 257 1017 c 0,14,15
 241 1019 241 1019 221 1020 c 128,-1,16
 201 1021 201 1021 181 1023 c 1,17,-1
 181 1120 l 1,18,-1
 739 1120 l 2,19,20
 856 1120 856 1120 934 1102.5 c 128,-1,21
 1012 1085 1012 1085 1058.5 1055 c 128,-1,22
 1105 1025 1105 1025 1124.5 984.5 c 128,-1,23
 1144 944 1144 944 1144 897 c 0,24,25
 1144 838 1144 838 1124.5 792 c 128,-1,26
 1105 746 1105 746 1069.5 710 c 128,-1,27
 1034 674 1034 674 986 647 c 128,-1,28
 938 620 938 620 881 599 c 1,29,30
 987 577 987 577 1047 525.5 c 128,-1,31
 1107 474 1107 474 1107 380 c 0,32,33
 1107 279 1107 279 1065.5 207.5 c 128,-1,34
 1024 136 1024 136 948 89.5 c 128,-1,35
 872 43 872 43 764 21.5 c 128,-1,36
 656 0 656 0 523 0 c 2,37,-1
 -22 0 l 1,0,-1
390 108 m 1,38,39
 410 107 410 107 429 107 c 2,40,-1
 462 107 l 2,41,42
 544 107 544 107 611 123 c 128,-1,43
 678 139 678 139 726 171 c 128,-1,44
 774 203 774 203 800.5 251 c 128,-1,45
 827 299 827 299 827 363 c 0,46,47
 827 411 827 411 807 442.5 c 128,-1,48
 787 474 787 474 753.5 492.5 c 128,-1,49
 720 511 720 511 676 518.5 c 128,-1,50
 632 526 632 526 583 526 c 0,51,52
 560 526 560 526 534 525 c 128,-1,53
 508 524 508 524 482 522 c 1,54,-1
 482 528 l 1,55,56
 459 420 459 420 436 318.5 c 128,-1,57
 413 217 413 217 390 108 c 1,38,39
506 633 m 1,58,59
 521 631 521 631 533 631 c 2,60,-1
 550 631 l 2,61,62
 619 631 619 631 676 650 c 128,-1,63
 733 669 733 669 774 703 c 128,-1,64
 815 737 815 737 837.5 784 c 128,-1,65
 860 831 860 831 860 886 c 0,66,67
 860 923 860 923 842.5 948.5 c 128,-1,68
 825 974 825 974 796 989.5 c 128,-1,69
 767 1005 767 1005 729 1011.5 c 128,-1,70
 691 1018 691 1018 649 1018 c 2,71,-1
 633 1018 l 2,72,73
 625 1018 625 1018 617 1017 c 0,74,75
 610 1017 610 1017 603.5 1016.5 c 128,-1,76
 597 1016 597 1016 591 1016 c 1,77,-1
 591 1023 l 1,78,-1
 506 633 l 1,58,59
EndSplineSet
EndChar

StartChar: c
Encoding: 99 99 70
Width: 1266
GlyphClass: 2
Flags: W
LayerCount: 2
Fore
SplineSet
96 449 m 256,0,1
 96 535 96 535 120 620 c 128,-1,2
 144 705 144 705 190 782.5 c 128,-1,3
 236 860 236 860 303 926.5 c 128,-1,4
 370 993 370 993 457 1042 c 128,-1,5
 544 1091 544 1091 649.5 1119 c 128,-1,6
 755 1147 755 1147 877 1147 c 0,7,8
 930 1147 930 1147 978.5 1142 c 128,-1,9
 1027 1137 1027 1137 1075 1127.5 c 128,-1,10
 1123 1118 1123 1118 1172.5 1105 c 128,-1,11
 1222 1092 1222 1092 1277 1077 c 1,12,-1
 1217 772 l 1,13,-1
 1082 772 l 1,14,-1
 1084 965 l 2,15,16
 1085 972 1085 972 1078 981.5 c 128,-1,17
 1071 991 1071 991 1059 993 c 1,18,19
 1052 997 1052 997 1032 1003.5 c 128,-1,20
 1012 1010 1012 1010 986.5 1016 c 128,-1,21
 961 1022 961 1022 934 1026.5 c 128,-1,22
 907 1031 907 1031 886 1031 c 0,23,24
 827 1031 827 1031 766 1012.5 c 128,-1,25
 705 994 705 994 647.5 959 c 128,-1,26
 590 924 590 924 539.5 872.5 c 128,-1,27
 489 821 489 821 451 754 c 128,-1,28
 413 687 413 687 391 605.5 c 128,-1,29
 369 524 369 524 369 430 c 0,30,31
 369 338 369 338 399.5 273.5 c 128,-1,32
 430 209 430 209 479 168.5 c 128,-1,33
 528 128 528 128 588.5 109 c 128,-1,34
 649 90 649 90 708 90 c 0,35,36
 728 90 728 90 752 92.5 c 128,-1,37
 776 95 776 95 798 98.5 c 128,-1,38
 820 102 820 102 838 106.5 c 128,-1,39
 856 111 856 111 864 115 c 1,40,41
 878 116 878 116 885 122.5 c 128,-1,42
 892 129 892 129 895 137 c 1,43,-1
 895 136 l 1,44,-1
 985 358 l 1,45,-1
 1124 358 l 1,46,-1
 1064 45 l 1,47,48
 1028 34 1028 34 982.5 21.5 c 128,-1,49
 937 9 937 9 884 -1.5 c 128,-1,50
 831 -12 831 -12 771.5 -19 c 128,-1,51
 712 -26 712 -26 648 -26 c 0,52,53
 492 -26 492 -26 386.5 16 c 128,-1,54
 281 58 281 58 216.5 126 c 128,-1,55
 152 194 152 194 124 278.5 c 128,-1,56
 96 363 96 363 96 449 c 256,0,1
EndSplineSet
EndChar

StartChar: d
Encoding: 100 100 71
Width: 1343
GlyphClass: 2
Flags: W
LayerCount: 2
Fore
SplineSet
-21 0 m 1,0,-1
 -21 98 l 1,1,2
 -1 100 -1 100 18.5 101 c 128,-1,3
 38 102 38 102 54 103 c 0,4,5
 72 104 72 104 89 105 c 0,6,7
 112 107 112 107 119.5 110.5 c 128,-1,8
 127 114 127 114 130 126 c 2,9,-1
 322 999 l 1,10,11
 321 1006 321 1006 312 1009.5 c 128,-1,12
 303 1013 303 1013 289 1014 c 0,13,14
 273 1015 273 1015 255 1017 c 0,15,16
 240 1019 240 1019 221 1020 c 128,-1,17
 202 1021 202 1021 182 1023 c 1,18,-1
 182 1120 l 1,19,-1
 661 1120 l 2,20,21
 805 1120 805 1120 921 1096 c 128,-1,22
 1037 1072 1037 1072 1119 1020.5 c 128,-1,23
 1201 969 1201 969 1245.5 887 c 128,-1,24
 1290 805 1290 805 1290 690 c 0,25,26
 1290 541 1290 541 1232 414.5 c 128,-1,27
 1174 288 1174 288 1066 196 c 128,-1,28
 958 104 958 104 802.5 52 c 128,-1,29
 647 0 647 0 452 0 c 2,30,-1
 -21 0 l 1,0,-1
392 118 m 1,31,-1
 484 118 l 1,32,33
 603 122 603 122 700.5 171 c 128,-1,34
 798 220 798 220 867.5 300 c 128,-1,35
 937 380 937 380 975 484.5 c 128,-1,36
 1013 589 1013 589 1013 704 c 0,37,38
 1013 768 1013 768 996.5 815 c 128,-1,39
 980 862 980 862 951 895 c 128,-1,40
 922 928 922 928 883.5 949 c 128,-1,41
 845 970 845 970 801 982 c 128,-1,42
 757 994 757 994 709 999 c 128,-1,43
 661 1004 661 1004 615 1005 c 1,44,-1
 590 1005 l 1,45,-1
 590 1012 l 1,46,47
 540 785 540 785 491 565 c 128,-1,48
 442 345 442 345 392 118 c 1,31,-1
EndSplineSet
EndChar

StartChar: e
Encoding: 101 101 72
Width: 1131
GlyphClass: 2
Flags: W
LayerCount: 2
Fore
SplineSet
-22 0 m 1,0,-1
 -22 98 l 1,1,2
 -1 100 -1 100 18.5 101 c 128,-1,3
 38 102 38 102 54 104 c 0,4,5
 72 106 72 106 88 107 c 0,6,7
 111 108 111 108 119 111.5 c 128,-1,8
 127 115 127 115 129 126 c 2,9,-1
 321 999 l 2,10,11
 323 1007 323 1007 314 1010 c 128,-1,12
 305 1013 305 1013 288 1014 c 0,13,14
 272 1015 272 1015 254 1017 c 0,15,16
 239 1019 239 1019 220.5 1020 c 128,-1,17
 202 1021 202 1021 183 1023 c 1,18,-1
 183 1120 l 1,19,-1
 1158 1120 l 1,20,-1
 1095 845 l 1,21,-1
 949 845 l 1,22,-1
 949 992 l 2,23,24
 949 1000 949 1000 935.5 1002.5 c 128,-1,25
 922 1005 922 1005 906 1005 c 2,26,-1
 589 1005 l 1,27,-1
 589 1012 l 1,28,29
 569 916 569 916 548.5 826 c 128,-1,30
 528 736 528 736 508 640 c 1,31,-1
 715 640 l 2,32,33
 729 640 729 640 746.5 644.5 c 128,-1,34
 764 649 764 649 766 659 c 1,35,-1
 808 780 l 1,36,-1
 942 780 l 1,37,-1
 854 377 l 1,38,-1
 718 377 l 1,39,-1
 737 511 l 2,40,41
 738 516 738 516 723 519.5 c 128,-1,42
 708 523 708 523 696 523 c 2,43,-1
 484 523 l 1,44,-1
 484 530 l 1,45,-1
 395 115 l 1,46,-1
 785 115 l 2,47,48
 800 115 800 115 817 120.5 c 128,-1,49
 834 126 834 126 837 134 c 1,50,-1
 837 133 l 1,51,52
 851 174 851 174 867.5 217.5 c 128,-1,53
 884 261 884 261 898 303 c 1,54,-1
 1043 303 l 1,55,-1
 975 0 l 1,56,-1
 -22 0 l 1,0,-1
EndSplineSet
EndChar

StartChar: f
Encoding: 102 102 73
Width: 1048
GlyphClass: 2
Flags: W
LayerCount: 2
Fore
SplineSet
-22 0 m 1,0,-1
 -22 98 l 1,1,2
 -3 100 -3 100 16 101 c 128,-1,3
 35 102 35 102 50 104 c 0,4,5
 68 106 68 106 83 107 c 0,6,7
 104 108 104 108 115 111.5 c 128,-1,8
 126 115 126 115 129 126 c 2,9,-1
 321 999 l 1,10,11
 320 1006 320 1006 310.5 1009.5 c 128,-1,12
 301 1013 301 1013 286 1014 c 0,13,14
 270 1015 270 1015 252 1017 c 0,15,16
 237 1019 237 1019 218.5 1020 c 128,-1,17
 200 1021 200 1021 181 1023 c 1,18,-1
 181 1120 l 1,19,-1
 1137 1120 l 1,20,-1
 1074 827 l 1,21,-1
 926 827 l 1,22,-1
 926 992 l 2,23,24
 926 1000 926 1000 912 1002.5 c 128,-1,25
 898 1005 898 1005 883 1005 c 2,26,-1
 589 1005 l 1,27,-1
 589 1012 l 1,28,-1
 504 624 l 1,29,-1
 698 624 l 2,30,31
 712 624 712 624 729 628 c 128,-1,32
 746 632 746 632 750 640 c 1,33,34
 758 670 758 670 768.5 703 c 128,-1,35
 779 736 779 736 788 765 c 1,36,-1
 926 765 l 1,37,-1
 837 361 l 1,38,-1
 698 361 l 1,39,-1
 720 493 l 1,40,41
 719 500 719 500 705 503.5 c 128,-1,42
 691 507 691 507 677 507 c 2,43,-1
 480 507 l 1,44,-1
 480 513 l 1,45,-1
 394 121 l 1,46,47
 395 109 395 109 429 107 c 0,48,49
 447 106 447 106 466 104 c 0,50,51
 483 102 483 102 504 101 c 128,-1,52
 525 100 525 100 548 98 c 1,53,-1
 548 0 l 1,54,-1
 -22 0 l 1,0,-1
EndSplineSet
EndChar

StartChar: g
Encoding: 103 103 74
Width: 1375
GlyphClass: 2
Flags: W
LayerCount: 2
Fore
SplineSet
96 451 m 0,0,1
 96 555 96 555 127 647 c 128,-1,2
 158 739 158 739 213.5 816 c 128,-1,3
 269 893 269 893 346 954.5 c 128,-1,4
 423 1016 423 1016 516 1059 c 128,-1,5
 609 1102 609 1102 714 1124.5 c 128,-1,6
 819 1147 819 1147 930 1147 c 0,7,8
 982 1147 982 1147 1027 1143 c 128,-1,9
 1072 1139 1072 1139 1117 1131.5 c 128,-1,10
 1162 1124 1162 1124 1210 1112.5 c 128,-1,11
 1258 1101 1258 1101 1315 1085 c 1,12,-1
 1243 770 l 1,13,-1
 1087 770 l 1,14,-1
 1105 965 l 2,15,16
 1105 969 1105 969 1100.5 973.5 c 128,-1,17
 1096 978 1096 978 1088.5 982 c 128,-1,18
 1081 986 1081 986 1072.5 989 c 128,-1,19
 1064 992 1064 992 1056 995 c 1,20,21
 1052 995 1052 995 1046 998 c 0,22,23
 1035 1002 1035 1002 1019.5 1006.5 c 128,-1,24
 1004 1011 1004 1011 986 1015.5 c 128,-1,25
 968 1020 968 1020 947.5 1023 c 128,-1,26
 927 1026 927 1026 908 1026 c 0,27,28
 851 1026 851 1026 790 1007.5 c 128,-1,29
 729 989 729 989 670 953.5 c 128,-1,30
 611 918 611 918 558 866.5 c 128,-1,31
 505 815 505 815 464.5 748.5 c 128,-1,32
 424 682 424 682 400.5 601 c 128,-1,33
 377 520 377 520 377 426 c 0,34,35
 377 361 377 361 394.5 311 c 128,-1,36
 412 261 412 261 440.5 224 c 128,-1,37
 469 187 469 187 504.5 162 c 128,-1,38
 540 137 540 137 575.5 121.5 c 128,-1,39
 611 106 611 106 643 99.5 c 128,-1,40
 675 93 675 93 696 93 c 0,41,42
 714 93 714 93 734.5 95.5 c 128,-1,43
 755 98 755 98 775.5 101.5 c 128,-1,44
 796 105 796 105 814 109 c 128,-1,45
 832 113 832 113 844 116 c 1,46,-1
 844 110 l 1,47,-1
 916 435 l 1,48,49
 916 450 916 450 881 453 c 0,50,51
 866 454 866 454 848 455 c 0,52,53
 833 456 833 456 814.5 456.5 c 128,-1,54
 796 457 796 457 777 459 c 1,55,-1
 777 559 l 1,56,-1
 1331 559 l 1,57,-1
 1331 459 l 1,58,-1
 1205 451 l 1,59,60
 1192 449 1192 449 1187 444.5 c 128,-1,61
 1182 440 1182 440 1179 431 c 1,62,-1
 1179 432 l 1,63,-1
 1093 43 l 1,64,65
 1054 33 1054 33 1003.5 21 c 128,-1,66
 953 9 953 9 895.5 -1.5 c 128,-1,67
 838 -12 838 -12 777.5 -19 c 128,-1,68
 717 -26 717 -26 659 -26 c 0,69,70
 541 -26 541 -26 454 -3 c 128,-1,71
 367 20 367 20 304.5 58 c 128,-1,72
 242 96 242 96 201.5 145.5 c 128,-1,73
 161 195 161 195 137.5 248 c 128,-1,74
 114 301 114 301 105 354 c 128,-1,75
 96 407 96 407 96 451 c 0,0,1
EndSplineSet
EndChar

StartChar: h
Encoding: 104 104 75
Width: 1445
GlyphClass: 2
Flags: W
LayerCount: 2
Fore
SplineSet
-20 0 m 1,0,-1
 -20 98 l 1,1,2
 0 100 0 100 20 101 c 128,-1,3
 40 102 40 102 56 104 c 0,4,5
 74 106 74 106 90 107 c 0,6,7
 111 108 111 108 120 111.5 c 128,-1,8
 129 115 129 115 131 126 c 2,9,-1
 323 999 l 1,10,11
 323 1012 323 1012 288 1014 c 0,12,13
 273 1015 273 1015 255 1017 c 0,14,15
 240 1019 240 1019 221.5 1020 c 128,-1,16
 203 1021 203 1021 183 1023 c 1,17,-1
 183 1120 l 1,18,-1
 741 1120 l 1,19,-1
 741 1023 l 1,20,21
 719 1021 719 1021 699 1020 c 128,-1,22
 679 1019 679 1019 662 1017 c 0,23,24
 643 1015 643 1015 626 1014 c 0,25,26
 607 1013 607 1013 598 1009 c 128,-1,27
 589 1005 589 1005 587 994 c 2,28,-1
 510 643 l 1,29,-1
 1006 643 l 1,30,-1
 1006 636 l 1,31,-1
 1086 999 l 1,32,33
 1085 1006 1085 1006 1076 1010 c 128,-1,34
 1067 1014 1067 1014 1047 1016 c 0,35,36
 1031 1017 1031 1017 1013 1018 c 0,37,38
 998 1019 998 1019 979.5 1020 c 128,-1,39
 961 1021 961 1021 943 1023 c 1,40,-1
 943 1120 l 1,41,-1
 1501 1120 l 1,42,-1
 1501 1023 l 1,43,-1
 1384 1013 l 1,44,45
 1352 1009 1352 1009 1351 994 c 1,46,-1
 1158 121 l 1,47,48
 1158 108 1158 108 1190 107 c 0,49,50
 1206 106 1206 106 1224 104 c 0,51,52
 1239 102 1239 102 1259 101 c 128,-1,53
 1279 100 1279 100 1299 98 c 1,54,-1
 1299 0 l 1,55,-1
 739 0 l 1,56,-1
 739 98 l 1,57,58
 760 100 760 100 780.5 101 c 128,-1,59
 801 102 801 102 817 104 c 0,60,61
 835 106 835 106 853 107 c 256,62,63
 871 108 871 108 881.5 111.5 c 128,-1,64
 892 115 892 115 894 126 c 2,65,-1
 983 528 l 1,66,-1
 486 528 l 1,67,-1
 486 535 l 1,68,-1
 396 121 l 2,69,70
 394 114 394 114 400.5 111 c 128,-1,71
 407 108 407 108 429 107 c 0,72,73
 445 106 445 106 463 104 c 0,74,75
 478 102 478 102 497.5 101 c 128,-1,76
 517 100 517 100 537 98 c 1,77,-1
 537 0 l 1,78,-1
 -20 0 l 1,0,-1
EndSplineSet
EndChar

StartChar: i
Encoding: 105 105 76
Width: 671
GlyphClass: 2
Flags: W
LayerCount: 2
Fore
SplineSet
-24 0 m 1,0,-1
 -24 98 l 1,1,2
 -4 99 -4 99 15 100.5 c 128,-1,3
 34 102 34 102 50 103 c 0,4,5
 68 104 68 104 85 105 c 0,6,7
 106 107 106 107 115.5 110 c 128,-1,8
 125 113 125 113 127 125 c 2,9,-1
 319 999 l 2,10,11
 321 1007 321 1007 312 1010 c 128,-1,12
 303 1013 303 1013 286 1014 c 0,13,14
 270 1015 270 1015 252 1017 c 0,15,16
 237 1019 237 1019 218.5 1020 c 128,-1,17
 200 1021 200 1021 181 1023 c 1,18,-1
 181 1120 l 1,19,-1
 739 1120 l 1,20,-1
 739 1023 l 1,21,-1
 612 1014 l 2,22,23
 597 1013 597 1013 591 1007.5 c 128,-1,24
 585 1002 585 1002 583 994 c 2,25,-1
 391 121 l 1,26,27
 391 108 391 108 420 107 c 0,28,29
 437 106 437 106 455 104 c 0,30,31
 471 102 471 102 491.5 101 c 128,-1,32
 512 100 512 100 535 98 c 1,33,-1
 535 0 l 1,34,-1
 -24 0 l 1,0,-1
EndSplineSet
EndChar

StartChar: j
Encoding: 106 106 77
Width: 960
GlyphClass: 2
Flags: W
LayerCount: 2
Fore
SplineSet
-34 31 m 1,0,-1
 33 332 l 1,1,-1
 182 332 l 1,2,-1
 182 116 l 2,3,4
 182 111 182 111 191 106.5 c 128,-1,5
 200 102 200 102 212.5 99 c 128,-1,6
 225 96 225 96 239 94 c 128,-1,7
 253 92 253 92 264 92 c 0,8,9
 345 92 345 92 396 172.5 c 128,-1,10
 447 253 447 253 481 420 c 1,11,-1
 604 999 l 1,12,13
 604 1006 604 1006 594.5 1009.5 c 128,-1,14
 585 1013 585 1013 570 1014 c 0,15,16
 553 1015 553 1015 535 1017 c 0,17,18
 519 1019 519 1019 499.5 1020 c 128,-1,19
 480 1021 480 1021 461 1023 c 1,20,-1
 461 1120 l 1,21,-1
 1018 1120 l 1,22,-1
 1018 1023 l 1,23,-1
 893 1013 l 1,24,25
 879 1013 879 1013 874 1007 c 128,-1,26
 869 1001 869 1001 867 993 c 1,27,-1
 867 994 l 1,28,-1
 749 429 l 2,29,30
 729 334 729 334 698 251 c 128,-1,31
 667 168 667 168 612 106.5 c 128,-1,32
 557 45 557 45 470 9.5 c 128,-1,33
 383 -26 383 -26 250 -26 c 0,34,35
 193 -26 193 -26 147 -19.5 c 128,-1,36
 101 -13 101 -13 66.5 -4 c 128,-1,37
 32 5 32 5 8.5 14 c 128,-1,38
 -15 23 -15 23 -27 28 c 2,39,-1
 -34 31 l 1,0,-1
EndSplineSet
EndChar

StartChar: k
Encoding: 107 107 78
Width: 1316
GlyphClass: 2
Flags: W
LayerCount: 2
Fore
SplineSet
-23 0 m 1,0,-1
 -23 98 l 1,1,2
 -5 99 -5 99 15.5 100.5 c 128,-1,3
 36 102 36 102 53 103 c 2,4,-1
 93 105 l 2,5,6
 108 105 108 105 117.5 109.5 c 128,-1,7
 127 114 127 114 129 126 c 2,8,-1
 322 999 l 2,9,10
 326 1013 326 1013 299 1016 c 0,11,12
 285 1017 285 1017 268 1018 c 0,13,14
 254 1019 254 1019 236 1020 c 128,-1,15
 218 1021 218 1021 201 1023 c 1,16,-1
 201 1120 l 1,17,-1
 724 1120 l 1,18,-1
 724 1023 l 1,19,20
 704 1021 704 1021 686 1020 c 128,-1,21
 668 1019 668 1019 654 1018 c 0,22,23
 637 1017 637 1017 622 1016 c 1,24,25
 608 1014 608 1014 599 1009.5 c 128,-1,26
 590 1005 590 1005 587 994 c 2,27,-1
 509 646 l 1,28,-1
 522 646 l 1,29,-1
 522 644 l 1,30,-1
 937 1004 l 2,31,32
 944 1009 944 1009 938.5 1012 c 128,-1,33
 933 1015 933 1015 921 1016 c 0,34,35
 906 1017 906 1017 889 1018 c 0,36,37
 875 1019 875 1019 857.5 1020 c 128,-1,38
 840 1021 840 1021 824 1023 c 1,39,-1
 824 1120 l 1,40,-1
 1362 1120 l 1,41,-1
 1362 1023 l 1,42,-1
 1200 1009 l 1,43,-1
 1200 1011 l 1,44,-1
 727 610 l 1,45,46
 790 502 790 502 853.5 395.5 c 128,-1,47
 917 289 917 289 980 182 c 0,48,49
 995 156 995 156 1005.5 139.5 c 128,-1,50
 1016 123 1016 123 1026.5 113.5 c 128,-1,51
 1037 104 1037 104 1051 100.5 c 128,-1,52
 1065 97 1065 97 1087 97 c 0,53,54
 1091 97 1091 97 1101 97.5 c 128,-1,55
 1111 98 1111 98 1123 98.5 c 128,-1,56
 1135 99 1135 99 1148.5 99.5 c 128,-1,57
 1162 100 1162 100 1173 101 c 0,58,59
 1185 102 1185 102 1193.5 102.5 c 128,-1,60
 1202 103 1202 103 1203 103 c 1,61,-1
 1203 5 l 1,62,63
 1152 -9 1152 -9 1097.5 -17.5 c 128,-1,64
 1043 -26 1043 -26 992 -26 c 0,65,66
 938 -26 938 -26 899 -18 c 128,-1,67
 860 -10 860 -10 830.5 6.5 c 128,-1,68
 801 23 801 23 779.5 48 c 128,-1,69
 758 73 758 73 738 106 c 2,70,-1
 516 483 l 1,71,-1
 516 479 l 1,72,-1
 474 479 l 1,73,-1
 474 485 l 1,74,-1
 393 121 l 1,75,76
 394 108 394 108 422 105 c 0,77,78
 436 104 436 104 453 103 c 0,79,80
 467 102 467 102 484 100.5 c 128,-1,81
 501 99 501 99 518 98 c 1,82,-1
 518 0 l 1,83,-1
 -23 0 l 1,0,-1
EndSplineSet
EndChar

StartChar: l
Encoding: 108 108 79
Width: 1055
GlyphClass: 2
Flags: W
LayerCount: 2
Fore
SplineSet
-23 0 m 1,0,-1
 -23 98 l 1,1,2
 -4 100 -4 100 15 101 c 128,-1,3
 34 102 34 102 49 103 c 0,4,5
 67 104 67 104 83 105 c 0,6,7
 110 107 110 107 118.5 111 c 128,-1,8
 127 115 127 115 129 126 c 2,9,-1
 320 999 l 2,10,11
 322 1007 322 1007 313.5 1010 c 128,-1,12
 305 1013 305 1013 291 1014 c 0,13,14
 275 1015 275 1015 257 1017 c 0,15,16
 241 1019 241 1019 221.5 1020 c 128,-1,17
 202 1021 202 1021 182 1023 c 1,18,-1
 182 1120 l 1,19,-1
 740 1120 l 1,20,-1
 740 1023 l 1,21,22
 717 1021 717 1021 695.5 1020 c 128,-1,23
 674 1019 674 1019 657 1017 c 0,24,25
 638 1015 638 1015 620 1014 c 0,26,27
 608 1013 608 1013 598 1008 c 128,-1,28
 588 1003 588 1003 584 994 c 1,29,-1
 391 115 l 1,30,-1
 714 115 l 2,31,32
 728 115 728 115 744.5 120 c 128,-1,33
 761 125 761 125 765 133 c 2,34,-1
 844 348 l 1,35,-1
 982 348 l 1,36,-1
 903 0 l 1,37,-1
 -23 0 l 1,0,-1
EndSplineSet
EndChar

StartChar: m
Encoding: 109 109 80
Width: 1703
GlyphClass: 2
Flags: W
LayerCount: 2
Fore
SplineSet
-17 0 m 1,0,-1
 -17 98 l 1,1,2
 2 100 2 100 20 101 c 128,-1,3
 38 102 38 102 53 104 c 0,4,5
 70 106 70 106 86 107 c 0,6,7
 106 108 106 108 119 111.5 c 128,-1,8
 132 115 132 115 134 126 c 2,9,-1
 325 999 l 1,10,11
 325 1012 325 1012 291 1014 c 0,12,13
 275 1015 275 1015 257 1017 c 0,14,15
 242 1019 242 1019 223 1020 c 128,-1,16
 204 1021 204 1021 185 1023 c 1,17,-1
 185 1120 l 1,18,-1
 675 1120 l 1,19,-1
 675 1060 l 1,20,-1
 816 368 l 1,21,-1
 816 371 l 1,22,-1
 1249 1055 l 1,23,-1
 1249 1120 l 1,24,-1
 1754 1120 l 1,25,-1
 1754 1023 l 1,26,-1
 1628 1010 l 1,27,28
 1605 1009 1605 1009 1602 994 c 2,29,-1
 1412 121 l 1,30,31
 1414 108 1414 108 1445 107 c 0,32,33
 1461 106 1461 106 1479 104 c 0,34,35
 1494 102 1494 102 1513 101 c 128,-1,36
 1532 100 1532 100 1552 98 c 1,37,-1
 1552 0 l 1,38,-1
 995 0 l 1,39,-1
 995 98 l 1,40,41
 1016 100 1016 100 1036 101 c 128,-1,42
 1056 102 1056 102 1072 104 c 0,43,44
 1090 106 1090 106 1108 107 c 0,45,46
 1124 107 1124 107 1135 111 c 128,-1,47
 1146 115 1146 115 1148 126 c 2,48,-1
 1284 753 l 1,49,50
 1165 564 1165 564 1044 376.5 c 128,-1,51
 923 189 923 189 804 0 c 1,52,-1
 627 0 l 1,53,-1
 476 748 l 1,54,-1
 344 119 l 2,55,56
 342 114 342 114 350.5 111 c 128,-1,57
 359 108 359 108 370 107 c 0,58,59
 387 106 387 106 405 104 c 0,60,61
 421 102 421 102 441 101 c 128,-1,62
 461 100 461 100 483 98 c 1,63,-1
 483 0 l 1,64,-1
 -17 0 l 1,0,-1
EndSplineSet
EndChar

StartChar: n
Encoding: 110 110 81
Width: 1419
GlyphClass: 2
Flags: W
LayerCount: 2
Fore
SplineSet
-18 0 m 1,0,-1
 -18 98 l 1,1,2
 1 100 1 100 19.5 101 c 128,-1,3
 38 102 38 102 53 104 c 0,4,5
 71 106 71 106 86 107 c 0,6,7
 106 108 106 108 118 111.5 c 128,-1,8
 130 115 130 115 132 126 c 2,9,-1
 323 999 l 2,10,11
 325 1007 325 1007 316 1010 c 128,-1,12
 307 1013 307 1013 290 1014 c 0,13,14
 275 1015 275 1015 257 1017 c 0,15,16
 242 1019 242 1019 223 1020 c 128,-1,17
 204 1021 204 1021 185 1023 c 1,18,-1
 185 1120 l 1,19,-1
 618 1120 l 1,20,-1
 618 1065 l 1,21,-1
 979 394 l 1,22,-1
 979 393 l 1,23,-1
 1114 999 l 1,24,25
 1117 1007 1117 1007 1105 1010 c 128,-1,26
 1093 1013 1093 1013 1078 1014 c 0,27,28
 1062 1015 1062 1015 1044 1017 c 0,29,30
 1029 1019 1029 1019 1010.5 1020 c 128,-1,31
 992 1021 992 1021 973 1023 c 1,32,-1
 973 1120 l 1,33,-1
 1479 1120 l 1,34,-1
 1479 1023 l 1,35,-1
 1359 1013 l 2,36,37
 1347 1011 1347 1011 1338.5 1006.5 c 128,-1,38
 1330 1002 1330 1002 1328 994 c 2,39,-1
 1107 0 l 1,40,-1
 905 0 l 1,41,-1
 489 770 l 1,42,-1
 489 772 l 1,43,44
 454 608 454 608 418 446.5 c 128,-1,45
 382 285 382 285 347 121 c 1,46,47
 349 108 349 108 381 107 c 0,48,49
 396 106 396 106 414 104 c 0,50,51
 429 102 429 102 448 101 c 128,-1,52
 467 100 467 100 487 98 c 1,53,-1
 487 0 l 1,54,-1
 -18 0 l 1,0,-1
EndSplineSet
EndChar

StartChar: o
Encoding: 111 111 82
Width: 1417
GlyphClass: 2
Flags: W
LayerCount: 2
Fore
SplineSet
96 441 m 0,0,1
 96 528 96 528 118 614 c 128,-1,2
 140 700 140 700 182.5 778.5 c 128,-1,3
 225 857 225 857 287.5 924.5 c 128,-1,4
 350 992 350 992 430.5 1041.5 c 128,-1,5
 511 1091 511 1091 609.5 1119 c 128,-1,6
 708 1147 708 1147 822 1147 c 0,7,8
 955 1147 955 1147 1056 1109.5 c 128,-1,9
 1157 1072 1157 1072 1225 1009.5 c 128,-1,10
 1293 947 1293 947 1327 865.5 c 128,-1,11
 1361 784 1361 784 1361 695 c 0,12,13
 1361 609 1361 609 1341 522.5 c 128,-1,14
 1321 436 1321 436 1281 356 c 128,-1,15
 1241 276 1241 276 1180.5 206.5 c 128,-1,16
 1120 137 1120 137 1039.5 85 c 128,-1,17
 959 33 959 33 858.5 3.5 c 128,-1,18
 758 -26 758 -26 637 -26 c 0,19,20
 508 -26 508 -26 407.5 9 c 128,-1,21
 307 44 307 44 237.5 106 c 128,-1,22
 168 168 168 168 132 253.5 c 128,-1,23
 96 339 96 339 96 441 c 0,0,1
383 427 m 0,24,25
 383 344 383 344 407.5 281.5 c 128,-1,26
 432 219 432 219 470.5 177 c 128,-1,27
 509 135 509 135 556.5 113.5 c 128,-1,28
 604 92 604 92 650 92 c 0,29,30
 704 92 704 92 757 117 c 128,-1,31
 810 142 810 142 857 185.5 c 128,-1,32
 904 229 904 229 943.5 287.5 c 128,-1,33
 983 346 983 346 1012 413 c 128,-1,34
 1041 480 1041 480 1057 552 c 128,-1,35
 1073 624 1073 624 1073 695 c 0,36,37
 1073 776 1073 776 1049 838.5 c 128,-1,38
 1025 901 1025 901 987 944 c 128,-1,39
 949 987 949 987 901 1009.5 c 128,-1,40
 853 1032 853 1032 805 1032 c 0,41,42
 750 1032 750 1032 697.5 1007.5 c 128,-1,43
 645 983 645 983 598 940 c 128,-1,44
 551 897 551 897 511.5 839 c 128,-1,45
 472 781 472 781 443.5 714 c 128,-1,46
 415 647 415 647 399 573.5 c 128,-1,47
 383 500 383 500 383 427 c 0,24,25
EndSplineSet
EndChar

StartChar: p
Encoding: 112 112 83
Width: 1145
GlyphClass: 2
Flags: W
LayerCount: 2
Fore
SplineSet
-26 0 m 1,0,-1
 -26 98 l 1,1,2
 -6 100 -6 100 13 101 c 128,-1,3
 32 102 32 102 47 104 c 0,4,5
 65 106 65 106 81 107 c 0,6,7
 101 108 101 108 111.5 111.5 c 128,-1,8
 122 115 122 115 125 126 c 0,9,10
 173 343 173 343 222.5 562.5 c 128,-1,11
 272 782 272 782 319 999 c 1,12,13
 319 1006 319 1006 309 1009.5 c 128,-1,14
 299 1013 299 1013 284 1014 c 0,15,16
 268 1015 268 1015 250 1017 c 0,17,18
 235 1019 235 1019 216.5 1020 c 128,-1,19
 198 1021 198 1021 179 1023 c 1,20,-1
 179 1120 l 1,21,-1
 677 1120 l 2,22,23
 809 1120 809 1120 897 1098 c 128,-1,24
 985 1076 985 1076 1038.5 1038.5 c 128,-1,25
 1092 1001 1092 1001 1114.5 951 c 128,-1,26
 1137 901 1137 901 1137 844 c 0,27,28
 1137 746 1137 746 1095 665.5 c 128,-1,29
 1053 585 1053 585 974.5 527.5 c 128,-1,30
 896 470 896 470 784.5 438.5 c 128,-1,31
 673 407 673 407 535 407 c 2,32,-1
 498 407 l 2,33,34
 476 407 476 407 456 408 c 1,35,-1
 456 415 l 1,36,37
 440 341 440 341 423 268 c 128,-1,38
 406 195 406 195 390 121 c 1,39,40
 391 116 391 116 398.5 112 c 128,-1,41
 406 108 406 108 423 107 c 0,42,43
 439 106 439 106 457 104 c 0,44,45
 472 102 472 102 492 101 c 128,-1,46
 512 100 512 100 532 98 c 1,47,-1
 532 0 l 1,48,-1
 -26 0 l 1,0,-1
478 523 m 1,49,50
 483 523 483 523 489 523 c 0,51,52
 539 523 539 523 593 532 c 0,53,54
 653 541 653 541 709 572 c 1,55,56
 743 589 743 589 772 613 c 128,-1,57
 801 637 801 637 822.5 667.5 c 128,-1,58
 844 698 844 698 856 735.5 c 128,-1,59
 868 773 868 773 868 818 c 0,60,61
 868 912 868 912 805.5 961 c 128,-1,62
 743 1010 743 1010 621 1010 c 2,63,-1
 589 1010 l 1,64,-1
 589 1017 l 1,65,66
 561 891 561 891 533.5 770 c 128,-1,67
 506 649 506 649 478 523 c 1,49,50
EndSplineSet
EndChar

StartChar: q
Encoding: 113 113 84
Width: 1417
GlyphClass: 2
Flags: W
LayerCount: 2
Fore
SplineSet
92 434 m 0,0,1
 92 517 92 517 114 602.5 c 128,-1,2
 136 688 136 688 179 767.5 c 128,-1,3
 222 847 222 847 285 916 c 128,-1,4
 348 985 348 985 429 1036.5 c 128,-1,5
 510 1088 510 1088 609 1117.5 c 128,-1,6
 708 1147 708 1147 823 1147 c 0,7,8
 955 1147 955 1147 1055 1111 c 128,-1,9
 1155 1075 1155 1075 1222.5 1013 c 128,-1,10
 1290 951 1290 951 1324.5 868.5 c 128,-1,11
 1359 786 1359 786 1359 693 c 0,12,13
 1359 649 1359 649 1353 595.5 c 128,-1,14
 1347 542 1347 542 1331.5 484 c 128,-1,15
 1316 426 1316 426 1288 366 c 128,-1,16
 1260 306 1260 306 1215.5 248 c 128,-1,17
 1171 190 1171 190 1108 137 c 128,-1,18
 1045 84 1045 84 960 40 c 1,19,-1
 983 4 l 1,20,21
 1001 -28 1001 -28 1017.5 -53.5 c 128,-1,22
 1034 -79 1034 -79 1054.5 -97 c 128,-1,23
 1075 -115 1075 -115 1101.5 -125 c 128,-1,24
 1128 -135 1128 -135 1167 -135 c 0,25,26
 1192 -135 1192 -135 1217.5 -130 c 128,-1,27
 1243 -125 1243 -125 1272.5 -115 c 128,-1,28
 1302 -105 1302 -105 1338 -91 c 128,-1,29
 1374 -77 1374 -77 1419 -59 c 1,30,-1
 1419 -177 l 1,31,32
 1407 -183 1407 -183 1369.5 -197 c 128,-1,33
 1332 -211 1332 -211 1282 -225.5 c 128,-1,34
 1232 -240 1232 -240 1175.5 -251.5 c 128,-1,35
 1119 -263 1119 -263 1068 -263 c 0,36,37
 983 -263 983 -263 923 -243 c 128,-1,38
 863 -223 863 -223 819.5 -189.5 c 128,-1,39
 776 -156 776 -156 746 -112.5 c 128,-1,40
 716 -69 716 -69 691 -21 c 1,41,-1
 691 -26 l 1,42,43
 678 -28 678 -28 663 -29 c 128,-1,44
 648 -30 648 -30 631 -30 c 0,45,46
 512 -30 512 -30 412.5 2.5 c 128,-1,47
 313 35 313 35 242 95 c 128,-1,48
 171 155 171 155 131.5 241 c 128,-1,49
 92 327 92 327 92 434 c 0,0,1
377 426 m 256,50,51
 377 349 377 349 399.5 287 c 128,-1,52
 422 225 422 225 459.5 181 c 128,-1,53
 497 137 497 137 546 113 c 128,-1,54
 595 89 595 89 649 89 c 0,55,56
 702 89 702 89 754.5 113.5 c 128,-1,57
 807 138 807 138 854 181.5 c 128,-1,58
 901 225 901 225 941.5 283 c 128,-1,59
 982 341 982 341 1011.5 408.5 c 128,-1,60
 1041 476 1041 476 1057.5 548.5 c 128,-1,61
 1074 621 1074 621 1074 693 c 0,62,63
 1074 771 1074 771 1051.5 833.5 c 128,-1,64
 1029 896 1029 896 992 940 c 128,-1,65
 955 984 955 984 908.5 1007.5 c 128,-1,66
 862 1031 862 1031 814 1031 c 0,67,68
 758 1031 758 1031 704 1007.5 c 128,-1,69
 650 984 650 984 601.5 942.5 c 128,-1,70
 553 901 553 901 512 844 c 128,-1,71
 471 787 471 787 441 719.5 c 128,-1,72
 411 652 411 652 394 577.5 c 128,-1,73
 377 503 377 503 377 426 c 256,50,51
EndSplineSet
EndChar

StartChar: r
Encoding: 114 114 85
Width: 1287
GlyphClass: 2
Flags: W
LayerCount: 2
Fore
SplineSet
-18 0 m 1,0,-1
 -18 98 l 1,1,2
 2 99 2 99 21.5 100.5 c 128,-1,3
 41 102 41 102 57 103 c 0,4,5
 75 104 75 104 91 105 c 0,6,7
 108 107 108 107 119.5 111 c 128,-1,8
 131 115 131 115 133 126 c 0,9,10
 178 340 178 340 227 562.5 c 128,-1,11
 276 785 276 785 322 999 c 0,12,13
 324 1007 324 1007 315.5 1010 c 128,-1,14
 307 1013 307 1013 290 1014 c 0,15,16
 274 1015 274 1015 256 1017 c 0,17,18
 241 1019 241 1019 222 1020 c 128,-1,19
 203 1021 203 1021 184 1023 c 1,20,-1
 184 1120 l 1,21,-1
 717 1120 l 2,22,23
 810 1120 810 1120 890 1106.5 c 128,-1,24
 970 1093 970 1093 1029 1063 c 128,-1,25
 1088 1033 1088 1033 1122 984.5 c 128,-1,26
 1156 936 1156 936 1156 866 c 0,27,28
 1156 801 1156 801 1130 748 c 128,-1,29
 1104 695 1104 695 1057.5 653 c 128,-1,30
 1011 611 1011 611 947.5 579.5 c 128,-1,31
 884 548 884 548 810 527 c 1,32,33
 853 506 853 506 881 478.5 c 128,-1,34
 909 451 909 451 927.5 418.5 c 128,-1,35
 946 386 946 386 958.5 348 c 128,-1,36
 971 310 971 310 983 268 c 0,37,38
 994 228 994 228 1006.5 196.5 c 128,-1,39
 1019 165 1019 165 1043 143 c 128,-1,40
 1067 121 1067 121 1109 109.5 c 128,-1,41
 1151 98 1151 98 1220 98 c 1,42,-1
 1220 6 l 1,43,44
 1177 -11 1177 -11 1136 -18.5 c 128,-1,45
 1095 -26 1095 -26 1046 -26 c 0,46,47
 962 -26 962 -26 907 -8 c 128,-1,48
 852 10 852 10 816.5 44.5 c 128,-1,49
 781 79 781 79 760.5 130.5 c 128,-1,50
 740 182 740 182 725 248 c 1,51,-1
 720 266 l 2,52,53
 711 299 711 299 698 337 c 128,-1,54
 685 375 685 375 664 407 c 128,-1,55
 643 439 643 439 611.5 460 c 128,-1,56
 580 481 580 481 535 481 c 0,57,58
 529 481 529 481 523 480.5 c 128,-1,59
 517 480 517 480 509 480 c 1,60,61
 502 479 502 479 492 479 c 2,62,-1
 475 479 l 1,63,-1
 475 485 l 1,64,65
 456 394 456 394 436 303.5 c 128,-1,66
 416 213 416 213 397 121 c 1,67,68
 397 108 397 108 427 107 c 0,69,70
 444 106 444 106 462 104 c 0,71,72
 478 102 478 102 498.5 100.5 c 128,-1,73
 519 99 519 99 540 98 c 1,74,-1
 540 0 l 1,75,-1
 -18 0 l 1,0,-1
501 595 m 1,76,-1
 513 595 l 2,77,78
 521 595 521 595 529 596 c 0,79,80
 537 596 537 596 546 597 c 0,81,82
 598 599 598 599 655.5 612 c 128,-1,83
 713 625 713 625 760.5 653 c 128,-1,84
 808 681 808 681 839 726.5 c 128,-1,85
 870 772 870 772 870 840 c 0,86,87
 870 878 870 878 856.5 906 c 128,-1,88
 843 934 843 934 822 953 c 128,-1,89
 801 972 801 972 774.5 983.5 c 128,-1,90
 748 995 748 995 722 1001 c 128,-1,91
 696 1007 696 1007 673 1008.5 c 128,-1,92
 650 1010 650 1010 636 1009 c 2,93,-1
 590 1005 l 1,94,-1
 590 1012 l 1,95,-1
 501 595 l 1,76,-1
EndSplineSet
EndChar

StartChar: s
Encoding: 115 115 86
Width: 1061
GlyphClass: 2
Flags: W
LayerCount: 2
Fore
SplineSet
-6 68 m 1,0,-1
 62 352 l 1,1,-1
 219 352 l 1,2,-1
 197 147 l 2,3,4
 196 143 196 143 221 134 c 128,-1,5
 246 125 246 125 281.5 115.5 c 128,-1,6
 317 106 317 106 354.5 99 c 128,-1,7
 392 92 392 92 416 92 c 0,8,9
 457 92 457 92 502.5 105.5 c 128,-1,10
 548 119 548 119 586.5 146.5 c 128,-1,11
 625 174 625 174 650 215.5 c 128,-1,12
 675 257 675 257 675 312 c 0,13,14
 675 345 675 345 653.5 372 c 128,-1,15
 632 399 632 399 599 421.5 c 128,-1,16
 566 444 566 444 527 462.5 c 128,-1,17
 488 481 488 481 454 496 c 2,18,-1
 419 511 l 2,19,20
 369 533 369 533 322.5 558 c 128,-1,21
 276 583 276 583 240 614 c 128,-1,22
 204 645 204 645 182 684 c 128,-1,23
 160 723 160 723 160 775 c 0,24,25
 160 856 160 856 195.5 924 c 128,-1,26
 231 992 231 992 298.5 1041.5 c 128,-1,27
 366 1091 366 1091 462 1119 c 128,-1,28
 558 1147 558 1147 680 1147 c 0,29,30
 741 1147 741 1147 793.5 1140.5 c 128,-1,31
 846 1134 846 1134 890 1124.5 c 128,-1,32
 934 1115 934 1115 970 1103 c 128,-1,33
 1006 1091 1006 1091 1034 1079 c 1,34,-1
 967 809 l 1,35,-1
 828 809 l 1,36,-1
 836 988 l 2,37,38
 836 991 836 991 819 998.5 c 128,-1,39
 802 1006 802 1006 776 1013.5 c 128,-1,40
 750 1021 750 1021 720 1027 c 128,-1,41
 690 1033 690 1033 664 1033 c 0,42,43
 628 1033 628 1033 586.5 1019.5 c 128,-1,44
 545 1006 545 1006 509.5 979.5 c 128,-1,45
 474 953 474 953 450 915.5 c 128,-1,46
 426 878 426 878 426 830 c 0,47,48
 426 795 426 795 448.5 766 c 128,-1,49
 471 737 471 737 504.5 713 c 128,-1,50
 538 689 538 689 578.5 670.5 c 128,-1,51
 619 652 619 652 655 637 c 0,52,53
 660 635 660 635 669 631.5 c 128,-1,54
 678 628 678 628 684 626 c 0,55,56
 733 604 733 604 780 579 c 128,-1,57
 827 554 827 554 864 521.5 c 128,-1,58
 901 489 901 489 923 447 c 128,-1,59
 945 405 945 405 945 348 c 256,60,61
 945 291 945 291 918 225.5 c 128,-1,62
 891 160 891 160 827 104 c 128,-1,63
 763 48 763 48 656 11 c 128,-1,64
 549 -26 549 -26 389 -26 c 0,65,66
 314 -26 314 -26 248 -14 c 128,-1,67
 182 -2 182 -2 130 14 c 128,-1,68
 78 30 78 30 42.5 45.5 c 128,-1,69
 7 61 7 61 -6 68 c 1,0,-1
EndSplineSet
EndChar

StartChar: t
Encoding: 116 116 87
Width: 1183
GlyphClass: 2
Flags: W
LayerCount: 2
Fore
SplineSet
120 817 m 1,0,-1
 187 1120 l 1,1,-1
 1286 1120 l 1,2,-1
 1216 817 l 1,3,-1
 1075 817 l 1,4,-1
 1084 1000 l 2,5,6
 1085 1007 1085 1007 1071 1010.5 c 128,-1,7
 1057 1014 1057 1014 1043 1014 c 2,8,-1
 842 1014 l 1,9,-1
 842 1021 l 1,10,-1
 651 121 l 1,11,12
 651 114 651 114 661 111 c 128,-1,13
 671 108 671 108 687 107 c 256,14,15
 703 106 703 106 721 104 c 0,16,17
 736 102 736 102 755 101 c 128,-1,18
 774 100 774 100 793 98 c 1,19,-1
 793 0 l 1,20,-1
 236 0 l 1,21,-1
 236 98 l 1,22,23
 254 99 254 99 272 100.5 c 128,-1,24
 290 102 290 102 305 103 c 0,25,26
 322 104 322 104 338 105 c 0,27,28
 358 107 358 107 371.5 111 c 128,-1,29
 385 115 385 115 387 126 c 2,30,-1
 576 1014 l 1,31,-1
 387 1014 l 2,32,33
 381 1014 381 1014 372.5 1013 c 128,-1,34
 364 1012 364 1012 356.5 1009.5 c 128,-1,35
 349 1007 349 1007 343 1003.5 c 128,-1,36
 337 1000 337 1000 336 996 c 2,37,-1
 263 817 l 1,38,-1
 120 817 l 1,0,-1
EndSplineSet
EndChar

StartChar: u
Encoding: 117 117 88
Width: 1411
GlyphClass: 2
Flags: W
LayerCount: 2
Fore
SplineSet
178 275 m 0,0,1
 178 299 178 299 184 344.5 c 128,-1,2
 190 390 190 390 202 446 c 1,3,-1
 331 999 l 1,4,5
 331 1006 331 1006 321 1009.5 c 128,-1,6
 311 1013 311 1013 294 1014 c 0,7,8
 278 1015 278 1015 261 1017 c 0,9,10
 246 1019 246 1019 228 1020 c 128,-1,11
 210 1021 210 1021 191 1023 c 1,12,-1
 191 1120 l 1,13,-1
 749 1120 l 1,14,-1
 749 1023 l 1,15,16
 727 1021 727 1021 707 1020 c 128,-1,17
 687 1019 687 1019 670 1017 c 0,18,19
 651 1015 651 1015 634 1014 c 256,20,21
 617 1013 617 1013 607 1009 c 128,-1,22
 597 1005 597 1005 595 994 c 2,23,-1
 468 443 l 2,24,25
 458 399 458 399 452.5 359 c 128,-1,26
 447 319 447 319 447 299 c 0,27,28
 447 249 447 249 466 213.5 c 128,-1,29
 485 178 485 178 516.5 155.5 c 128,-1,30
 548 133 548 133 587.5 123 c 128,-1,31
 627 113 627 113 669 113 c 0,32,33
 740 113 740 113 792.5 137 c 128,-1,34
 845 161 845 161 882.5 202.5 c 128,-1,35
 920 244 920 244 944.5 300 c 128,-1,36
 969 356 969 356 984 421 c 2,37,-1
 1115 999 l 1,38,39
 1115 1005 1115 1005 1107 1009 c 128,-1,40
 1099 1013 1099 1013 1079 1014 c 0,41,42
 1063 1015 1063 1015 1045 1017 c 0,43,44
 1030 1019 1030 1019 1011.5 1020 c 128,-1,45
 993 1021 993 1021 974 1023 c 1,46,-1
 974 1120 l 1,47,-1
 1469 1120 l 1,48,-1
 1469 1023 l 1,49,-1
 1347 1014 l 2,50,51
 1333 1013 1333 1013 1326 1007.5 c 128,-1,52
 1319 1002 1319 1002 1317 994 c 0,53,54
 1301 922 1301 922 1282.5 841 c 128,-1,55
 1264 760 1264 760 1245.5 677 c 128,-1,56
 1227 594 1227 594 1209 513 c 2,57,-1
 1175 360 l 1,58,59
 1155 275 1155 275 1113 204 c 128,-1,60
 1071 133 1071 133 1003.5 82 c 128,-1,61
 936 31 936 31 841.5 2.5 c 128,-1,62
 747 -26 747 -26 621 -26 c 0,63,64
 519 -26 519 -26 437 -8.5 c 128,-1,65
 355 9 355 9 297.5 45.5 c 128,-1,66
 240 82 240 82 209 139 c 128,-1,67
 178 196 178 196 178 275 c 0,0,1
EndSplineSet
EndChar

StartChar: v
Encoding: 118 118 89
Width: 1291
GlyphClass: 2
Flags: W
LayerCount: 2
Fore
SplineSet
161 1021 m 1,0,-1
 161 1120 l 1,1,-1
 658 1120 l 1,2,-1
 658 1021 l 1,3,4
 643 1020 643 1020 628.5 1019.5 c 128,-1,5
 614 1019 614 1019 602 1019 c 2,6,-1
 575 1019 l 2,7,8
 560 1019 560 1019 550 1016 c 128,-1,9
 540 1013 540 1013 542 1004 c 2,10,-1
 661 317 l 1,11,-1
 661 320 l 1,12,-1
 1072 1006 l 1,13,-1
 1072 1005 l 1,14,15
 1075 1013 1075 1013 1064.5 1015.5 c 128,-1,16
 1054 1018 1054 1018 1046 1019 c 1,17,18
 1033 1019 1033 1019 1004.5 1019.5 c 128,-1,19
 976 1020 976 1020 954 1021 c 1,20,-1
 954 1120 l 1,21,-1
 1408 1120 l 1,22,-1
 1408 1023 l 1,23,-1
 1306 1013 l 1,24,-1
 1306 1017 l 1,25,26
 1147 755 1147 755 986.5 495 c 128,-1,27
 826 235 826 235 666 -26 c 1,28,-1
 458 -26 l 1,29,-1
 276 999 l 2,30,31
 274 1011 274 1011 261.5 1014.5 c 128,-1,32
 249 1018 249 1018 234 1018 c 0,33,34
 221 1018 221 1018 209 1019 c 0,35,36
 198 1019 198 1019 185 1019.5 c 128,-1,37
 172 1020 172 1020 161 1021 c 1,0,-1
EndSplineSet
EndChar

StartChar: w
Encoding: 119 119 90
Width: 1826
GlyphClass: 2
Flags: W
LayerCount: 2
Fore
SplineSet
164 1021 m 1,0,-1
 164 1120 l 1,1,-1
 668 1120 l 1,2,-1
 668 1021 l 1,3,4
 652 1020 652 1020 636.5 1019.5 c 128,-1,5
 621 1019 621 1019 608 1019 c 0,6,7
 593 1018 593 1018 580 1018 c 0,8,9
 568 1018 568 1018 558.5 1015.5 c 128,-1,10
 549 1013 549 1013 550 1003 c 2,11,-1
 603 422 l 1,12,-1
 603 425 l 1,13,-1
 977 1120 l 1,14,-1
 1195 1120 l 1,15,-1
 1278 408 l 1,16,-1
 1278 410 l 1,17,-1
 1590 1005 l 1,18,19
 1593 1013 1593 1013 1582.5 1015.5 c 128,-1,20
 1572 1018 1572 1018 1554 1019 c 1,21,-1
 1526 1019 l 2,22,23
 1514 1019 1514 1019 1499.5 1019.5 c 128,-1,24
 1485 1020 1485 1020 1471 1021 c 1,25,-1
 1471 1120 l 1,26,-1
 1935 1120 l 1,27,-1
 1935 1023 l 1,28,-1
 1823 1013 l 1,29,-1
 1823 1018 l 1,30,-1
 1264 -26 l 1,31,-1
 1079 -26 l 1,32,-1
 983 736 l 1,33,-1
 983 734 l 1,34,35
 883 544 883 544 781 353.5 c 128,-1,36
 679 163 679 163 579 -26 c 1,37,-1
 381 -26 l 1,38,-1
 285 1000 l 2,39,40
 284 1011 284 1011 275 1013.5 c 128,-1,41
 266 1016 266 1016 241 1018 c 0,42,43
 229 1018 229 1018 216 1019 c 0,44,45
 205 1019 205 1019 191 1019.5 c 128,-1,46
 177 1020 177 1020 164 1021 c 1,0,-1
EndSplineSet
EndChar

StartChar: x
Encoding: 120 120 91
Width: 1271
GlyphClass: 2
Flags: W
LayerCount: 2
Fore
SplineSet
-75 0 m 1,0,-1
 -75 98 l 1,1,2
 -62 99 -62 99 -48.5 100.5 c 128,-1,3
 -35 102 -35 102 -24 103 c 0,4,5
 -11 104 -11 104 1 105 c 0,6,7
 24 107 24 107 36.5 110 c 128,-1,8
 49 113 49 113 60 122 c 1,9,-1
 515 570 l 1,10,-1
 296 1000 l 2,11,12
 291 1009 291 1009 282 1011.5 c 128,-1,13
 273 1014 273 1014 251 1016 c 0,14,15
 237 1017 237 1017 222 1018 c 0,16,17
 209 1019 209 1019 192.5 1020 c 128,-1,18
 176 1021 176 1021 159 1023 c 1,19,-1
 159 1120 l 1,20,-1
 717 1120 l 1,21,-1
 717 1023 l 1,22,23
 695 1021 695 1021 673 1020 c 128,-1,24
 651 1019 651 1019 634 1018 c 0,25,26
 614 1017 614 1017 595 1016 c 0,27,28
 584 1016 584 1016 575 1013 c 128,-1,29
 566 1010 566 1010 569 1002 c 2,30,-1
 696 750 l 1,31,-1
 696 753 l 1,32,-1
 948 1004 l 2,33,34
 951 1007 951 1007 951 1010.5 c 128,-1,35
 951 1014 951 1014 940 1014 c 2,36,-1
 841 1023 l 1,37,-1
 841 1120 l 1,38,-1
 1337 1120 l 1,39,-1
 1337 1023 l 1,40,-1
 1222 1014 l 2,41,42
 1200 1013 1200 1013 1191.5 1007 c 128,-1,43
 1183 1001 1183 1001 1179 996 c 2,44,-1
 777 596 l 1,45,46
 837 475 837 475 897 358 c 128,-1,47
 957 241 957 241 1017 120 c 0,48,49
 1021 113 1021 113 1029.5 110 c 128,-1,50
 1038 107 1038 107 1050 105 c 1,51,52
 1064 104 1064 104 1081 103 c 0,53,54
 1095 102 1095 102 1114 101 c 128,-1,55
 1133 100 1133 100 1154 98 c 1,56,-1
 1154 0 l 1,57,-1
 599 0 l 1,58,-1
 599 98 l 1,59,60
 617 99 617 99 636 100.5 c 128,-1,61
 655 102 655 102 670 103 c 0,62,63
 688 104 688 104 704 105 c 0,64,65
 724 107 724 107 736 108.5 c 128,-1,66
 748 110 748 110 743 118 c 2,67,-1
 601 408 l 1,68,-1
 601 406 l 1,69,-1
 304 116 l 2,70,71
 300 113 300 113 304 109.5 c 128,-1,72
 308 106 308 106 316 105 c 2,73,-1
 432 98 l 1,74,-1
 432 0 l 1,75,-1
 -75 0 l 1,0,-1
EndSplineSet
EndChar

StartChar: y
Encoding: 121 121 92
Width: 1283
GlyphClass: 2
Flags: W
LayerCount: 2
Fore
SplineSet
163 1023 m 1,0,-1
 163 1120 l 1,1,-1
 719 1120 l 1,2,-1
 719 1023 l 1,3,4
 698 1021 698 1021 677.5 1020 c 128,-1,5
 657 1019 657 1019 640 1018 c 0,6,7
 621 1017 621 1017 604 1016 c 0,8,9
 591 1016 591 1016 580.5 1013.5 c 128,-1,10
 570 1011 570 1011 574 1003 c 1,11,-1
 702 642 l 1,12,-1
 702 645 l 1,13,14
 778 735 778 735 854.5 824 c 128,-1,15
 931 913 931 913 1007 1004 c 0,16,17
 1009 1007 1009 1007 1005 1011 c 128,-1,18
 1001 1015 1001 1015 984 1016 c 2,19,-1
 876 1023 l 1,20,-1
 876 1120 l 1,21,-1
 1398 1120 l 1,22,-1
 1398 1023 l 1,23,-1
 1280 1014 l 2,24,25
 1269 1013 1269 1013 1259.5 1007 c 128,-1,26
 1250 1001 1250 1001 1247 997 c 2,27,-1
 778 466 l 1,28,-1
 778 468 l 1,29,30
 759 381 759 381 739.5 295 c 128,-1,31
 720 209 720 209 700 121 c 1,32,33
 697 113 697 113 706 110.5 c 128,-1,34
 715 108 715 108 734 107 c 0,35,36
 749 106 749 106 767 104 c 0,37,38
 782 102 782 102 800.5 101 c 128,-1,39
 819 100 819 100 839 98 c 1,40,-1
 839 0 l 1,41,-1
 281 0 l 1,42,-1
 281 98 l 1,43,44
 299 100 299 100 318 101 c 128,-1,45
 337 102 337 102 352 104 c 0,46,47
 370 106 370 106 386 107 c 0,48,49
 405 108 405 108 417.5 111.5 c 128,-1,50
 430 115 430 115 432 126 c 2,51,-1
 508 457 l 1,52,-1
 302 1001 l 2,53,54
 298 1010 298 1010 287 1012 c 128,-1,55
 276 1014 276 1014 259 1016 c 1,56,-1
 255 1016 l 1,57,58
 241 1017 241 1017 225 1018 c 0,59,60
 211 1019 211 1019 195 1020 c 128,-1,61
 179 1021 179 1021 163 1023 c 1,0,-1
EndSplineSet
EndChar

StartChar: z
Encoding: 122 122 93
Width: 1138
GlyphClass: 2
Flags: W
LayerCount: 2
Fore
SplineSet
-35 0 m 1,0,-1
 -14 94 l 1,1,-1
 831 1002 l 1,2,-1
 458 1002 l 2,3,4
 444 1002 444 1002 427 998 c 128,-1,5
 410 994 410 994 406 986 c 1,6,7
 392 942 392 942 375.5 894.5 c 128,-1,8
 359 847 359 847 346 804 c 1,9,-1
 190 804 l 1,10,-1
 261 1120 l 1,11,-1
 1186 1120 l 1,12,-1
 1165 1025 l 1,13,-1
 316 118 l 1,14,-1
 760 118 l 2,15,16
 773 118 773 118 790 123.5 c 128,-1,17
 807 129 807 129 811 138 c 1,18,19
 827 189 827 189 845 247.5 c 128,-1,20
 863 306 863 306 880 357 c 1,21,-1
 1035 357 l 1,22,-1
 957 0 l 1,23,-1
 -35 0 l 1,0,-1
EndSplineSet
EndChar

StartChar: braceleft
Encoding: 123 123 94
Width: 1014
GlyphClass: 2
Flags: W
LayerCount: 2
Fore
SplineSet
84 537 m 1,0,-1
 106 659 l 1,1,2
 148 653 148 653 189 657 c 0,3,4
 224 660 224 660 265.5 672.5 c 128,-1,5
 307 685 307 685 342 715 c 0,6,7
 378 745 378 745 397.5 793.5 c 128,-1,8
 417 842 417 842 429.5 900 c 128,-1,9
 442 958 442 958 453.5 1022 c 128,-1,10
 465 1086 465 1086 484 1147.5 c 128,-1,11
 503 1209 503 1209 535.5 1265 c 128,-1,12
 568 1321 568 1321 623 1362 c 0,13,14
 653 1385 653 1385 692.5 1400 c 128,-1,15
 732 1415 732 1415 774.5 1424.5 c 128,-1,16
 817 1434 817 1434 860 1438.5 c 128,-1,17
 903 1443 903 1443 939.5 1444.5 c 128,-1,18
 976 1446 976 1446 1003 1446 c 2,19,-1
 1042 1446 l 1,20,-1
 1022 1333 l 1,21,22
 984 1333 984 1333 947 1328 c 0,23,24
 915 1323 915 1323 879.5 1312 c 128,-1,25
 844 1301 844 1301 815 1278 c 0,26,27
 779 1248 779 1248 759 1203.5 c 128,-1,28
 739 1159 739 1159 726.5 1106.5 c 128,-1,29
 714 1054 714 1054 704 997 c 128,-1,30
 694 940 694 940 677 884.5 c 128,-1,31
 660 829 660 829 631.5 778 c 128,-1,32
 603 727 603 727 553 688 c 0,33,34
 514 657 514 657 475.5 639 c 128,-1,35
 437 621 437 621 405 612 c 128,-1,36
 373 603 373 603 349 600 c 0,37,38
 332 598 332 598 323 598 c 1,39,40
 332 597 332 597 348 595 c 0,41,42
 370 592 370 592 398.5 582.5 c 128,-1,43
 427 573 427 573 458.5 555 c 128,-1,44
 490 537 490 537 516 506 c 0,45,46
 550 466 550 466 558.5 415.5 c 128,-1,47
 567 365 567 365 562.5 309.5 c 128,-1,48
 558 254 558 254 545 197.5 c 128,-1,49
 532 141 532 141 524.5 89 c 128,-1,50
 517 37 517 37 519.5 -7.5 c 128,-1,51
 522 -52 522 -52 547 -82 c 0,52,53
 566 -105 566 -105 597 -116 c 128,-1,54
 628 -127 628 -127 657 -132 c 0,55,56
 691 -137 691 -137 729 -137 c 1,57,-1
 707 -250 l 1,58,-1
 667 -250 l 2,59,60
 640 -250 640 -250 604 -248.5 c 128,-1,61
 568 -247 568 -247 526.5 -242.5 c 128,-1,62
 485 -238 485 -238 446 -228.5 c 128,-1,63
 407 -219 407 -219 373.5 -204 c 128,-1,64
 340 -189 340 -189 319 -166 c 0,65,66
 281 -125 281 -125 271 -69 c 128,-1,67
 261 -13 261 -13 266.5 48.5 c 128,-1,68
 272 110 272 110 286.5 173.5 c 128,-1,69
 301 237 301 237 311.5 295 c 128,-1,70
 322 353 322 353 321.5 401 c 128,-1,71
 321 449 321 449 297 479 c 256,72,73
 273 509 273 509 236.5 521.5 c 128,-1,74
 200 534 200 534 166 538 c 0,75,76
 126 542 126 542 84 537 c 1,0,-1
EndSplineSet
EndChar

StartChar: bar
Encoding: 124 124 95
Width: 815
GlyphClass: 2
Flags: W
LayerCount: 2
Fore
SplineSet
320 -528 m 1,0,-1
 320 1630 l 1,1,-1
 495 1630 l 1,2,-1
 495 -528 l 1,3,-1
 320 -528 l 1,0,-1
EndSplineSet
EndChar

StartChar: braceright
Encoding: 125 125 96
Width: 1014
GlyphClass: 2
Flags: W
LayerCount: 2
Fore
SplineSet
-6 -250 m 1,0,-1
 16 -137 l 1,1,2
 53 -137 53 -137 90 -132 c 0,3,4
 122 -127 122 -127 157 -116 c 128,-1,5
 192 -105 192 -105 221 -82 c 0,6,7
 257 -52 257 -52 277 -8 c 128,-1,8
 297 36 297 36 309.5 88 c 128,-1,9
 322 140 322 140 331.5 196.5 c 128,-1,10
 341 253 341 253 358 308.5 c 128,-1,11
 375 364 375 364 403 415 c 128,-1,12
 431 466 431 466 481 506 c 0,13,14
 518 536 518 536 556 554 c 128,-1,15
 594 572 594 572 626.5 581.5 c 128,-1,16
 659 591 659 591 683 594 c 128,-1,17
 707 597 707 597 717 598 c 1,18,19
 710 598 710 598 688 600 c 128,-1,20
 666 602 666 602 637 611 c 128,-1,21
 608 620 608 620 576.5 638 c 128,-1,22
 545 656 545 656 518 688 c 0,23,24
 484 728 484 728 475.5 779 c 128,-1,25
 467 830 467 830 472 885.5 c 128,-1,26
 477 941 477 941 489.5 998 c 128,-1,27
 502 1055 502 1055 510 1107.5 c 128,-1,28
 518 1160 518 1160 516 1204 c 128,-1,29
 514 1248 514 1248 489 1278 c 0,30,31
 470 1301 470 1301 439.5 1312 c 128,-1,32
 409 1323 409 1323 380 1328 c 0,33,34
 346 1333 346 1333 307 1333 c 1,35,-1
 330 1446 l 1,36,-1
 369 1446 l 2,37,38
 397 1446 397 1446 433 1444.5 c 128,-1,39
 469 1443 469 1443 510 1438.5 c 128,-1,40
 551 1434 551 1434 590.5 1424.5 c 128,-1,41
 630 1415 630 1415 663.5 1400 c 128,-1,42
 697 1385 697 1385 719 1362 c 0,43,44
 757 1320 757 1320 766.5 1264.5 c 128,-1,45
 776 1209 776 1209 770 1147.5 c 128,-1,46
 764 1086 764 1086 749.5 1022 c 128,-1,47
 735 958 735 958 724.5 900 c 128,-1,48
 714 842 714 842 714.5 793.5 c 128,-1,49
 715 745 715 745 739 715 c 256,50,51
 763 685 763 685 799 672.5 c 128,-1,52
 835 660 835 660 869 657 c 0,53,54
 909 653 909 653 952 659 c 1,55,-1
 930 537 l 1,56,57
 888 542 888 542 847 538 c 0,58,59
 811 534 811 534 769.5 521.5 c 128,-1,60
 728 509 728 509 692 479 c 0,61,62
 656 448 656 448 637 400 c 128,-1,63
 618 352 618 352 605.5 294 c 128,-1,64
 593 236 593 236 582 172.5 c 128,-1,65
 571 109 571 109 552 47.5 c 128,-1,66
 533 -14 533 -14 501.5 -69.5 c 128,-1,67
 470 -125 470 -125 416 -166 c 0,68,69
 386 -189 386 -189 346 -204 c 128,-1,70
 306 -219 306 -219 263 -228.5 c 128,-1,71
 220 -238 220 -238 177 -242.5 c 128,-1,72
 134 -247 134 -247 97.5 -248.5 c 128,-1,73
 61 -250 61 -250 33 -250 c 2,74,-1
 -6 -250 l 1,0,-1
EndSplineSet
EndChar

StartChar: asciitilde
Encoding: 126 126 97
Width: 1706
GlyphClass: 2
Flags: W
LayerCount: 2
Fore
SplineSet
176 412 m 1,0,-1
 176 606 l 1,1,2
 292 694 292 694 392 729 c 128,-1,3
 492 764 492 764 575 764 c 0,4,5
 633 764 633 764 688 751.5 c 128,-1,6
 743 739 743 739 796.5 721 c 128,-1,7
 850 703 850 703 903 682.5 c 128,-1,8
 956 662 956 662 1010 647 c 0,9,10
 1042 638 1042 638 1074 632.5 c 128,-1,11
 1106 627 1106 627 1137 627 c 0,12,13
 1170 627 1170 627 1208 635 c 128,-1,14
 1246 643 1246 643 1293.5 663.5 c 128,-1,15
 1341 684 1341 684 1399 719.5 c 128,-1,16
 1457 755 1457 755 1530 809 c 1,17,-1
 1530 614 l 1,18,19
 1468 570 1468 570 1414.5 540 c 128,-1,20
 1361 510 1361 510 1313.5 492 c 128,-1,21
 1266 474 1266 474 1222 466.5 c 128,-1,22
 1178 459 1178 459 1135 459 c 0,23,24
 1060 459 1060 459 989.5 480.5 c 128,-1,25
 919 502 919 502 849.5 527.5 c 128,-1,26
 780 553 780 553 709 574.5 c 128,-1,27
 638 596 638 596 563 596 c 0,28,29
 492 596 492 596 398 552.5 c 128,-1,30
 304 509 304 509 176 412 c 1,0,-1
EndSplineSet
EndChar

StartChar: exclamdown
Encoding: 161 161 99
Width: 696
GlyphClass: 2
Flags: W
LayerCount: 2
Fore
SplineSet
26 -277 m 0,0,1
 26 -264 26 -264 40 -215.5 c 128,-1,2
 54 -167 54 -167 77 -96.5 c 128,-1,3
 100 -26 100 -26 129.5 61 c 128,-1,4
 159 148 159 148 189.5 238 c 128,-1,5
 220 328 220 328 249.5 415 c 128,-1,6
 279 502 279 502 303 573 c 1,7,-1
 413 573 l 1,8,-1
 366 -242 l 2,9,10
 364 -285 364 -285 345.5 -316 c 128,-1,11
 327 -347 327 -347 298.5 -367.5 c 128,-1,12
 270 -388 270 -388 235 -398 c 128,-1,13
 200 -408 200 -408 166 -408 c 0,14,15
 106 -408 106 -408 66 -377 c 128,-1,16
 26 -346 26 -346 26 -277 c 0,0,1
245 860 m 0,17,18
 245 894 245 894 257 923.5 c 128,-1,19
 269 953 269 953 290 975.5 c 128,-1,20
 311 998 311 998 339.5 1011 c 128,-1,21
 368 1024 368 1024 401 1024 c 0,22,23
 438 1024 438 1024 468.5 1010 c 128,-1,24
 499 996 499 996 521.5 972.5 c 128,-1,25
 544 949 544 949 556.5 917.5 c 128,-1,26
 569 886 569 886 569 852 c 256,27,28
 569 818 569 818 555 789 c 128,-1,29
 541 760 541 760 517.5 739 c 128,-1,30
 494 718 494 718 463.5 706 c 128,-1,31
 433 694 433 694 399 694 c 0,32,33
 366 694 366 694 338 707.5 c 128,-1,34
 310 721 310 721 289 744 c 128,-1,35
 268 767 268 767 256.5 797 c 128,-1,36
 245 827 245 827 245 860 c 0,17,18
EndSplineSet
EndChar

StartChar: cent
Encoding: 162 162 100
Width: 1225
GlyphClass: 2
Flags: W
LayerCount: 2
Fore
SplineSet
84 403 m 0,0,1
 84 509 84 509 125 612.5 c 128,-1,2
 166 716 166 716 243.5 800.5 c 128,-1,3
 321 885 321 885 433 943.5 c 128,-1,4
 545 1002 545 1002 688 1018 c 1,5,-1
 725 1212 l 1,6,-1
 885 1212 l 1,7,-1
 848 1022 l 1,8,9
 885 1019 885 1019 921 1013.5 c 128,-1,10
 957 1008 957 1008 993.5 999.5 c 128,-1,11
 1030 991 1030 991 1068 980 c 2,12,-1
 1151 958 l 1,13,-1
 1096 686 l 1,14,-1
 958 686 l 1,15,16
 958 689 958 689 960 704 c 128,-1,17
 962 719 962 719 964.5 740 c 128,-1,18
 967 761 967 761 968 785 c 128,-1,19
 969 809 969 809 967 830 c 128,-1,20
 965 851 965 851 959 866.5 c 128,-1,21
 953 882 953 882 940 885 c 0,22,23
 935 887 935 887 923.5 891 c 128,-1,24
 912 895 912 895 896 899 c 128,-1,25
 880 903 880 903 861.5 907 c 128,-1,26
 843 911 843 911 825 913 c 1,27,-1
 664 86 l 1,28,29
 696 88 696 88 727 93.5 c 128,-1,30
 758 99 758 99 770 104 c 1,31,32
 800 109 800 109 816 133 c 128,-1,33
 832 157 832 157 841 190 c 128,-1,34
 850 223 850 223 856.5 258.5 c 128,-1,35
 863 294 863 294 874 322 c 1,36,-1
 1014 322 l 1,37,-1
 961 41 l 1,38,39
 902 22 902 22 821 3 c 128,-1,40
 740 -16 740 -16 643 -23 c 1,41,-1
 602 -225 l 1,42,-1
 444 -225 l 1,43,-1
 485 -18 l 1,44,45
 373 -5 373 -5 296.5 37 c 128,-1,46
 220 79 220 79 172.5 137 c 128,-1,47
 125 195 125 195 104.5 264.5 c 128,-1,48
 84 334 84 334 84 403 c 0,0,1
346 385 m 0,49,50
 346 330 346 330 359 285.5 c 128,-1,51
 372 241 372 241 394.5 207.5 c 128,-1,52
 417 174 417 174 446.5 150 c 128,-1,53
 476 126 476 126 510 111 c 1,54,-1
 664 889 l 1,55,56
 602 865 602 865 545 820.5 c 128,-1,57
 488 776 488 776 443.5 712 c 128,-1,58
 399 648 399 648 372.5 566 c 128,-1,59
 346 484 346 484 346 385 c 0,49,50
EndSplineSet
EndChar

StartChar: sterling
Encoding: 163 163 101
Width: 1225
GlyphClass: 2
Flags: W
LayerCount: 2
Fore
SplineSet
-6 0 m 1,0,-1
 -6 135 l 1,1,2
 91 155 91 155 149 200 c 128,-1,3
 207 245 207 245 242 313 c 0,4,5
 260 350 260 350 272.5 387.5 c 128,-1,6
 285 425 285 425 294 462 c 128,-1,7
 303 499 303 499 310 536 c 2,8,-1
 324 610 l 1,9,-1
 182 610 l 1,10,-1
 182 733 l 1,11,-1
 342 733 l 1,12,13
 345 762 345 762 353 806 c 128,-1,14
 361 850 361 850 376.5 903 c 128,-1,15
 392 956 392 956 416 1014 c 128,-1,16
 440 1072 440 1072 474 1128 c 128,-1,17
 508 1184 508 1184 554 1234.5 c 128,-1,18
 600 1285 600 1285 659 1323.5 c 128,-1,19
 718 1362 718 1362 792 1384.5 c 128,-1,20
 866 1407 866 1407 956 1407 c 0,21,22
 1008 1407 1008 1407 1061 1397 c 128,-1,23
 1114 1387 1114 1387 1157 1366.5 c 128,-1,24
 1200 1346 1200 1346 1226.5 1314.5 c 128,-1,25
 1253 1283 1253 1283 1253 1239 c 0,26,27
 1253 1161 1253 1161 1200.5 1121 c 128,-1,28
 1148 1081 1148 1081 1051 1067 c 1,29,-1
 963 1272 l 1,30,31
 897 1268 897 1268 848 1233.5 c 128,-1,32
 799 1199 799 1199 764 1148 c 128,-1,33
 729 1097 729 1097 706.5 1035.5 c 128,-1,34
 684 974 684 974 669.5 915.5 c 128,-1,35
 655 857 655 857 647 808 c 128,-1,36
 639 759 639 759 635 733 c 1,37,-1
 1008 733 l 1,38,-1
 1008 610 l 1,39,-1
 608 610 l 1,40,41
 583 477 583 477 511 362.5 c 128,-1,42
 439 248 439 248 317 160 c 1,43,44
 361 172 361 172 407.5 177 c 128,-1,45
 454 182 454 182 489 182 c 2,46,-1
 1067 182 l 1,47,-1
 1067 0 l 1,48,-1
 -6 0 l 1,0,-1
EndSplineSet
EndChar

StartChar: currency
Encoding: 164 164 102
Width: 1249
GlyphClass: 2
Flags: W
LayerCount: 2
Fore
SplineSet
82 401 m 1,0,-1
 293 612 l 1,1,2
 248 668 248 668 225.5 735 c 128,-1,3
 203 802 203 802 203 874 c 0,4,5
 203 910 203 910 208.5 946.5 c 128,-1,6
 214 983 214 983 225.5 1018 c 128,-1,7
 237 1053 237 1053 254.5 1085.5 c 128,-1,8
 272 1118 272 1118 297 1145 c 1,9,-1
 82 1360 l 1,10,-1
 156 1434 l 1,11,-1
 371 1219 l 1,12,13
 426 1264 426 1264 496.5 1286.5 c 128,-1,14
 567 1309 567 1309 639 1309 c 0,15,16
 710 1309 710 1309 777 1285.5 c 128,-1,17
 844 1262 844 1262 897 1217 c 1,18,-1
 1114 1434 l 1,19,-1
 1188 1360 l 1,20,-1
 975 1147 l 1,21,22
 1018 1093 1018 1093 1042.5 1021 c 128,-1,23
 1067 949 1067 949 1067 877 c 0,24,25
 1067 804 1067 804 1045 736 c 128,-1,26
 1023 668 1023 668 977 612 c 1,27,-1
 1188 401 l 1,28,-1
 1114 328 l 1,29,-1
 903 539 l 1,30,31
 847 491 847 491 778.5 466.5 c 128,-1,32
 710 442 710 442 639 442 c 0,33,34
 562 442 562 442 493 465.5 c 128,-1,35
 424 489 424 489 367 539 c 1,36,-1
 156 328 l 1,37,-1
 82 401 l 1,0,-1
319 874 m 0,38,39
 319 808 319 808 344 750.5 c 128,-1,40
 369 693 369 693 412.5 650.5 c 128,-1,41
 456 608 456 608 514.5 583.5 c 128,-1,42
 573 559 573 559 639 559 c 0,43,44
 704 559 704 559 761 584.5 c 128,-1,45
 818 610 818 610 860 653.5 c 128,-1,46
 902 697 902 697 926 754.5 c 128,-1,47
 950 812 950 812 950 877 c 0,48,49
 950 941 950 941 925.5 998 c 128,-1,50
 901 1055 901 1055 859 1098 c 128,-1,51
 817 1141 817 1141 760 1166.5 c 128,-1,52
 703 1192 703 1192 639 1192 c 0,53,54
 572 1192 572 1192 514 1167.5 c 128,-1,55
 456 1143 456 1143 412.5 1100 c 128,-1,56
 369 1057 369 1057 344 999 c 128,-1,57
 319 941 319 941 319 874 c 0,38,39
EndSplineSet
EndChar

StartChar: yen
Encoding: 165 165 103
Width: 1225
GlyphClass: 2
Flags: W
LayerCount: 2
Fore
SplineSet
57 473 m 1,0,-1
 57 586 l 1,1,-1
 465 586 l 1,2,-1
 406 764 l 1,3,-1
 115 764 l 1,4,-1
 115 877 l 1,5,-1
 369 877 l 1,6,-1
 246 1249 l 1,7,-1
 113 1272 l 1,8,-1
 113 1374 l 1,9,-1
 698 1374 l 1,10,-1
 698 1272 l 1,11,12
 675 1270 675 1270 654 1268.5 c 128,-1,13
 633 1267 633 1267 617 1266 c 0,14,15
 599 1264 599 1264 582 1264 c 1,16,17
 565 1262 565 1262 553 1256.5 c 128,-1,18
 541 1251 541 1251 549 1231 c 1,19,-1
 690 786 l 1,20,-1
 1026 1233 l 1,21,22
 1034 1241 1034 1241 1030.5 1251.5 c 128,-1,23
 1027 1262 1027 1262 1004 1264 c 2,24,-1
 901 1272 l 1,25,-1
 901 1374 l 1,26,-1
 1423 1374 l 1,27,-1
 1423 1272 l 1,28,-1
 1298 1247 l 1,29,-1
 1010 877 l 1,30,-1
 1212 877 l 1,31,-1
 1212 764 l 1,32,-1
 922 764 l 1,33,-1
 782 586 l 1,34,-1
 1155 586 l 1,35,-1
 1155 473 l 1,36,-1
 754 473 l 1,37,-1
 686 143 l 2,38,39
 683 125 683 125 693 120 c 128,-1,40
 703 115 703 115 725 113 c 0,41,42
 743 112 743 112 762 110 c 0,43,44
 779 108 779 108 799.5 106 c 128,-1,45
 820 104 820 104 842 102 c 1,46,-1
 842 0 l 1,47,-1
 223 0 l 1,48,-1
 223 102 l 1,49,50
 244 104 244 104 264.5 106 c 128,-1,51
 285 108 285 108 302 110 c 0,52,53
 321 112 321 112 340 113 c 0,54,55
 360 115 360 115 373 120 c 128,-1,56
 386 125 386 125 391 145 c 2,57,-1
 457 473 l 1,58,-1
 57 473 l 1,0,-1
EndSplineSet
EndChar

StartChar: brokenbar
Encoding: 166 166 104
Width: 707
GlyphClass: 2
Flags: W
LayerCount: 2
Fore
SplineSet
301 -406 m 1,0,-1
 301 414 l 1,1,-1
 406 414 l 1,2,-1
 406 -406 l 1,3,-1
 301 -406 l 1,0,-1
301 688 m 1,4,-1
 301 1507 l 1,5,-1
 406 1507 l 1,6,-1
 406 688 l 1,7,-1
 301 688 l 1,4,-1
EndSplineSet
EndChar

StartChar: section
Encoding: 167 167 105
Width: 1108
GlyphClass: 2
Flags: W
LayerCount: 2
Fore
SplineSet
25 -213 m 1,0,-1
 74 66 l 1,1,-1
 236 66 l 1,2,-1
 229 -127 l 1,3,4
 251 -140 251 -140 278.5 -148 c 128,-1,5
 306 -156 306 -156 332 -160.5 c 128,-1,6
 358 -165 358 -165 378.5 -166.5 c 128,-1,7
 399 -168 399 -168 406 -168 c 0,8,9
 420 -168 420 -168 451.5 -158 c 128,-1,10
 483 -148 483 -148 515 -126.5 c 128,-1,11
 547 -105 547 -105 571.5 -71.5 c 128,-1,12
 596 -38 596 -38 596 10 c 0,13,14
 596 46 596 46 579.5 73.5 c 128,-1,15
 563 101 563 101 535 123.5 c 128,-1,16
 507 146 507 146 470 165.5 c 128,-1,17
 433 185 433 185 392.5 206 c 128,-1,18
 352 227 352 227 309.5 251.5 c 128,-1,19
 267 276 267 276 229 307 c 0,20,21
 180 347 180 347 150.5 399.5 c 128,-1,22
 121 452 121 452 121 526 c 0,23,24
 121 593 121 593 143 649.5 c 128,-1,25
 165 706 165 706 204.5 752.5 c 128,-1,26
 244 799 244 799 299 836.5 c 128,-1,27
 354 874 354 874 420 903 c 1,28,29
 351 945 351 945 309.5 996 c 128,-1,30
 268 1047 268 1047 268 1116 c 0,31,32
 268 1204 268 1204 308.5 1270.5 c 128,-1,33
 349 1337 349 1337 418.5 1381.5 c 128,-1,34
 488 1426 488 1426 581.5 1448 c 128,-1,35
 675 1470 675 1470 782 1470 c 0,36,37
 822 1470 822 1470 865 1466.5 c 128,-1,38
 908 1463 908 1463 950 1455.5 c 128,-1,39
 992 1448 992 1448 1031.5 1437 c 128,-1,40
 1071 1426 1071 1426 1104 1411 c 1,41,-1
 1051 1135 l 1,42,-1
 895 1135 l 1,43,-1
 903 1309 l 1,44,45
 882 1323 882 1323 854.5 1331.5 c 128,-1,46
 827 1340 827 1340 801.5 1345 c 128,-1,47
 776 1350 776 1350 756 1352 c 128,-1,48
 736 1354 736 1354 729 1354 c 0,49,50
 716 1354 716 1354 686 1344.5 c 128,-1,51
 656 1335 656 1335 625 1314.5 c 128,-1,52
 594 1294 594 1294 570.5 1261.5 c 128,-1,53
 547 1229 547 1229 547 1182 c 0,54,55
 547 1150 547 1150 564.5 1124 c 128,-1,56
 582 1098 582 1098 610.5 1075 c 128,-1,57
 639 1052 639 1052 676.5 1031.5 c 128,-1,58
 714 1011 714 1011 754.5 989.5 c 128,-1,59
 795 968 795 968 835.5 944.5 c 128,-1,60
 876 921 876 921 911 893 c 0,61,62
 959 853 959 853 990.5 801.5 c 128,-1,63
 1022 750 1022 750 1022 678 c 0,64,65
 1022 617 1022 617 996.5 560.5 c 128,-1,66
 971 504 971 504 928.5 455.5 c 128,-1,67
 886 407 886 407 829.5 367 c 128,-1,68
 773 327 773 327 711 299 c 1,69,70
 783 259 783 259 826.5 206 c 128,-1,71
 870 153 870 153 870 84 c 0,72,73
 870 2 870 2 831 -66.5 c 128,-1,74
 792 -135 792 -135 724 -184 c 128,-1,75
 656 -233 656 -233 564.5 -260 c 128,-1,76
 473 -287 473 -287 369 -287 c 0,77,78
 266 -287 266 -287 181.5 -267 c 128,-1,79
 97 -247 97 -247 25 -213 c 1,0,-1
397 592 m 0,80,81
 397 559 397 559 404.5 532 c 128,-1,82
 412 505 412 505 431.5 479.5 c 128,-1,83
 451 454 451 454 485 428.5 c 128,-1,84
 519 403 519 403 573 373 c 1,85,86
 648 422 648 422 694.5 486 c 128,-1,87
 741 550 741 550 741 625 c 0,88,89
 741 654 741 654 732 681 c 128,-1,90
 723 708 723 708 702 733.5 c 128,-1,91
 681 759 681 759 646.5 784 c 128,-1,92
 612 809 612 809 561 834 c 1,93,94
 516 811 516 811 485 781.5 c 128,-1,95
 454 752 454 752 434.5 719 c 128,-1,96
 415 686 415 686 406 653 c 128,-1,97
 397 620 397 620 397 592 c 0,80,81
EndSplineSet
EndChar

StartChar: dieresis
Encoding: 168 168 106
Width: 713
GlyphClass: 2
Flags: W
LayerCount: 2
Fore
SplineSet
162 1339 m 256,0,1
 162 1368 162 1368 173 1394 c 128,-1,2
 184 1420 184 1420 203 1439.5 c 128,-1,3
 222 1459 222 1459 248 1470 c 128,-1,4
 274 1481 274 1481 303 1481 c 256,5,6
 332 1481 332 1481 358 1470 c 128,-1,7
 384 1459 384 1459 403 1439.5 c 128,-1,8
 422 1420 422 1420 433 1394 c 128,-1,9
 444 1368 444 1368 444 1339 c 256,10,11
 444 1310 444 1310 433 1284.5 c 128,-1,12
 422 1259 422 1259 403 1239.5 c 128,-1,13
 384 1220 384 1220 358 1209 c 128,-1,14
 332 1198 332 1198 303 1198 c 256,15,16
 274 1198 274 1198 248 1209 c 128,-1,17
 222 1220 222 1220 203 1239.5 c 128,-1,18
 184 1259 184 1259 173 1284.5 c 128,-1,19
 162 1310 162 1310 162 1339 c 256,0,1
594 1339 m 256,20,21
 594 1368 594 1368 604.5 1394 c 128,-1,22
 615 1420 615 1420 634 1439.5 c 128,-1,23
 653 1459 653 1459 678.5 1470 c 128,-1,24
 704 1481 704 1481 733 1481 c 256,25,26
 762 1481 762 1481 788 1470 c 128,-1,27
 814 1459 814 1459 833 1439.5 c 128,-1,28
 852 1420 852 1420 863 1394 c 128,-1,29
 874 1368 874 1368 874 1339 c 256,30,31
 874 1310 874 1310 863 1284.5 c 128,-1,32
 852 1259 852 1259 833 1239.5 c 128,-1,33
 814 1220 814 1220 788 1209 c 128,-1,34
 762 1198 762 1198 733 1198 c 256,35,36
 704 1198 704 1198 678.5 1209 c 128,-1,37
 653 1220 653 1220 634 1239.5 c 128,-1,38
 615 1259 615 1259 604.5 1284.5 c 128,-1,39
 594 1310 594 1310 594 1339 c 256,20,21
EndSplineSet
EndChar

StartChar: copyright
Encoding: 169 169 107
Width: 1714
GlyphClass: 2
Flags: W
LayerCount: 2
Fore
SplineSet
104 717 m 0,0,1
 104 826 104 826 132.5 928 c 128,-1,2
 161 1030 161 1030 213 1118 c 128,-1,3
 265 1206 265 1206 337.5 1279 c 128,-1,4
 410 1352 410 1352 498.5 1404 c 128,-1,5
 587 1456 587 1456 688.5 1484.5 c 128,-1,6
 790 1513 790 1513 899 1513 c 0,7,8
 1007 1513 1007 1513 1107.5 1484.5 c 128,-1,9
 1208 1456 1208 1456 1296 1404.5 c 128,-1,10
 1384 1353 1384 1353 1456.5 1280 c 128,-1,11
 1529 1207 1529 1207 1581 1118.5 c 128,-1,12
 1633 1030 1633 1030 1661.5 928.5 c 128,-1,13
 1690 827 1690 827 1690 717 c 256,14,15
 1690 607 1690 607 1661.5 505 c 128,-1,16
 1633 403 1633 403 1581.5 314.5 c 128,-1,17
 1530 226 1530 226 1457.5 153 c 128,-1,18
 1385 80 1385 80 1296.5 28.5 c 128,-1,19
 1208 -23 1208 -23 1106.5 -51.5 c 128,-1,20
 1005 -80 1005 -80 895 -80 c 0,21,22
 786 -80 786 -80 685.5 -51.5 c 128,-1,23
 585 -23 585 -23 497 28.5 c 128,-1,24
 409 80 409 80 336.5 153 c 128,-1,25
 264 226 264 226 212.5 314.5 c 128,-1,26
 161 403 161 403 132.5 505 c 128,-1,27
 104 607 104 607 104 717 c 0,0,1
203 713 m 0,28,29
 203 618 203 618 227.5 529 c 128,-1,30
 252 440 252 440 297 363 c 128,-1,31
 342 286 342 286 405.5 222 c 128,-1,32
 469 158 469 158 546 112 c 128,-1,33
 623 66 623 66 712 41 c 128,-1,34
 801 16 801 16 897 16 c 256,35,36
 993 16 993 16 1082 41.5 c 128,-1,37
 1171 67 1171 67 1248 113 c 128,-1,38
 1325 159 1325 159 1388.5 223 c 128,-1,39
 1452 287 1452 287 1497 365 c 128,-1,40
 1542 443 1542 443 1566.5 532 c 128,-1,41
 1591 621 1591 621 1591 717 c 0,42,43
 1591 814 1591 814 1566.5 903.5 c 128,-1,44
 1542 993 1542 993 1497 1070.5 c 128,-1,45
 1452 1148 1452 1148 1389 1212 c 128,-1,46
 1326 1276 1326 1276 1249 1321.5 c 128,-1,47
 1172 1367 1172 1367 1083.5 1392 c 128,-1,48
 995 1417 995 1417 899 1417 c 0,49,50
 804 1417 804 1417 715.5 1392.5 c 128,-1,51
 627 1368 627 1368 549.5 1322.5 c 128,-1,52
 472 1277 472 1277 408 1213 c 128,-1,53
 344 1149 344 1149 298.5 1071 c 128,-1,54
 253 993 253 993 228 902.5 c 128,-1,55
 203 812 203 812 203 713 c 0,28,29
451 717 m 0,56,57
 451 816 451 816 485.5 903.5 c 128,-1,58
 520 991 520 991 585.5 1056.5 c 128,-1,59
 651 1122 651 1122 744.5 1160 c 128,-1,60
 838 1198 838 1198 956 1198 c 0,61,62
 1025 1198 1025 1198 1079 1189.5 c 128,-1,63
 1133 1181 1133 1181 1170 1170 c 0,64,65
 1213 1158 1213 1158 1245 1143 c 1,66,-1
 1245 895 l 1,67,-1
 1130 895 l 1,68,-1
 1102 1059 l 1,69,70
 1090 1069 1090 1069 1073 1077 c 0,71,72
 1058 1084 1058 1084 1036 1090 c 128,-1,73
 1014 1096 1014 1096 985 1096 c 0,74,75
 904 1096 904 1096 846.5 1061 c 128,-1,76
 789 1026 789 1026 753 971 c 128,-1,77
 717 916 717 916 700.5 848 c 128,-1,78
 684 780 684 780 684 713 c 0,79,80
 684 632 684 632 704 563 c 128,-1,81
 724 494 724 494 762.5 443.5 c 128,-1,82
 801 393 801 393 855.5 364.5 c 128,-1,83
 910 336 910 336 979 336 c 0,84,85
 1006 336 1006 336 1028 340.5 c 128,-1,86
 1050 345 1050 345 1067 350 c 0,87,88
 1086 356 1086 356 1102 365 c 1,89,-1
 1130 541 l 1,90,-1
 1245 541 l 1,91,-1
 1245 285 l 1,92,93
 1208 270 1208 270 1162 259 c 0,94,95
 1123 249 1123 249 1068.5 241 c 128,-1,96
 1014 233 1014 233 948 233 c 0,97,98
 839 233 839 233 747.5 265.5 c 128,-1,99
 656 298 656 298 590 360.5 c 128,-1,100
 524 423 524 423 487.5 513 c 128,-1,101
 451 603 451 603 451 717 c 0,56,57
EndSplineSet
EndChar

StartChar: ordfeminine
Encoding: 170 170 108
Width: 756
GlyphClass: 2
Flags: W
LayerCount: 2
Fore
SplineSet
84 610 m 1,0,-1
 104 711 l 1,1,-1
 748 711 l 1,2,-1
 727 610 l 1,3,-1
 84 610 l 1,0,-1
152 993 m 0,4,5
 152 1062 152 1062 176.5 1134.5 c 128,-1,6
 201 1207 201 1207 252 1265.5 c 128,-1,7
 303 1324 303 1324 381.5 1361.5 c 128,-1,8
 460 1399 460 1399 567 1399 c 0,9,10
 596 1399 596 1399 625.5 1391 c 128,-1,11
 655 1383 655 1383 678 1372 c 1,12,-1
 686 1382 l 1,13,-1
 829 1382 l 1,14,15
 825 1373 825 1373 820 1362 c 128,-1,16
 815 1351 815 1351 810 1340.5 c 128,-1,17
 805 1330 805 1330 800.5 1321.5 c 128,-1,18
 796 1313 796 1313 795 1309 c 2,19,-1
 709 903 l 1,20,21
 709 875 709 875 715 864.5 c 128,-1,22
 721 854 721 854 745 854 c 0,23,24
 748 854 748 854 764.5 857.5 c 128,-1,25
 781 861 781 861 801 866 c 128,-1,26
 821 871 821 871 839 875 c 128,-1,27
 857 879 857 879 862 881 c 1,28,-1
 862 821 l 1,29,30
 816 804 816 804 763 787 c 128,-1,31
 710 770 710 770 659 770 c 0,32,33
 571 770 571 770 547 825 c 1,34,35
 512 804 512 804 466.5 787 c 128,-1,36
 421 770 421 770 375 770 c 0,37,38
 313 770 313 770 270 792 c 128,-1,39
 227 814 227 814 201 847.5 c 128,-1,40
 175 881 175 881 163.5 920 c 128,-1,41
 152 959 152 959 152 993 c 0,4,5
340 1001 m 0,42,43
 340 977 340 977 340.5 952 c 128,-1,44
 341 927 341 927 348 907 c 128,-1,45
 355 887 355 887 371 874.5 c 128,-1,46
 387 862 387 862 418 862 c 0,47,48
 439 862 439 862 457.5 871 c 128,-1,49
 476 880 476 880 492 892 c 128,-1,50
 508 904 508 904 520 916 c 128,-1,51
 532 928 532 928 539 934 c 1,52,53
 544 958 544 958 547 971 c 128,-1,54
 550 984 550 984 552.5 996 c 128,-1,55
 555 1008 555 1008 558 1024 c 128,-1,56
 561 1040 561 1040 567 1069 c 128,-1,57
 573 1098 573 1098 583 1145.5 c 128,-1,58
 593 1193 593 1193 608 1268 c 0,59,60
 609 1271 609 1271 608 1280.5 c 128,-1,61
 607 1290 607 1290 604 1300.5 c 128,-1,62
 601 1311 601 1311 597 1319 c 128,-1,63
 593 1327 593 1327 588 1327 c 0,64,65
 523 1327 523 1327 476.5 1296 c 128,-1,66
 430 1265 430 1265 399.5 1217 c 128,-1,67
 369 1169 369 1169 354.5 1111.5 c 128,-1,68
 340 1054 340 1054 340 1001 c 0,42,43
EndSplineSet
EndChar

StartChar: guillemotleft
Encoding: 171 171 109
Width: 952
GlyphClass: 2
Flags: W
LayerCount: 2
Fore
SplineSet
25 412 m 1,0,-1
 53 571 l 1,1,-1
 510 903 l 1,2,-1
 471 700 l 1,3,-1
 211 494 l 1,4,-1
 393 279 l 1,5,-1
 356 82 l 1,6,-1
 25 412 l 1,0,-1
446 412 m 1,7,-1
 475 571 l 1,8,-1
 932 901 l 1,9,-1
 895 700 l 1,10,-1
 633 494 l 1,11,-1
 815 279 l 1,12,-1
 778 82 l 1,13,-1
 446 412 l 1,7,-1
EndSplineSet
EndChar

StartChar: logicalnot
Encoding: 172 172 110
Width: 1270
GlyphClass: 2
Flags: W
LayerCount: 2
Fore
SplineSet
82 737 m 1,0,-1
 82 860 l 1,1,-1
 1188 860 l 1,2,-1
 1188 387 l 1,3,-1
 1065 387 l 1,4,-1
 1065 737 l 1,5,-1
 82 737 l 1,0,-1
EndSplineSet
EndChar

StartChar: uni00AD
Encoding: 173 173 111
Width: 713
GlyphClass: 2
Flags: W
LayerCount: 2
Fore
SplineSet
61 385 m 1,0,-1
 104 602 l 1,1,-1
 641 602 l 1,2,-1
 598 385 l 1,3,-1
 61 385 l 1,0,-1
EndSplineSet
EndChar

StartChar: registered
Encoding: 174 174 112
Width: 1714
GlyphClass: 2
Flags: W
LayerCount: 2
Fore
SplineSet
104 717 m 0,0,1
 104 826 104 826 132.5 928 c 128,-1,2
 161 1030 161 1030 213 1118 c 128,-1,3
 265 1206 265 1206 337.5 1279 c 128,-1,4
 410 1352 410 1352 498.5 1404 c 128,-1,5
 587 1456 587 1456 688.5 1484.5 c 128,-1,6
 790 1513 790 1513 899 1513 c 0,7,8
 1007 1513 1007 1513 1107.5 1484.5 c 128,-1,9
 1208 1456 1208 1456 1296 1404.5 c 128,-1,10
 1384 1353 1384 1353 1456.5 1280 c 128,-1,11
 1529 1207 1529 1207 1581 1118.5 c 128,-1,12
 1633 1030 1633 1030 1661.5 928.5 c 128,-1,13
 1690 827 1690 827 1690 717 c 256,14,15
 1690 607 1690 607 1661.5 505 c 128,-1,16
 1633 403 1633 403 1581.5 314.5 c 128,-1,17
 1530 226 1530 226 1457.5 153 c 128,-1,18
 1385 80 1385 80 1296.5 28.5 c 128,-1,19
 1208 -23 1208 -23 1106.5 -51.5 c 128,-1,20
 1005 -80 1005 -80 895 -80 c 0,21,22
 786 -80 786 -80 685.5 -51.5 c 128,-1,23
 585 -23 585 -23 497 28.5 c 128,-1,24
 409 80 409 80 336.5 153 c 128,-1,25
 264 226 264 226 212.5 314.5 c 128,-1,26
 161 403 161 403 132.5 505 c 128,-1,27
 104 607 104 607 104 717 c 0,0,1
203 713 m 0,28,29
 203 618 203 618 227.5 529 c 128,-1,30
 252 440 252 440 297 363 c 128,-1,31
 342 286 342 286 405.5 222 c 128,-1,32
 469 158 469 158 546 112 c 128,-1,33
 623 66 623 66 712 41 c 128,-1,34
 801 16 801 16 897 16 c 256,35,36
 993 16 993 16 1082 41.5 c 128,-1,37
 1171 67 1171 67 1248 113 c 128,-1,38
 1325 159 1325 159 1388.5 223 c 128,-1,39
 1452 287 1452 287 1497 365 c 128,-1,40
 1542 443 1542 443 1566.5 532 c 128,-1,41
 1591 621 1591 621 1591 717 c 0,42,43
 1591 814 1591 814 1566.5 903.5 c 128,-1,44
 1542 993 1542 993 1497 1070.5 c 128,-1,45
 1452 1148 1452 1148 1389 1212 c 128,-1,46
 1326 1276 1326 1276 1249 1321.5 c 128,-1,47
 1172 1367 1172 1367 1083.5 1392 c 128,-1,48
 995 1417 995 1417 899 1417 c 0,49,50
 804 1417 804 1417 715.5 1392.5 c 128,-1,51
 627 1368 627 1368 549.5 1322.5 c 128,-1,52
 472 1277 472 1277 408 1213 c 128,-1,53
 344 1149 344 1149 298.5 1071 c 128,-1,54
 253 993 253 993 228 902.5 c 128,-1,55
 203 812 203 812 203 713 c 0,28,29
463 291 m 1,56,-1
 463 358 l 1,57,-1
 535 365 l 1,58,59
 547 365 547 365 556 373 c 128,-1,60
 565 381 565 381 565 395 c 2,61,-1
 565 1083 l 2,62,63
 565 1096 565 1096 556 1103 c 128,-1,64
 547 1110 547 1110 535 1112 c 2,65,-1
 463 1120 l 1,66,-1
 463 1188 l 1,67,-1
 918 1188 l 2,68,69
 942 1188 942 1188 973.5 1184.5 c 128,-1,70
 1005 1181 1005 1181 1037.5 1172 c 128,-1,71
 1070 1163 1070 1163 1101.5 1147.5 c 128,-1,72
 1133 1132 1133 1132 1157.5 1107 c 128,-1,73
 1182 1082 1182 1082 1197 1047 c 128,-1,74
 1212 1012 1212 1012 1212 965 c 0,75,76
 1212 897 1212 897 1185.5 853.5 c 128,-1,77
 1159 810 1159 810 1121.5 784 c 128,-1,78
 1084 758 1084 758 1043.5 746.5 c 128,-1,79
 1003 735 1003 735 975 731 c 1,80,81
 1032 720 1032 720 1067.5 696.5 c 128,-1,82
 1103 673 1103 673 1125.5 642.5 c 128,-1,83
 1148 612 1148 612 1160.5 577.5 c 128,-1,84
 1173 543 1173 543 1183 509 c 128,-1,85
 1193 475 1193 475 1204.5 445 c 128,-1,86
 1216 415 1216 415 1236.5 393.5 c 128,-1,87
 1257 372 1257 372 1290 362 c 128,-1,88
 1323 352 1323 352 1376 358 c 1,89,-1
 1376 291 l 1,90,91
 1332 285 1332 285 1303.5 284 c 128,-1,92
 1275 283 1275 283 1249 283 c 0,93,94
 1183 283 1183 283 1139 300 c 128,-1,95
 1095 317 1095 317 1066 345 c 128,-1,96
 1037 373 1037 373 1019 409 c 128,-1,97
 1001 445 1001 445 987 482.5 c 128,-1,98
 973 520 973 520 959.5 556 c 128,-1,99
 946 592 946 592 924.5 620 c 128,-1,100
 903 648 903 648 871 665 c 128,-1,101
 839 682 839 682 788 682 c 0,102,103
 780 682 780 682 777 683 c 128,-1,104
 774 684 774 684 762 684 c 1,105,-1
 762 395 l 2,106,107
 762 381 762 381 772 373 c 128,-1,108
 782 365 782 365 793 365 c 1,109,-1
 868 358 l 1,110,-1
 868 291 l 1,111,-1
 463 291 l 1,56,-1
762 741 m 1,112,113
 780 739 780 739 790 739 c 2,114,-1
 807 739 l 2,115,116
 838 739 838 739 873.5 745.5 c 128,-1,117
 909 752 909 752 939 771.5 c 128,-1,118
 969 791 969 791 988.5 826 c 128,-1,119
 1008 861 1008 861 1008 918 c 0,120,121
 1008 1003 1008 1003 956 1044 c 128,-1,122
 904 1085 904 1085 805 1085 c 2,123,-1
 762 1085 l 1,124,-1
 762 741 l 1,112,113
EndSplineSet
EndChar

StartChar: macron
Encoding: 175 175 113
Width: 696
GlyphClass: 2
Flags: W
LayerCount: 2
Fore
SplineSet
129 1200 m 1,0,-1
 162 1365 l 1,1,-1
 858 1365 l 1,2,-1
 827 1200 l 1,3,-1
 129 1200 l 1,0,-1
EndSplineSet
EndChar

StartChar: degree
Encoding: 176 176 114
Width: 655
GlyphClass: 2
Flags: W
LayerCount: 2
Fore
SplineSet
102 1249 m 256,0,1
 102 1296 102 1296 119.5 1337 c 128,-1,2
 137 1378 137 1378 168 1409 c 128,-1,3
 199 1440 199 1440 240 1457.5 c 128,-1,4
 281 1475 281 1475 328 1475 c 256,5,6
 375 1475 375 1475 416 1457.5 c 128,-1,7
 457 1440 457 1440 487.5 1409 c 128,-1,8
 518 1378 518 1378 535.5 1337 c 128,-1,9
 553 1296 553 1296 553 1249 c 256,10,11
 553 1202 553 1202 535.5 1161 c 128,-1,12
 518 1120 518 1120 487.5 1089.5 c 128,-1,13
 457 1059 457 1059 416 1041.5 c 128,-1,14
 375 1024 375 1024 328 1024 c 256,15,16
 281 1024 281 1024 240 1041.5 c 128,-1,17
 199 1059 199 1059 168 1089.5 c 128,-1,18
 137 1120 137 1120 119.5 1161 c 128,-1,19
 102 1202 102 1202 102 1249 c 256,0,1
184 1249 m 256,20,21
 184 1219 184 1219 195 1193 c 128,-1,22
 206 1167 206 1167 225.5 1147.5 c 128,-1,23
 245 1128 245 1128 271.5 1117 c 128,-1,24
 298 1106 298 1106 328 1106 c 256,25,26
 358 1106 358 1106 384 1117 c 128,-1,27
 410 1128 410 1128 429.5 1147.5 c 128,-1,28
 449 1167 449 1167 460 1193 c 128,-1,29
 471 1219 471 1219 471 1249 c 256,30,31
 471 1279 471 1279 460 1305 c 128,-1,32
 449 1331 449 1331 429.5 1350.5 c 128,-1,33
 410 1370 410 1370 384 1381.5 c 128,-1,34
 358 1393 358 1393 328 1393 c 256,35,36
 298 1393 298 1393 271.5 1381.5 c 128,-1,37
 245 1370 245 1370 225.5 1350.5 c 128,-1,38
 206 1331 206 1331 195 1305 c 128,-1,39
 184 1279 184 1279 184 1249 c 256,20,21
EndSplineSet
EndChar

StartChar: plusminus
Encoding: 177 177 115
Width: 2048
GlyphClass: 2
Flags: W
LayerCount: 2
Fore
SplineSet
410 0 m 1,0,-1
 410 127 l 1,1,-1
 1638 127 l 1,2,-1
 1638 0 l 1,3,-1
 410 0 l 1,0,-1
410 733 m 1,4,-1
 410 860 l 1,5,-1
 961 860 l 1,6,-1
 961 1229 l 1,7,-1
 1087 1229 l 1,8,-1
 1087 860 l 1,9,-1
 1638 860 l 1,10,-1
 1638 733 l 1,11,-1
 1087 733 l 1,12,-1
 1087 365 l 1,13,-1
 961 365 l 1,14,-1
 961 733 l 1,15,-1
 410 733 l 1,4,-1
EndSplineSet
EndChar

StartChar: uni00B2
Encoding: 178 178 116
Width: 797
GlyphClass: 2
Flags: W
LayerCount: 2
Fore
SplineSet
94 784 m 1,0,-1
 113 870 l 1,1,2
 258 964 258 964 365 1038 c 128,-1,3
 472 1112 472 1112 542.5 1176.5 c 128,-1,4
 613 1241 613 1241 647.5 1301 c 128,-1,5
 682 1361 682 1361 682 1427 c 0,6,7
 682 1463 682 1463 670.5 1486.5 c 128,-1,8
 659 1510 659 1510 642.5 1523.5 c 128,-1,9
 626 1537 626 1537 607 1542.5 c 128,-1,10
 588 1548 588 1548 573 1548 c 0,11,12
 546 1548 546 1548 519 1540 c 128,-1,13
 492 1532 492 1532 479 1526 c 1,14,-1
 451 1399 l 1,15,16
 445 1395 445 1395 438 1389.5 c 128,-1,17
 431 1384 431 1384 421.5 1378.5 c 128,-1,18
 412 1373 412 1373 397 1369.5 c 128,-1,19
 382 1366 382 1366 360 1366 c 0,20,21
 315 1366 315 1366 287.5 1388.5 c 128,-1,22
 260 1411 260 1411 260 1442 c 0,23,24
 260 1484 260 1484 286 1518.5 c 128,-1,25
 312 1553 312 1553 359 1577 c 128,-1,26
 406 1601 406 1601 471.5 1614.5 c 128,-1,27
 537 1628 537 1628 616 1628 c 0,28,29
 745 1628 745 1628 818 1582.5 c 128,-1,30
 891 1537 891 1537 891 1442 c 0,31,32
 891 1384 891 1384 862.5 1329 c 128,-1,33
 834 1274 834 1274 787 1222.5 c 128,-1,34
 740 1171 740 1171 681 1124 c 128,-1,35
 622 1077 622 1077 561.5 1035.5 c 128,-1,36
 501 994 501 994 443.5 959 c 128,-1,37
 386 924 386 924 344 897 c 1,38,-1
 684 897 l 1,39,-1
 729 999 l 1,40,-1
 831 999 l 1,41,-1
 788 784 l 1,42,-1
 94 784 l 1,0,-1
EndSplineSet
EndChar

StartChar: uni00B3
Encoding: 179 179 117
Width: 797
GlyphClass: 2
Flags: W
LayerCount: 2
Fore
SplineSet
135 903 m 0,0,1
 135 912 135 912 141.5 927.5 c 128,-1,2
 148 943 148 943 161 957.5 c 128,-1,3
 174 972 174 972 194 982.5 c 128,-1,4
 214 993 214 993 240 993 c 0,5,6
 271 993 271 993 288 982 c 128,-1,7
 305 971 305 971 319 965 c 1,8,-1
 340 860 l 1,9,10
 344 858 344 858 352.5 855 c 128,-1,11
 361 852 361 852 372.5 848.5 c 128,-1,12
 384 845 384 845 396 842.5 c 128,-1,13
 408 840 408 840 418 840 c 0,14,15
 453 840 453 840 490.5 855 c 128,-1,16
 528 870 528 870 558.5 897.5 c 128,-1,17
 589 925 589 925 609 963.5 c 128,-1,18
 629 1002 629 1002 629 1049 c 0,19,20
 629 1092 629 1092 612 1117 c 128,-1,21
 595 1142 595 1142 573.5 1155 c 128,-1,22
 552 1168 552 1168 532.5 1171 c 128,-1,23
 513 1174 513 1174 508 1174 c 0,24,25
 499 1174 499 1174 489 1173 c 128,-1,26
 479 1172 479 1172 465.5 1170 c 128,-1,27
 452 1168 452 1168 432.5 1165.5 c 128,-1,28
 413 1163 413 1163 385 1159 c 1,29,-1
 399 1255 l 1,30,31
 460 1252 460 1252 511.5 1263 c 128,-1,32
 563 1274 563 1274 600.5 1297.5 c 128,-1,33
 638 1321 638 1321 659 1355.5 c 128,-1,34
 680 1390 680 1390 680 1434 c 0,35,36
 680 1471 680 1471 666 1494 c 128,-1,37
 652 1517 652 1517 633.5 1530 c 128,-1,38
 615 1543 615 1543 597.5 1547.5 c 128,-1,39
 580 1552 580 1552 573 1552 c 0,40,41
 538 1552 538 1552 513 1541 c 128,-1,42
 488 1530 488 1530 477 1522 c 1,43,-1
 457 1407 l 1,44,45
 450 1404 450 1404 438.5 1399.5 c 128,-1,46
 427 1395 427 1395 414 1390.5 c 128,-1,47
 401 1386 401 1386 387.5 1383 c 128,-1,48
 374 1380 374 1380 362 1380 c 0,49,50
 348 1380 348 1380 332 1387 c 128,-1,51
 316 1394 316 1394 302.5 1405.5 c 128,-1,52
 289 1417 289 1417 280.5 1432 c 128,-1,53
 272 1447 272 1447 272 1464 c 0,54,55
 272 1500 272 1500 299.5 1530 c 128,-1,56
 327 1560 327 1560 374 1581.5 c 128,-1,57
 421 1603 421 1603 484 1615.5 c 128,-1,58
 547 1628 547 1628 618 1628 c 0,59,60
 758 1628 758 1628 822.5 1580 c 128,-1,61
 887 1532 887 1532 887 1450 c 0,62,63
 887 1419 887 1419 873.5 1387.5 c 128,-1,64
 860 1356 860 1356 831.5 1326 c 128,-1,65
 803 1296 803 1296 758.5 1270 c 128,-1,66
 714 1244 714 1244 653 1225 c 1,67,68
 741 1209 741 1209 786 1171 c 128,-1,69
 831 1133 831 1133 831 1067 c 0,70,71
 831 1011 831 1011 801 956.5 c 128,-1,72
 771 902 771 902 715.5 859.5 c 128,-1,73
 660 817 660 817 581 790.5 c 128,-1,74
 502 764 502 764 403 764 c 0,75,76
 331 764 331 764 280 778 c 128,-1,77
 229 792 229 792 197 813 c 128,-1,78
 165 834 165 834 150 858 c 128,-1,79
 135 882 135 882 135 903 c 0,0,1
EndSplineSet
EndChar

StartChar: acute
Encoding: 180 180 118
Width: 657
GlyphClass: 2
Flags: W
LayerCount: 2
Fore
SplineSet
307 1128 m 1,0,-1
 588 1438 l 2,1,2
 605 1457 605 1457 619.5 1469.5 c 128,-1,3
 634 1482 634 1482 649 1489.5 c 128,-1,4
 664 1497 664 1497 680 1500 c 128,-1,5
 696 1503 696 1503 717 1503 c 0,6,7
 750 1503 750 1503 772.5 1493 c 128,-1,8
 795 1483 795 1483 808.5 1467.5 c 128,-1,9
 822 1452 822 1452 828 1432.5 c 128,-1,10
 834 1413 834 1413 834 1395 c 0,11,12
 834 1385 834 1385 830 1372.5 c 128,-1,13
 826 1360 826 1360 818.5 1348 c 128,-1,14
 811 1336 811 1336 801.5 1325.5 c 128,-1,15
 792 1315 792 1315 780 1309 c 2,16,-1
 451 1128 l 1,17,-1
 307 1128 l 1,0,-1
EndSplineSet
EndChar

StartChar: uni00B5
Encoding: 181 181 119
Width: 1194
GlyphClass: 2
Flags: W
LayerCount: 2
Fore
SplineSet
-57 -350 m 0,0,1
 -57 -314 -57 -314 -49 -290.5 c 128,-1,2
 -41 -267 -41 -267 -29 -247 c 128,-1,3
 -17 -227 -17 -227 -3 -206.5 c 128,-1,4
 11 -186 11 -186 23 -156 c 0,5,6
 52 -86 52 -86 70 -12.5 c 128,-1,7
 88 61 88 61 102 135 c 2,8,-1
 274 999 l 1,9,-1
 530 999 l 1,10,-1
 399 334 l 2,11,12
 394 312 394 312 391.5 289.5 c 128,-1,13
 389 267 389 267 389 244 c 0,14,15
 389 227 389 227 394 206.5 c 128,-1,16
 399 186 399 186 409.5 168 c 128,-1,17
 420 150 420 150 435 137.5 c 128,-1,18
 450 125 450 125 471 125 c 0,19,20
 503 125 503 125 533 138 c 128,-1,21
 563 151 563 151 590 170.5 c 128,-1,22
 617 190 617 190 641.5 213 c 128,-1,23
 666 236 666 236 688 256 c 1,24,-1
 836 999 l 1,25,-1
 1096 999 l 1,26,-1
 942 221 l 2,27,28
 940 212 940 212 938.5 194 c 128,-1,29
 937 176 937 176 938 158 c 128,-1,30
 939 140 939 140 945 126.5 c 128,-1,31
 951 113 951 113 965 113 c 0,32,33
 988 113 988 113 1005.5 127 c 128,-1,34
 1023 141 1023 141 1036 161 c 128,-1,35
 1049 181 1049 181 1058.5 203 c 128,-1,36
 1068 225 1068 225 1075 242 c 1,37,-1
 1143 242 l 1,38,39
 1127 182 1127 182 1102 133 c 128,-1,40
 1077 84 1077 84 1040.5 48.5 c 128,-1,41
 1004 13 1004 13 954.5 -6 c 128,-1,42
 905 -25 905 -25 840 -25 c 0,43,44
 806 -25 806 -25 779 -10.5 c 128,-1,45
 752 4 752 4 732.5 27.5 c 128,-1,46
 713 51 713 51 700 80.5 c 128,-1,47
 687 110 687 110 682 139 c 1,48,49
 649 101 649 101 616 70.5 c 128,-1,50
 583 40 583 40 545.5 19 c 128,-1,51
 508 -2 508 -2 465 -13.5 c 128,-1,52
 422 -25 422 -25 369 -25 c 0,53,54
 354 -25 354 -25 334 -16.5 c 128,-1,55
 314 -8 314 -8 293.5 4.5 c 128,-1,56
 273 17 273 17 255 30.5 c 128,-1,57
 237 44 237 44 227 55 c 1,58,59
 216 1 216 1 213.5 -42 c 128,-1,60
 211 -85 211 -85 212.5 -124.5 c 128,-1,61
 214 -164 214 -164 217.5 -205.5 c 128,-1,62
 221 -247 221 -247 221 -299 c 0,63,64
 221 -330 221 -330 206 -358 c 128,-1,65
 191 -386 191 -386 167 -407.5 c 128,-1,66
 143 -429 143 -429 113 -442 c 128,-1,67
 83 -455 83 -455 53 -455 c 0,68,69
 32 -455 32 -455 12.5 -446.5 c 128,-1,70
 -7 -438 -7 -438 -22.5 -423.5 c 128,-1,71
 -38 -409 -38 -409 -47.5 -390 c 128,-1,72
 -57 -371 -57 -371 -57 -350 c 0,0,1
EndSplineSet
EndChar

StartChar: paragraph
Encoding: 182 182 120
Width: 1096
GlyphClass: 2
Flags: W
LayerCount: 2
Fore
SplineSet
104 961 m 0,0,1
 104 1078 104 1078 139 1157 c 128,-1,2
 174 1236 174 1236 239.5 1284 c 128,-1,3
 305 1332 305 1332 399 1353 c 128,-1,4
 493 1374 493 1374 610 1374 c 2,5,-1
 1090 1374 l 1,6,-1
 1090 1257 l 1,7,-1
 963 1237 l 1,8,-1
 963 -162 l 1,9,-1
 813 -162 l 1,10,-1
 813 1243 l 1,11,-1
 657 1243 l 1,12,-1
 657 553 l 1,13,14
 536 553 536 553 434.5 570.5 c 128,-1,15
 333 588 333 588 259.5 633.5 c 128,-1,16
 186 679 186 679 145 758 c 128,-1,17
 104 837 104 837 104 961 c 0,0,1
EndSplineSet
EndChar

StartChar: periodcentered
Encoding: 183 183 121
Width: 385
GlyphClass: 2
Flags: W
LayerCount: 2
Fore
SplineSet
72 696 m 256,0,1
 72 721 72 721 81.5 743.5 c 128,-1,2
 91 766 91 766 107 782 c 128,-1,3
 123 798 123 798 145 807.5 c 128,-1,4
 167 817 167 817 193 817 c 0,5,6
 218 817 218 817 240 807.5 c 128,-1,7
 262 798 262 798 278 782 c 128,-1,8
 294 766 294 766 303.5 743.5 c 128,-1,9
 313 721 313 721 313 696 c 256,10,11
 313 671 313 671 303.5 649 c 128,-1,12
 294 627 294 627 278 610.5 c 128,-1,13
 262 594 262 594 240 584.5 c 128,-1,14
 218 575 218 575 193 575 c 0,15,16
 167 575 167 575 145 584.5 c 128,-1,17
 123 594 123 594 107 610.5 c 128,-1,18
 91 627 91 627 81.5 649 c 128,-1,19
 72 671 72 671 72 696 c 256,0,1
EndSplineSet
EndChar

StartChar: cedilla
Encoding: 184 184 122
Width: 504
GlyphClass: 2
Flags: W
LayerCount: 2
Fore
SplineSet
-111 -451 m 1,0,-1
 -90 -348 l 1,1,2
 -68 -353 -68 -353 -46 -357 c 0,3,4
 -27 -360 -27 -360 -5 -362.5 c 128,-1,5
 17 -365 17 -365 37 -365 c 256,6,7
 57 -365 57 -365 80 -361.5 c 128,-1,8
 103 -358 103 -358 123 -349 c 128,-1,9
 143 -340 143 -340 156.5 -323.5 c 128,-1,10
 170 -307 170 -307 170 -281 c 0,11,12
 170 -252 170 -252 147.5 -238.5 c 128,-1,13
 125 -225 125 -225 94 -225 c 0,14,15
 89 -225 89 -225 81 -225.5 c 128,-1,16
 73 -226 73 -226 65 -227 c 2,17,-1
 47 -229 l 1,18,-1
 92 0 l 1,19,-1
 197 0 l 1,20,-1
 174 -111 l 1,21,22
 177 -112 177 -112 181 -112 c 0,23,24
 186 -113 186 -113 203 -113 c 0,25,26
 234 -113 234 -113 260.5 -120 c 128,-1,27
 287 -127 287 -127 306.5 -141.5 c 128,-1,28
 326 -156 326 -156 337 -178.5 c 128,-1,29
 348 -201 348 -201 348 -231 c 0,30,31
 348 -291 348 -291 322 -336.5 c 128,-1,32
 296 -382 296 -382 253.5 -412 c 128,-1,33
 211 -442 211 -442 158 -457.5 c 128,-1,34
 105 -473 105 -473 51 -473 c 0,35,36
 19 -473 19 -473 -10 -470 c 128,-1,37
 -39 -467 -39 -467 -62 -462 c 1,38,39
 -88 -458 -88 -458 -111 -451 c 1,0,-1
EndSplineSet
EndChar

StartChar: uni00B9
Encoding: 185 185 123
Width: 797
GlyphClass: 2
Flags: W
LayerCount: 2
Fore
SplineSet
252 784 m 1,0,-1
 252 852 l 1,1,-1
 387 860 l 2,2,3
 396 860 396 860 403 865.5 c 128,-1,4
 410 871 410 871 412 879 c 2,5,-1
 543 1499 l 1,6,-1
 338 1475 l 1,7,-1
 338 1542 l 1,8,-1
 670 1628 l 1,9,-1
 760 1628 l 1,10,-1
 598 877 l 2,11,12
 596 870 596 870 605 866 c 128,-1,13
 614 862 614 862 625 860 c 1,14,-1
 725 852 l 1,15,-1
 725 784 l 1,16,-1
 252 784 l 1,0,-1
EndSplineSet
EndChar

StartChar: ordmasculine
Encoding: 186 186 124
Width: 735
GlyphClass: 2
Flags: W
LayerCount: 2
Fore
SplineSet
63 610 m 1,0,-1
 84 711 l 1,1,-1
 686 711 l 1,2,-1
 668 610 l 1,3,-1
 63 610 l 1,0,-1
147 1006 m 0,4,5
 147 1078 147 1078 172.5 1148.5 c 128,-1,6
 198 1219 198 1219 246.5 1274.5 c 128,-1,7
 295 1330 295 1330 366.5 1364.5 c 128,-1,8
 438 1399 438 1399 530 1399 c 0,9,10
 591 1399 591 1399 641.5 1383.5 c 128,-1,11
 692 1368 692 1368 727 1338 c 128,-1,12
 762 1308 762 1308 781.5 1262.5 c 128,-1,13
 801 1217 801 1217 801 1157 c 0,14,15
 801 1085 801 1085 774.5 1015.5 c 128,-1,16
 748 946 748 946 698 891.5 c 128,-1,17
 648 837 648 837 576 803.5 c 128,-1,18
 504 770 504 770 414 770 c 0,19,20
 345 770 345 770 294.5 787.5 c 128,-1,21
 244 805 244 805 211 836.5 c 128,-1,22
 178 868 178 868 162.5 911.5 c 128,-1,23
 147 955 147 955 147 1006 c 0,4,5
338 1012 m 0,24,25
 338 964 338 964 347.5 931 c 128,-1,26
 357 898 357 898 371 877.5 c 128,-1,27
 385 857 385 857 400.5 847.5 c 128,-1,28
 416 838 416 838 428 838 c 0,29,30
 463 838 463 838 495.5 867 c 128,-1,31
 528 896 528 896 553 942.5 c 128,-1,32
 578 989 578 989 593 1046.5 c 128,-1,33
 608 1104 608 1104 608 1161 c 0,34,35
 608 1206 608 1206 598 1238.5 c 128,-1,36
 588 1271 588 1271 574 1292 c 128,-1,37
 560 1313 560 1313 543.5 1323 c 128,-1,38
 527 1333 527 1333 514 1333 c 0,39,40
 484 1333 484 1333 452.5 1306 c 128,-1,41
 421 1279 421 1279 395.5 1234.5 c 128,-1,42
 370 1190 370 1190 354 1132 c 128,-1,43
 338 1074 338 1074 338 1012 c 0,24,25
EndSplineSet
EndChar

StartChar: guillemotright
Encoding: 187 187 125
Width: 952
GlyphClass: 2
Flags: W
LayerCount: 2
Fore
SplineSet
4 84 m 1,0,-1
 41 285 l 1,1,-1
 303 492 l 1,2,-1
 121 707 l 1,3,-1
 158 903 l 1,4,-1
 489 573 l 1,5,-1
 461 414 l 1,6,-1
 4 84 l 1,0,-1
426 82 m 1,7,-1
 465 285 l 1,8,-1
 725 492 l 1,9,-1
 543 707 l 1,10,-1
 580 903 l 1,11,-1
 911 573 l 1,12,-1
 883 414 l 1,13,-1
 426 82 l 1,7,-1
EndSplineSet
EndChar

StartChar: onequarter
Encoding: 188 188 126
Width: 1858
GlyphClass: 2
Flags: W
LayerCount: 2
Fore
SplineSet
162 606 m 1,0,-1
 162 674 l 1,1,-1
 297 682 l 2,2,3
 306 682 306 682 313 688 c 128,-1,4
 320 694 320 694 322 700 c 2,5,-1
 453 1323 l 1,6,-1
 248 1296 l 1,7,-1
 248 1366 l 1,8,-1
 580 1450 l 1,9,-1
 670 1450 l 1,10,-1
 510 698 l 2,11,12
 508 692 508 692 516 688 c 128,-1,13
 524 684 524 684 535 682 c 1,14,-1
 635 674 l 1,15,-1
 635 606 l 1,16,-1
 162 606 l 1,0,-1
311 0 m 1,17,-1
 1497 1423 l 1,18,-1
 1649 1423 l 1,19,-1
 461 0 l 1,20,-1
 311 0 l 1,17,-1
975 219 m 1,21,-1
 995 324 l 1,22,-1
 1534 831 l 1,23,-1
 1677 831 l 1,24,-1
 1577 319 l 1,25,-1
 1724 319 l 1,26,-1
 1706 219 l 1,27,-1
 1556 219 l 1,28,-1
 1505 -37 l 1,29,-1
 1335 -37 l 1,30,-1
 1386 219 l 1,31,-1
 975 219 l 1,21,-1
1122 319 m 1,32,-1
 1407 319 l 1,33,-1
 1473 653 l 1,34,-1
 1122 319 l 1,32,-1
EndSplineSet
EndChar

StartChar: onehalf
Encoding: 189 189 127
Width: 1858
GlyphClass: 2
Flags: W
LayerCount: 2
Fore
SplineSet
162 606 m 1,0,-1
 162 674 l 1,1,-1
 297 682 l 2,2,3
 306 682 306 682 313 688 c 128,-1,4
 320 694 320 694 322 700 c 2,5,-1
 453 1323 l 1,6,-1
 248 1296 l 1,7,-1
 248 1366 l 1,8,-1
 580 1450 l 1,9,-1
 670 1450 l 1,10,-1
 510 698 l 2,11,12
 508 692 508 692 516 688 c 128,-1,13
 524 684 524 684 535 682 c 1,14,-1
 635 674 l 1,15,-1
 635 606 l 1,16,-1
 162 606 l 1,0,-1
266 0 m 1,17,-1
 1452 1423 l 1,18,-1
 1602 1423 l 1,19,-1
 416 0 l 1,20,-1
 266 0 l 1,17,-1
1008 0 m 1,21,-1
 1026 102 l 1,22,23
 1068 130 1068 130 1123.5 164 c 128,-1,24
 1179 198 1179 198 1237.5 238 c 128,-1,25
 1296 278 1296 278 1353 323 c 128,-1,26
 1410 368 1410 368 1454.5 418 c 128,-1,27
 1499 468 1499 468 1526.5 521.5 c 128,-1,28
 1554 575 1554 575 1554 633 c 0,29,30
 1554 692 1554 692 1519 725 c 128,-1,31
 1484 758 1484 758 1425 758 c 0,32,33
 1405 758 1405 758 1388.5 754 c 128,-1,34
 1372 750 1372 750 1354 745 c 1,35,-1
 1321 580 l 1,36,37
 1299 570 1299 570 1274.5 563.5 c 128,-1,38
 1250 557 1250 557 1227 557 c 0,39,40
 1193 557 1193 557 1167 572.5 c 128,-1,41
 1141 588 1141 588 1141 627 c 0,42,43
 1141 667 1141 667 1159 698.5 c 128,-1,44
 1177 730 1177 730 1206.5 753.5 c 128,-1,45
 1236 777 1236 777 1274 793.5 c 128,-1,46
 1312 810 1312 810 1352 820.5 c 128,-1,47
 1392 831 1392 831 1431 835.5 c 128,-1,48
 1470 840 1470 840 1501 840 c 0,49,50
 1546 840 1546 840 1591.5 829.5 c 128,-1,51
 1637 819 1637 819 1673.5 796 c 128,-1,52
 1710 773 1710 773 1732.5 736.5 c 128,-1,53
 1755 700 1755 700 1755 647 c 0,54,55
 1755 589 1755 589 1726.5 534.5 c 128,-1,56
 1698 480 1698 480 1651.5 430.5 c 128,-1,57
 1605 381 1605 381 1546.5 337 c 128,-1,58
 1488 293 1488 293 1427 255 c 128,-1,59
 1366 217 1366 217 1308 186 c 128,-1,60
 1250 155 1250 155 1206 131 c 1,61,-1
 1575 131 l 1,62,-1
 1618 242 l 1,63,-1
 1706 242 l 1,64,-1
 1659 0 l 1,65,-1
 1008 0 l 1,21,-1
EndSplineSet
EndChar

StartChar: threequarters
Encoding: 190 190 128
Width: 1858
GlyphClass: 2
Flags: W
LayerCount: 2
Fore
SplineSet
115 731 m 0,0,1
 115 756 115 756 124 775.5 c 128,-1,2
 133 795 133 795 149 808.5 c 128,-1,3
 165 822 165 822 185.5 829 c 128,-1,4
 206 836 206 836 229 836 c 0,5,6
 255 836 255 836 283 823 c 1,7,-1
 299 684 l 1,8,9
 321 678 321 678 342 673 c 128,-1,10
 363 668 363 668 385 668 c 0,11,12
 424 668 424 668 461 683.5 c 128,-1,13
 498 699 498 699 526.5 726 c 128,-1,14
 555 753 555 753 572.5 788 c 128,-1,15
 590 823 590 823 590 862 c 0,16,17
 590 910 590 910 565 936 c 128,-1,18
 540 962 540 962 503.5 972.5 c 128,-1,19
 467 983 467 983 424.5 982 c 128,-1,20
 382 981 382 981 348 977 c 1,21,-1
 367 1069 l 1,22,23
 413 1066 413 1066 460.5 1072 c 128,-1,24
 508 1078 508 1078 547 1098 c 128,-1,25
 586 1118 586 1118 610.5 1154 c 128,-1,26
 635 1190 635 1190 635 1247 c 0,27,28
 635 1276 635 1276 623 1297.5 c 128,-1,29
 611 1319 611 1319 591.5 1333.5 c 128,-1,30
 572 1348 572 1348 547 1355 c 128,-1,31
 522 1362 522 1362 496 1362 c 0,32,33
 479 1362 479 1362 463 1359.5 c 128,-1,34
 447 1357 447 1357 430 1352 c 1,35,-1
 401 1200 l 1,36,37
 383 1191 383 1191 364.5 1187.5 c 128,-1,38
 346 1184 346 1184 328 1184 c 0,39,40
 311 1184 311 1184 295 1187.5 c 128,-1,41
 279 1191 279 1191 266 1199.5 c 128,-1,42
 253 1208 253 1208 245.5 1221 c 128,-1,43
 238 1234 238 1234 238 1253 c 0,44,45
 238 1288 238 1288 255.5 1316 c 128,-1,46
 273 1344 273 1344 301 1365.5 c 128,-1,47
 329 1387 329 1387 365 1402 c 128,-1,48
 401 1417 401 1417 438 1426 c 128,-1,49
 475 1435 475 1435 510 1439.5 c 128,-1,50
 545 1444 545 1444 571 1444 c 0,51,52
 612 1444 612 1444 657.5 1436 c 128,-1,53
 703 1428 703 1428 741.5 1408.5 c 128,-1,54
 780 1389 780 1389 805.5 1356.5 c 128,-1,55
 831 1324 831 1324 831 1274 c 0,56,57
 831 1222 831 1222 806.5 1180.5 c 128,-1,58
 782 1139 782 1139 743 1109 c 128,-1,59
 704 1079 704 1079 656 1061 c 0,60,61
 609 1043 609 1043 563 1038 c 1,62,63
 598 1037 598 1037 636 1030 c 0,64,65
 676 1022 676 1022 709.5 1003 c 128,-1,66
 743 984 743 984 764.5 954 c 128,-1,67
 786 924 786 924 786 881 c 0,68,69
 786 829 786 829 766 787.5 c 128,-1,70
 746 746 746 746 712.5 714 c 128,-1,71
 679 682 679 682 635 659 c 128,-1,72
 591 636 591 636 543.5 621 c 128,-1,73
 496 606 496 606 448 599 c 128,-1,74
 400 592 400 592 358 592 c 0,75,76
 327 592 327 592 285.5 598 c 128,-1,77
 244 604 244 604 206 620 c 128,-1,78
 168 636 168 636 141.5 663 c 128,-1,79
 115 690 115 690 115 731 c 0,0,1
328 0 m 1,80,-1
 1513 1423 l 1,81,-1
 1663 1423 l 1,82,-1
 477 0 l 1,83,-1
 328 0 l 1,80,-1
993 219 m 1,84,-1
 1014 324 l 1,85,-1
 1550 831 l 1,86,-1
 1694 831 l 1,87,-1
 1591 319 l 1,88,-1
 1743 319 l 1,89,-1
 1722 219 l 1,90,-1
 1573 219 l 1,91,-1
 1522 -37 l 1,92,-1
 1352 -37 l 1,93,-1
 1403 219 l 1,94,-1
 993 219 l 1,84,-1
1141 319 m 1,95,-1
 1421 319 l 1,96,-1
 1489 653 l 1,97,-1
 1141 319 l 1,95,-1
EndSplineSet
EndChar

StartChar: questiondown
Encoding: 191 191 129
Width: 1069
GlyphClass: 2
Flags: W
LayerCount: 2
Fore
SplineSet
18 -94 m 0,0,1
 18 -24 18 -24 40.5 38 c 128,-1,2
 63 100 63 100 102.5 153 c 128,-1,3
 142 206 142 206 194.5 249.5 c 128,-1,4
 247 293 247 293 307 327 c 128,-1,5
 367 361 367 361 431 384.5 c 128,-1,6
 495 408 495 408 557 420 c 1,7,-1
 592 594 l 1,8,-1
 731 594 l 1,9,-1
 675 322 l 1,10,11
 604 307 604 307 537 270 c 128,-1,12
 470 233 470 233 418.5 179 c 128,-1,13
 367 125 367 125 336 57 c 128,-1,14
 305 -11 305 -11 305 -88 c 0,15,16
 305 -139 305 -139 322.5 -176 c 128,-1,17
 340 -213 340 -213 370 -237 c 128,-1,18
 400 -261 400 -261 440.5 -272 c 128,-1,19
 481 -283 481 -283 528 -283 c 1,20,21
 533 -274 533 -274 542 -259 c 128,-1,22
 551 -244 551 -244 562.5 -224.5 c 128,-1,23
 574 -205 574 -205 586.5 -183 c 128,-1,24
 599 -161 599 -161 611 -140 c 0,25,26
 640 -90 640 -90 673 -33 c 1,27,-1
 733 -33 l 2,28,29
 754 -33 754 -33 775 -39.5 c 128,-1,30
 796 -46 796 -46 812 -58.5 c 128,-1,31
 828 -71 828 -71 838 -89 c 128,-1,32
 848 -107 848 -107 848 -131 c 0,33,34
 848 -182 848 -182 827 -222 c 128,-1,35
 806 -262 806 -262 771 -293 c 128,-1,36
 736 -324 736 -324 690.5 -345.5 c 128,-1,37
 645 -367 645 -367 597 -381 c 128,-1,38
 549 -395 549 -395 501 -401.5 c 128,-1,39
 453 -408 453 -408 413 -408 c 0,40,41
 340 -408 340 -408 269.5 -390 c 128,-1,42
 199 -372 199 -372 143 -334 c 128,-1,43
 87 -296 87 -296 52.5 -236.5 c 128,-1,44
 18 -177 18 -177 18 -94 c 0,0,1
544 860 m 0,45,46
 544 893 544 893 556 922.5 c 128,-1,47
 568 952 568 952 589 974.5 c 128,-1,48
 610 997 610 997 638.5 1010.5 c 128,-1,49
 667 1024 667 1024 700 1024 c 0,50,51
 736 1024 736 1024 766.5 1010.5 c 128,-1,52
 797 997 797 997 819.5 973.5 c 128,-1,53
 842 950 842 950 855 918.5 c 128,-1,54
 868 887 868 887 868 852 c 0,55,56
 868 818 868 818 854 789 c 128,-1,57
 840 760 840 760 816 739 c 128,-1,58
 792 718 792 718 761.5 706 c 128,-1,59
 731 694 731 694 698 694 c 256,60,61
 665 694 665 694 637 708 c 128,-1,62
 609 722 609 722 588 745 c 128,-1,63
 567 768 567 768 555.5 798 c 128,-1,64
 544 828 544 828 544 860 c 0,45,46
EndSplineSet
EndChar

StartChar: Agrave
Encoding: 192 192 130
Width: 1464
GlyphClass: 2
Flags: W
LayerCount: 2
Fore
SplineSet
-109 0 m 1,0,-1
 -109 102 l 1,1,-1
 10 115 l 1,2,-1
 768 1407 l 1,3,-1
 1010 1407 l 1,4,-1
 1233 145 l 2,5,6
 1236 125 1236 125 1243.5 119.5 c 128,-1,7
 1251 114 1251 114 1274 111 c 0,8,9
 1288 110 1288 110 1304 108 c 0,10,11
 1318 106 1318 106 1334.5 105 c 128,-1,12
 1351 104 1351 104 1368 102 c 1,13,-1
 1368 0 l 1,14,-1
 801 0 l 1,15,-1
 801 102 l 1,16,17
 817 104 817 104 833.5 105.5 c 128,-1,18
 850 107 850 107 864 109 c 0,19,20
 880 111 880 111 895 113 c 0,21,22
 915 115 915 115 926 120 c 128,-1,23
 937 125 937 125 934 143 c 2,24,-1
 874 518 l 1,25,-1
 487 518 l 1,26,-1
 285 143 l 1,27,28
 275 128 275 128 283 121.5 c 128,-1,29
 291 115 291 115 311 113 c 0,30,31
 327 111 327 111 345 109 c 0,32,33
 360 107 360 107 379 105.5 c 128,-1,34
 398 104 398 104 418 102 c 1,35,-1
 418 0 l 1,36,-1
 -109 0 l 1,0,-1
555 635 m 1,37,-1
 852 635 l 1,38,-1
 784 1032 l 1,39,-1
 555 635 l 1,37,-1
582 1795 m 0,40,41
 582 1813 582 1813 588 1832.5 c 128,-1,42
 594 1852 594 1852 607.5 1867.5 c 128,-1,43
 621 1883 621 1883 643.5 1893 c 128,-1,44
 666 1903 666 1903 699 1903 c 0,45,46
 720 1903 720 1903 736 1900 c 128,-1,47
 752 1897 752 1897 766.5 1889.5 c 128,-1,48
 781 1882 781 1882 795.5 1869.5 c 128,-1,49
 810 1857 810 1857 828 1838 c 2,50,-1
 1108 1528 l 1,51,-1
 965 1528 l 1,52,-1
 633 1709 l 2,53,54
 622 1715 622 1715 613 1725.5 c 128,-1,55
 604 1736 604 1736 597 1748 c 128,-1,56
 590 1760 590 1760 586 1772.5 c 128,-1,57
 582 1785 582 1785 582 1795 c 0,40,41
EndSplineSet
EndChar

StartChar: Aacute
Encoding: 193 193 131
Width: 1464
GlyphClass: 2
Flags: W
LayerCount: 2
Fore
SplineSet
-109 0 m 1,0,-1
 -109 102 l 1,1,-1
 10 115 l 1,2,-1
 768 1407 l 1,3,-1
 1010 1407 l 1,4,-1
 1233 145 l 2,5,6
 1236 125 1236 125 1243.5 119.5 c 128,-1,7
 1251 114 1251 114 1274 111 c 0,8,9
 1288 110 1288 110 1304 108 c 0,10,11
 1318 106 1318 106 1334.5 105 c 128,-1,12
 1351 104 1351 104 1368 102 c 1,13,-1
 1368 0 l 1,14,-1
 801 0 l 1,15,-1
 801 102 l 1,16,17
 817 104 817 104 833.5 105.5 c 128,-1,18
 850 107 850 107 864 109 c 0,19,20
 880 111 880 111 895 113 c 0,21,22
 915 115 915 115 926 120 c 128,-1,23
 937 125 937 125 934 143 c 2,24,-1
 874 518 l 1,25,-1
 487 518 l 1,26,-1
 285 143 l 1,27,28
 275 128 275 128 283 121.5 c 128,-1,29
 291 115 291 115 311 113 c 0,30,31
 327 111 327 111 345 109 c 0,32,33
 360 107 360 107 379 105.5 c 128,-1,34
 398 104 398 104 418 102 c 1,35,-1
 418 0 l 1,36,-1
 -109 0 l 1,0,-1
555 635 m 1,37,-1
 852 635 l 1,38,-1
 784 1032 l 1,39,-1
 555 635 l 1,37,-1
708 1528 m 1,40,-1
 989 1838 l 2,41,42
 1006 1857 1006 1857 1020.5 1869.5 c 128,-1,43
 1035 1882 1035 1882 1050 1889.5 c 128,-1,44
 1065 1897 1065 1897 1081 1900 c 128,-1,45
 1097 1903 1097 1903 1118 1903 c 0,46,47
 1151 1903 1151 1903 1173.5 1893 c 128,-1,48
 1196 1883 1196 1883 1209.5 1867.5 c 128,-1,49
 1223 1852 1223 1852 1229 1832.5 c 128,-1,50
 1235 1813 1235 1813 1235 1795 c 0,51,52
 1235 1785 1235 1785 1231 1772.5 c 128,-1,53
 1227 1760 1227 1760 1219.5 1748 c 128,-1,54
 1212 1736 1212 1736 1202.5 1725.5 c 128,-1,55
 1193 1715 1193 1715 1181 1709 c 2,56,-1
 852 1528 l 1,57,-1
 708 1528 l 1,40,-1
EndSplineSet
EndChar

StartChar: Acircumflex
Encoding: 194 194 132
Width: 1464
GlyphClass: 2
Flags: W
LayerCount: 2
Fore
SplineSet
-109 0 m 1,0,-1
 -109 102 l 1,1,-1
 10 115 l 1,2,-1
 768 1407 l 1,3,-1
 1010 1407 l 1,4,-1
 1233 145 l 2,5,6
 1236 125 1236 125 1243.5 119.5 c 128,-1,7
 1251 114 1251 114 1274 111 c 0,8,9
 1288 110 1288 110 1304 108 c 0,10,11
 1318 106 1318 106 1334.5 105 c 128,-1,12
 1351 104 1351 104 1368 102 c 1,13,-1
 1368 0 l 1,14,-1
 801 0 l 1,15,-1
 801 102 l 1,16,17
 817 104 817 104 833.5 105.5 c 128,-1,18
 850 107 850 107 864 109 c 0,19,20
 880 111 880 111 895 113 c 0,21,22
 915 115 915 115 926 120 c 128,-1,23
 937 125 937 125 934 143 c 2,24,-1
 874 518 l 1,25,-1
 487 518 l 1,26,-1
 285 143 l 1,27,28
 275 128 275 128 283 121.5 c 128,-1,29
 291 115 291 115 311 113 c 0,30,31
 327 111 327 111 345 109 c 0,32,33
 360 107 360 107 379 105.5 c 128,-1,34
 398 104 398 104 418 102 c 1,35,-1
 418 0 l 1,36,-1
 -109 0 l 1,0,-1
536 1528 m 1,37,-1
 833 1879 l 1,38,-1
 1074 1879 l 1,39,-1
 1232 1528 l 1,40,-1
 1060 1528 l 1,41,-1
 923 1723 l 1,42,-1
 706 1528 l 1,43,-1
 536 1528 l 1,37,-1
555 635 m 1,44,-1
 852 635 l 1,45,-1
 784 1032 l 1,46,-1
 555 635 l 1,44,-1
EndSplineSet
EndChar

StartChar: Atilde
Encoding: 195 195 133
Width: 1464
GlyphClass: 2
Flags: W
LayerCount: 2
Fore
SplineSet
-109 0 m 1,0,-1
 -109 102 l 1,1,-1
 10 115 l 1,2,-1
 768 1407 l 1,3,-1
 1010 1407 l 1,4,-1
 1233 145 l 2,5,6
 1236 125 1236 125 1243.5 119.5 c 128,-1,7
 1251 114 1251 114 1274 111 c 0,8,9
 1288 110 1288 110 1304 108 c 0,10,11
 1318 106 1318 106 1334.5 105 c 128,-1,12
 1351 104 1351 104 1368 102 c 1,13,-1
 1368 0 l 1,14,-1
 801 0 l 1,15,-1
 801 102 l 1,16,17
 817 104 817 104 833.5 105.5 c 128,-1,18
 850 107 850 107 864 109 c 0,19,20
 880 111 880 111 895 113 c 0,21,22
 915 115 915 115 926 120 c 128,-1,23
 937 125 937 125 934 143 c 2,24,-1
 874 518 l 1,25,-1
 487 518 l 1,26,-1
 285 143 l 1,27,28
 275 128 275 128 283 121.5 c 128,-1,29
 291 115 291 115 311 113 c 0,30,31
 327 111 327 111 345 109 c 0,32,33
 360 107 360 107 379 105.5 c 128,-1,34
 398 104 398 104 418 102 c 1,35,-1
 418 0 l 1,36,-1
 -109 0 l 1,0,-1
525 1598 m 1,37,38
 549 1651 549 1651 579 1697 c 128,-1,39
 609 1743 609 1743 646 1777.5 c 128,-1,40
 683 1812 683 1812 727 1832 c 128,-1,41
 771 1852 771 1852 822 1852 c 0,42,43
 863 1852 863 1852 890.5 1837 c 128,-1,44
 918 1822 918 1822 944 1804 c 128,-1,45
 970 1786 970 1786 1000 1771 c 128,-1,46
 1030 1756 1030 1756 1076 1756 c 0,47,48
 1092 1756 1092 1756 1108.5 1763.5 c 128,-1,49
 1125 1771 1125 1771 1140 1784 c 128,-1,50
 1155 1797 1155 1797 1166.5 1814.5 c 128,-1,51
 1178 1832 1178 1832 1184 1852 c 1,52,-1
 1295 1852 l 1,53,54
 1272 1799 1272 1799 1242.5 1753 c 128,-1,55
 1213 1707 1213 1707 1176 1672.5 c 128,-1,56
 1139 1638 1139 1638 1094.5 1618 c 128,-1,57
 1050 1598 1050 1598 998 1598 c 0,58,59
 957 1598 957 1598 930 1613.5 c 128,-1,60
 903 1629 903 1629 877 1647 c 128,-1,61
 851 1665 851 1665 820.5 1680.5 c 128,-1,62
 790 1696 790 1696 744 1696 c 0,63,64
 728 1696 728 1696 711.5 1688.5 c 128,-1,65
 695 1681 695 1681 680.5 1667.5 c 128,-1,66
 666 1654 666 1654 654.5 1636.5 c 128,-1,67
 643 1619 643 1619 636 1598 c 1,68,-1
 525 1598 l 1,37,38
555 635 m 1,69,-1
 852 635 l 1,70,-1
 784 1032 l 1,71,-1
 555 635 l 1,69,-1
EndSplineSet
EndChar

StartChar: Adieresis
Encoding: 196 196 134
Width: 1464
GlyphClass: 2
Flags: W
LayerCount: 2
Fore
SplineSet
-109 0 m 1,0,-1
 -109 102 l 1,1,-1
 10 115 l 1,2,-1
 768 1407 l 1,3,-1
 1010 1407 l 1,4,-1
 1233 145 l 2,5,6
 1236 125 1236 125 1243.5 119.5 c 128,-1,7
 1251 114 1251 114 1274 111 c 0,8,9
 1288 110 1288 110 1304 108 c 0,10,11
 1318 106 1318 106 1334.5 105 c 128,-1,12
 1351 104 1351 104 1368 102 c 1,13,-1
 1368 0 l 1,14,-1
 801 0 l 1,15,-1
 801 102 l 1,16,17
 817 104 817 104 833.5 105.5 c 128,-1,18
 850 107 850 107 864 109 c 0,19,20
 880 111 880 111 895 113 c 0,21,22
 915 115 915 115 926 120 c 128,-1,23
 937 125 937 125 934 143 c 2,24,-1
 874 518 l 1,25,-1
 487 518 l 1,26,-1
 285 143 l 1,27,28
 275 128 275 128 283 121.5 c 128,-1,29
 291 115 291 115 311 113 c 0,30,31
 327 111 327 111 345 109 c 0,32,33
 360 107 360 107 379 105.5 c 128,-1,34
 398 104 398 104 418 102 c 1,35,-1
 418 0 l 1,36,-1
 -109 0 l 1,0,-1
555 635 m 1,37,-1
 852 635 l 1,38,-1
 784 1032 l 1,39,-1
 555 635 l 1,37,-1
571 1739 m 256,40,41
 571 1768 571 1768 582 1794 c 128,-1,42
 593 1820 593 1820 612 1839.5 c 128,-1,43
 631 1859 631 1859 657 1870 c 128,-1,44
 683 1881 683 1881 712 1881 c 256,45,46
 741 1881 741 1881 767 1870 c 128,-1,47
 793 1859 793 1859 812 1839.5 c 128,-1,48
 831 1820 831 1820 842 1794 c 128,-1,49
 853 1768 853 1768 853 1739 c 256,50,51
 853 1710 853 1710 842 1684.5 c 128,-1,52
 831 1659 831 1659 812 1639.5 c 128,-1,53
 793 1620 793 1620 767 1609 c 128,-1,54
 741 1598 741 1598 712 1598 c 256,55,56
 683 1598 683 1598 657 1609 c 128,-1,57
 631 1620 631 1620 612 1639.5 c 128,-1,58
 593 1659 593 1659 582 1684.5 c 128,-1,59
 571 1710 571 1710 571 1739 c 256,40,41
1003 1739 m 256,60,61
 1003 1768 1003 1768 1013.5 1794 c 128,-1,62
 1024 1820 1024 1820 1043 1839.5 c 128,-1,63
 1062 1859 1062 1859 1087.5 1870 c 128,-1,64
 1113 1881 1113 1881 1142 1881 c 256,65,66
 1171 1881 1171 1881 1197 1870 c 128,-1,67
 1223 1859 1223 1859 1242 1839.5 c 128,-1,68
 1261 1820 1261 1820 1272 1794 c 128,-1,69
 1283 1768 1283 1768 1283 1739 c 256,70,71
 1283 1710 1283 1710 1272 1684.5 c 128,-1,72
 1261 1659 1261 1659 1242 1639.5 c 128,-1,73
 1223 1620 1223 1620 1197 1609 c 128,-1,74
 1171 1598 1171 1598 1142 1598 c 256,75,76
 1113 1598 1113 1598 1087.5 1609 c 128,-1,77
 1062 1620 1062 1620 1043 1639.5 c 128,-1,78
 1024 1659 1024 1659 1013.5 1684.5 c 128,-1,79
 1003 1710 1003 1710 1003 1739 c 256,60,61
EndSplineSet
EndChar

StartChar: Aring
Encoding: 197 197 135
Width: 1464
GlyphClass: 2
Flags: W
LayerCount: 2
Fore
SplineSet
-109 0 m 1,0,-1
 -109 102 l 1,1,-1
 10 115 l 1,2,-1
 768 1407 l 1,3,-1
 1010 1407 l 1,4,-1
 1233 145 l 2,5,6
 1236 125 1236 125 1243.5 119.5 c 128,-1,7
 1251 114 1251 114 1274 111 c 0,8,9
 1288 110 1288 110 1304 108 c 0,10,11
 1318 106 1318 106 1334.5 105 c 128,-1,12
 1351 104 1351 104 1368 102 c 1,13,-1
 1368 0 l 1,14,-1
 801 0 l 1,15,-1
 801 102 l 1,16,17
 817 104 817 104 833.5 105.5 c 128,-1,18
 850 107 850 107 864 109 c 0,19,20
 880 111 880 111 895 113 c 0,21,22
 915 115 915 115 926 120 c 128,-1,23
 937 125 937 125 934 143 c 2,24,-1
 874 518 l 1,25,-1
 487 518 l 1,26,-1
 285 143 l 1,27,28
 275 128 275 128 283 121.5 c 128,-1,29
 291 115 291 115 311 113 c 0,30,31
 327 111 327 111 345 109 c 0,32,33
 360 107 360 107 379 105.5 c 128,-1,34
 398 104 398 104 418 102 c 1,35,-1
 418 0 l 1,36,-1
 -109 0 l 1,0,-1
555 635 m 1,37,-1
 852 635 l 1,38,-1
 784 1032 l 1,39,-1
 555 635 l 1,37,-1
689 1735 m 0,40,41
 689 1796 689 1796 715.5 1852.5 c 128,-1,42
 742 1909 742 1909 786 1951.5 c 128,-1,43
 830 1994 830 1994 886.5 2019.5 c 128,-1,44
 943 2045 943 2045 1004 2045 c 0,45,46
 1049 2045 1049 2045 1088 2029.5 c 128,-1,47
 1127 2014 1127 2014 1155 1986.5 c 128,-1,48
 1183 1959 1183 1959 1199 1921 c 128,-1,49
 1215 1883 1215 1883 1215 1838 c 0,50,51
 1215 1776 1215 1776 1188.5 1720 c 128,-1,52
 1162 1664 1162 1664 1118.5 1621.5 c 128,-1,53
 1075 1579 1075 1579 1018.5 1553.5 c 128,-1,54
 962 1528 962 1528 902 1528 c 0,55,56
 857 1528 857 1528 818 1543 c 128,-1,57
 779 1558 779 1558 750.5 1585.5 c 128,-1,58
 722 1613 722 1613 705.5 1651 c 128,-1,59
 689 1689 689 1689 689 1735 c 0,40,41
820 1762 m 0,60,61
 820 1715 820 1715 850.5 1686 c 128,-1,62
 881 1657 881 1657 926 1657 c 0,63,64
 957 1657 957 1657 985.5 1670 c 128,-1,65
 1014 1683 1014 1683 1036 1704 c 128,-1,66
 1058 1725 1058 1725 1071 1753 c 128,-1,67
 1084 1781 1084 1781 1084 1811 c 0,68,69
 1084 1858 1084 1858 1054 1887 c 128,-1,70
 1024 1916 1024 1916 978 1916 c 0,71,72
 948 1916 948 1916 919.5 1903 c 128,-1,73
 891 1890 891 1890 869 1869 c 128,-1,74
 847 1848 847 1848 833.5 1820 c 128,-1,75
 820 1792 820 1792 820 1762 c 0,60,61
EndSplineSet
EndChar

StartChar: AE
Encoding: 198 198 136
Width: 2003
GlyphClass: 2
Flags: W
LayerCount: 2
Fore
SplineSet
-109 0 m 1,0,-1
 -109 102 l 1,1,2
 -91 104 -91 104 -74 105 c 128,-1,3
 -57 106 -57 106 -43 108 c 0,4,5
 -27 110 -27 110 -12 111 c 0,6,7
 -3 112 -3 112 3 113.5 c 128,-1,8
 9 115 9 115 14 118.5 c 128,-1,9
 19 122 19 122 25.5 129 c 128,-1,10
 32 136 32 136 41 147 c 2,11,-1
 942 1231 l 2,12,13
 953 1243 953 1243 944 1252.5 c 128,-1,14
 935 1262 935 1262 913 1264 c 1,15,16
 897 1264 897 1264 881 1266 c 0,17,18
 867 1267 867 1267 850.5 1268.5 c 128,-1,19
 834 1270 834 1270 819 1272 c 1,20,-1
 819 1374 l 1,21,-1
 2079 1374 l 1,22,-1
 2015 1051 l 1,23,-1
 1849 1051 l 1,24,-1
 1849 1225 l 2,25,26
 1849 1240 1849 1240 1834 1245.5 c 128,-1,27
 1819 1251 1819 1251 1802 1251 c 2,28,-1
 1444 1251 l 1,29,-1
 1350 776 l 1,30,-1
 1563 776 l 2,31,32
 1578 776 1578 776 1596.5 783.5 c 128,-1,33
 1615 791 1615 791 1620 807 c 2,34,-1
 1661 950 l 1,35,-1
 1812 950 l 1,36,-1
 1716 469 l 1,37,-1
 1567 469 l 1,38,-1
 1591 623 l 2,39,40
 1592 629 1592 629 1588 634 c 128,-1,41
 1584 639 1584 639 1577 643 c 128,-1,42
 1570 647 1570 647 1561 649 c 128,-1,43
 1552 651 1552 651 1544 651 c 2,44,-1
 1325 651 l 1,45,-1
 1221 123 l 1,46,-1
 1640 123 l 2,47,48
 1647 123 1647 123 1656 125 c 128,-1,49
 1665 127 1665 127 1673.5 131 c 128,-1,50
 1682 135 1682 135 1689 140.5 c 128,-1,51
 1696 146 1696 146 1698 152 c 2,52,-1
 1763 356 l 1,53,-1
 1923 356 l 1,54,-1
 1853 0 l 1,55,-1
 768 0 l 1,56,-1
 768 102 l 1,57,58
 818 106 818 106 849.5 108.5 c 128,-1,59
 881 111 881 111 898.5 112.5 c 128,-1,60
 916 114 916 114 922.5 115.5 c 128,-1,61
 929 117 929 117 930.5 120.5 c 128,-1,62
 932 124 932 124 931 129.5 c 128,-1,63
 930 135 930 135 932 145 c 2,64,-1
 1006 512 l 1,65,-1
 604 512 l 1,66,-1
 299 147 l 2,67,68
 294 141 294 141 297.5 135 c 128,-1,69
 301 129 301 129 307.5 124 c 128,-1,70
 314 119 314 119 320 116 c 128,-1,71
 326 113 326 113 328 113 c 2,72,-1
 444 102 l 1,73,-1
 444 0 l 1,74,-1
 -109 0 l 1,0,-1
709 639 m 1,75,-1
 1030 639 l 1,76,-1
 1126 1130 l 1,77,-1
 709 639 l 1,75,-1
EndSplineSet
EndChar

